<svg width="82" height="79" viewBox="0 0 82 79" fill="none" xmlns="http://www.w3.org/2000/svg">
<g clip-path="url(#clip0_16464_100)">
<path d="M80.4324 31.348L80.3224 31.056L69.2138 2.21389C68.989 1.64757 68.5889 1.16716 68.0715 0.842199C67.6855 0.596216 67.2469 0.443677 66.791 0.396803C66.335 0.34993 65.8744 0.410028 65.446 0.57228C65.0176 0.734532 64.6333 0.994426 64.324 1.33113C64.0147 1.66783 63.7889 2.07198 63.6648 2.51118L56.1665 25.3606H25.8013L18.303 2.51118C18.1779 2.07264 17.9516 1.66925 17.6421 1.33319C17.3327 0.997132 16.9486 0.737699 16.5205 0.575579C16.0925 0.413459 15.6323 0.353139 15.1766 0.399429C14.721 0.44572 14.2825 0.59734 13.8962 0.842199C13.3788 1.16716 12.9788 1.64757 12.7539 2.21389L1.65057 31.0612L1.53529 31.348C-0.0632695 35.5064 -0.260206 40.0694 0.974166 44.349C2.20854 48.6285 4.8073 52.3926 8.3786 55.0737L8.42052 55.1049L8.51484 55.178L25.4135 67.784L33.7974 74.0896L38.8905 77.9231C39.4881 78.3724 40.2166 78.6154 40.9655 78.6154C41.7144 78.6154 42.4429 78.3724 43.0405 77.9231L48.1337 74.0896L56.5175 67.784L73.5367 55.1049L73.5839 55.0684C77.155 52.3884 79.7541 48.6255 80.9894 44.347C82.2246 40.0686 82.0292 35.5063 80.4324 31.348Z" fill="#E24329"/>
<path d="M80.4325 31.348L80.3224 31.056C74.9101 32.1614 69.8104 34.4448 65.3887 37.7423L40.997 56.1011L56.528 67.784L73.5472 55.1049L73.5944 55.0684C77.1637 52.387 79.7607 48.6235 80.994 44.3451C82.2274 40.0667 82.0303 35.5052 80.4325 31.348Z" fill="#FC6D26"/>
<path d="M25.4135 67.784L33.7974 74.0896L38.8905 77.9231C39.4881 78.3724 40.2166 78.6155 40.9655 78.6155C41.7145 78.6155 42.4429 78.3724 43.0405 77.9231L48.1337 74.0896L56.5175 67.784L40.9865 56.1011L25.4135 67.784Z" fill="#FCA326"/>
<path d="M16.579 37.7424C12.159 34.4464 7.06095 32.1649 1.65057 31.0612L1.53529 31.3481C-0.0632695 35.5065 -0.260206 40.0695 0.974166 44.349C2.20854 48.6285 4.8073 52.3926 8.3786 55.0737L8.42052 55.105L8.51484 55.178L25.4135 67.784L40.9551 56.1011L16.579 37.7424Z" fill="#FC6D26"/>
</g>
<defs>
<clipPath id="clip0_16464_100">
<rect width="82" height="79" fill="white"/>
</clipPath>
</defs>
</svg>
