<svg width="556" height="319" viewBox="0 0 556 319" fill="none" xmlns="http://www.w3.org/2000/svg">
<g filter="url(#filter0_d_16096_12634)">
<rect x="20" y="21" width="524" height="261" rx="40" fill="white"/>
<g clip-path="url(#clip0_16096_12634)">
<circle cx="97.5" cy="98.5" r="36.5" stroke="#0C2836" stroke-width="2"/>
<path d="M69.7984 94.098H72.1444L74.6054 102.424H74.6514L77.2504 94.098H79.5274L82.1724 102.424H82.2184L84.6794 94.098H86.9564L83.3454 105H81.0914L78.4004 96.812H78.3544L75.6864 105H73.4324L69.7984 94.098ZM89.4275 94.098H91.7735L94.2345 102.424H94.2805L96.8795 94.098H99.1565L101.801 102.424H101.847L104.308 94.098H106.585L102.974 105H100.72L98.0295 96.812H97.9835L95.3155 105H93.0615L89.4275 94.098ZM109.057 94.098H111.403L113.864 102.424H113.91L116.509 94.098H118.786L121.431 102.424H121.477L123.938 94.098H126.215L122.604 105H120.35L117.659 96.812H117.613L114.945 105H112.691L109.057 94.098Z" fill="#0C2836"/>
</g>
<path d="M62.124 181V168.4H66.84C67.908 168.4 68.826 168.574 69.594 168.922C70.362 169.258 70.95 169.75 71.358 170.398C71.778 171.034 71.988 171.808 71.988 172.72C71.988 173.608 71.778 174.376 71.358 175.024C70.95 175.66 70.362 176.152 69.594 176.5C68.826 176.848 67.908 177.022 66.84 177.022H62.862L63.456 176.392V181H62.124ZM63.456 176.5L62.862 175.852H66.804C68.064 175.852 69.018 175.582 69.666 175.042C70.326 174.49 70.656 173.716 70.656 172.72C70.656 171.712 70.326 170.932 69.666 170.38C69.018 169.828 68.064 169.552 66.804 169.552H62.862L63.456 168.922V176.5ZM80.184 181V178.912L80.13 178.57V175.078C80.13 174.274 79.902 173.656 79.446 173.224C79.002 172.792 78.336 172.576 77.448 172.576C76.836 172.576 76.254 172.678 75.702 172.882C75.15 173.086 74.682 173.356 74.298 173.692L73.722 172.738C74.202 172.33 74.778 172.018 75.45 171.802C76.122 171.574 76.83 171.46 77.574 171.46C78.798 171.46 79.74 171.766 80.4 172.378C81.072 172.978 81.408 173.896 81.408 175.132V181H80.184ZM76.926 181.09C76.218 181.09 75.6 180.976 75.072 180.748C74.556 180.508 74.16 180.184 73.884 179.776C73.608 179.356 73.47 178.876 73.47 178.336C73.47 177.844 73.584 177.4 73.812 177.004C74.052 176.596 74.436 176.272 74.964 176.032C75.504 175.78 76.224 175.654 77.124 175.654H80.382V176.608H77.16C76.248 176.608 75.612 176.77 75.252 177.094C74.904 177.418 74.73 177.82 74.73 178.3C74.73 178.84 74.94 179.272 75.36 179.596C75.78 179.92 76.368 180.082 77.124 180.082C77.844 180.082 78.462 179.92 78.978 179.596C79.506 179.26 79.89 178.78 80.13 178.156L80.418 179.038C80.178 179.662 79.758 180.16 79.158 180.532C78.57 180.904 77.826 181.09 76.926 181.09ZM87.1548 181.108C86.4708 181.108 85.7928 181.012 85.1208 180.82C84.4488 180.628 83.8548 180.334 83.3388 179.938L83.7528 178.984C84.2088 179.32 84.7368 179.578 85.3368 179.758C85.9368 179.926 86.5308 180.01 87.1188 180.01C87.7068 179.998 88.2168 179.914 88.6488 179.758C89.0808 179.602 89.4168 179.386 89.6568 179.11C89.8968 178.834 90.0168 178.522 90.0168 178.174C90.0168 177.67 89.7888 177.28 89.3328 177.004C88.8768 176.716 88.2528 176.572 87.4608 176.572H85.8408V175.636H87.3708C87.8388 175.636 88.2528 175.576 88.6128 175.456C88.9728 175.336 89.2488 175.162 89.4408 174.934C89.6448 174.706 89.7468 174.436 89.7468 174.124C89.7468 173.788 89.6268 173.5 89.3868 173.26C89.1588 173.02 88.8408 172.84 88.4328 172.72C88.0248 172.6 87.5628 172.54 87.0468 172.54C86.5788 172.552 86.0928 172.624 85.5888 172.756C85.0848 172.876 84.5868 173.062 84.0948 173.314L83.7348 172.324C84.2868 172.036 84.8328 171.82 85.3728 171.676C85.9248 171.52 86.4768 171.442 87.0288 171.442C87.7848 171.418 88.4628 171.508 89.0628 171.712C89.6748 171.916 90.1608 172.21 90.5208 172.594C90.8808 172.966 91.0608 173.416 91.0608 173.944C91.0608 174.412 90.9168 174.82 90.6288 175.168C90.3408 175.516 89.9568 175.786 89.4768 175.978C88.9968 176.17 88.4508 176.266 87.8388 176.266L87.8928 175.924C88.9728 175.924 89.8128 176.134 90.4128 176.554C91.0248 176.974 91.3308 177.544 91.3308 178.264C91.3308 178.828 91.1448 179.326 90.7728 179.758C90.4008 180.178 89.8968 180.508 89.2608 180.748C88.6368 180.988 87.9348 181.108 87.1548 181.108ZM99.1101 181.09C98.2941 181.09 97.5561 180.904 96.8961 180.532C96.2361 180.148 95.7081 179.602 95.3121 178.894C94.9281 178.174 94.7361 177.298 94.7361 176.266C94.7361 175.234 94.9281 174.364 95.3121 173.656C95.6961 172.936 96.2181 172.39 96.8781 172.018C97.5381 171.646 98.2821 171.46 99.1101 171.46C100.01 171.46 100.814 171.664 101.522 172.072C102.242 172.468 102.806 173.032 103.214 173.764C103.622 174.484 103.826 175.318 103.826 176.266C103.826 177.226 103.622 178.066 103.214 178.786C102.806 179.506 102.242 180.07 101.522 180.478C100.814 180.886 100.01 181.09 99.1101 181.09ZM94.2321 184.492V171.55H95.4561V174.394L95.3301 176.284L95.5101 178.192V184.492H94.2321ZM99.0201 179.956C99.6921 179.956 100.292 179.806 100.82 179.506C101.348 179.194 101.768 178.762 102.08 178.21C102.392 177.646 102.548 176.998 102.548 176.266C102.548 175.534 102.392 174.892 102.08 174.34C101.768 173.788 101.348 173.356 100.82 173.044C100.292 172.732 99.6921 172.576 99.0201 172.576C98.3481 172.576 97.7421 172.732 97.2021 173.044C96.6741 173.356 96.2541 173.788 95.9421 174.34C95.6421 174.892 95.4921 175.534 95.4921 176.266C95.4921 176.998 95.6421 177.646 95.9421 178.21C96.2541 178.762 96.6741 179.194 97.2021 179.506C97.7421 179.806 98.3481 179.956 99.0201 179.956ZM112.387 181V178.912L112.333 178.57V175.078C112.333 174.274 112.105 173.656 111.649 173.224C111.205 172.792 110.539 172.576 109.651 172.576C109.039 172.576 108.457 172.678 107.905 172.882C107.353 173.086 106.885 173.356 106.501 173.692L105.925 172.738C106.405 172.33 106.981 172.018 107.653 171.802C108.325 171.574 109.033 171.46 109.777 171.46C111.001 171.46 111.943 171.766 112.603 172.378C113.275 172.978 113.611 173.896 113.611 175.132V181H112.387ZM109.129 181.09C108.421 181.09 107.803 180.976 107.275 180.748C106.759 180.508 106.363 180.184 106.087 179.776C105.811 179.356 105.673 178.876 105.673 178.336C105.673 177.844 105.787 177.4 106.015 177.004C106.255 176.596 106.639 176.272 107.167 176.032C107.707 175.78 108.427 175.654 109.327 175.654H112.585V176.608H109.363C108.451 176.608 107.815 176.77 107.455 177.094C107.107 177.418 106.933 177.82 106.933 178.3C106.933 178.84 107.143 179.272 107.563 179.596C107.983 179.92 108.571 180.082 109.327 180.082C110.047 180.082 110.665 179.92 111.181 179.596C111.709 179.26 112.093 178.78 112.333 178.156L112.621 179.038C112.381 179.662 111.961 180.16 111.361 180.532C110.773 180.904 110.029 181.09 109.129 181.09ZM121.261 181.108C120.493 181.108 119.809 180.982 119.209 180.73C118.621 180.478 118.117 180.094 117.697 179.578C117.277 179.062 116.959 178.426 116.743 177.67C116.527 176.902 116.419 176.014 116.419 175.006C116.419 174.106 116.503 173.32 116.671 172.648C116.839 171.964 117.073 171.376 117.373 170.884C117.673 170.392 118.021 169.978 118.417 169.642C118.825 169.294 119.263 169.018 119.731 168.814C120.211 168.598 120.703 168.436 121.207 168.328L125.455 167.338L125.671 168.526L121.675 169.426C121.423 169.486 121.117 169.57 120.757 169.678C120.409 169.786 120.049 169.948 119.677 170.164C119.317 170.38 118.981 170.68 118.669 171.064C118.357 171.448 118.105 171.946 117.913 172.558C117.733 173.158 117.643 173.908 117.643 174.808C117.643 175 117.649 175.156 117.661 175.276C117.673 175.384 117.685 175.504 117.697 175.636C117.721 175.756 117.739 175.936 117.751 176.176L117.193 175.708C117.325 174.976 117.595 174.34 118.003 173.8C118.411 173.248 118.921 172.822 119.533 172.522C120.157 172.21 120.847 172.054 121.603 172.054C122.479 172.054 123.259 172.246 123.943 172.63C124.627 173.002 125.161 173.524 125.545 174.196C125.941 174.868 126.139 175.648 126.139 176.536C126.139 177.412 125.935 178.198 125.527 178.894C125.131 179.59 124.567 180.136 123.835 180.532C123.103 180.916 122.245 181.108 121.261 181.108ZM121.405 180.046C122.077 180.046 122.671 179.896 123.187 179.596C123.703 179.284 124.105 178.864 124.393 178.336C124.693 177.808 124.843 177.214 124.843 176.554C124.843 175.906 124.693 175.33 124.393 174.826C124.105 174.322 123.703 173.926 123.187 173.638C122.671 173.338 122.071 173.188 121.387 173.188C120.715 173.188 120.121 173.332 119.605 173.62C119.089 173.896 118.681 174.286 118.381 174.79C118.093 175.294 117.949 175.876 117.949 176.536C117.949 177.196 118.093 177.79 118.381 178.318C118.681 178.846 119.089 179.266 119.605 179.578C120.133 179.89 120.733 180.046 121.405 180.046ZM134.694 181V178.912L134.64 178.57V175.078C134.64 174.274 134.412 173.656 133.956 173.224C133.512 172.792 132.846 172.576 131.958 172.576C131.346 172.576 130.764 172.678 130.212 172.882C129.66 173.086 129.192 173.356 128.808 173.692L128.232 172.738C128.712 172.33 129.288 172.018 129.96 171.802C130.632 171.574 131.34 171.46 132.084 171.46C133.308 171.46 134.25 171.766 134.91 172.378C135.582 172.978 135.918 173.896 135.918 175.132V181H134.694ZM131.436 181.09C130.728 181.09 130.11 180.976 129.582 180.748C129.066 180.508 128.67 180.184 128.394 179.776C128.118 179.356 127.98 178.876 127.98 178.336C127.98 177.844 128.094 177.4 128.322 177.004C128.562 176.596 128.946 176.272 129.474 176.032C130.014 175.78 130.734 175.654 131.634 175.654H134.892V176.608H131.67C130.758 176.608 130.122 176.77 129.762 177.094C129.414 177.418 129.24 177.82 129.24 178.3C129.24 178.84 129.45 179.272 129.87 179.596C130.29 179.92 130.878 180.082 131.634 180.082C132.354 180.082 132.972 179.92 133.488 179.596C134.016 179.26 134.4 178.78 134.64 178.156L134.928 179.038C134.688 179.662 134.268 180.16 133.668 180.532C133.08 180.904 132.336 181.09 131.436 181.09ZM141.12 181V172.324L141.444 172.666H137.538V171.55H145.98V172.666H142.074L142.398 172.324V181H141.12ZM157.044 181V171.55H158.322V181H157.044ZM151.806 174.88C152.994 174.892 153.9 175.156 154.524 175.672C155.148 176.188 155.46 176.932 155.46 177.904C155.46 178.912 155.124 179.686 154.452 180.226C153.78 180.766 152.82 181.03 151.572 181.018L147.828 181V171.55H149.106V174.844L151.806 174.88ZM151.482 180.046C152.37 180.058 153.036 179.884 153.48 179.524C153.936 179.152 154.164 178.612 154.164 177.904C154.164 177.196 153.942 176.68 153.498 176.356C153.054 176.02 152.382 175.846 151.482 175.834L149.106 175.798V180.01L151.482 180.046ZM161.961 181V171.55H166.137C167.205 171.55 168.045 171.754 168.657 172.162C169.281 172.57 169.593 173.17 169.593 173.962C169.593 174.73 169.299 175.324 168.711 175.744C168.123 176.152 167.349 176.356 166.389 176.356L166.641 175.978C167.769 175.978 168.597 176.188 169.125 176.608C169.653 177.028 169.917 177.634 169.917 178.426C169.917 179.242 169.617 179.878 169.017 180.334C168.429 180.778 167.511 181 166.263 181H161.961ZM163.203 179.992H166.209C167.013 179.992 167.619 179.866 168.027 179.614C168.447 179.35 168.657 178.93 168.657 178.354C168.657 177.778 168.471 177.358 168.099 177.094C167.727 176.83 167.139 176.698 166.335 176.698H163.203V179.992ZM163.203 175.744H166.047C166.779 175.744 167.337 175.606 167.721 175.33C168.117 175.054 168.315 174.652 168.315 174.124C168.315 173.596 168.117 173.2 167.721 172.936C167.337 172.672 166.779 172.54 166.047 172.54H163.203V175.744ZM178.78 181V178.912L178.726 178.57V175.078C178.726 174.274 178.498 173.656 178.042 173.224C177.598 172.792 176.932 172.576 176.044 172.576C175.432 172.576 174.85 172.678 174.298 172.882C173.746 173.086 173.278 173.356 172.894 173.692L172.318 172.738C172.798 172.33 173.374 172.018 174.046 171.802C174.718 171.574 175.426 171.46 176.17 171.46C177.394 171.46 178.336 171.766 178.996 172.378C179.668 172.978 180.004 173.896 180.004 175.132V181H178.78ZM175.522 181.09C174.814 181.09 174.196 180.976 173.668 180.748C173.152 180.508 172.756 180.184 172.48 179.776C172.204 179.356 172.066 178.876 172.066 178.336C172.066 177.844 172.18 177.4 172.408 177.004C172.648 176.596 173.032 176.272 173.56 176.032C174.1 175.78 174.82 175.654 175.72 175.654H178.978V176.608H175.756C174.844 176.608 174.208 176.77 173.848 177.094C173.5 177.418 173.326 177.82 173.326 178.3C173.326 178.84 173.536 179.272 173.956 179.596C174.376 179.92 174.964 180.082 175.72 180.082C176.44 180.082 177.058 179.92 177.574 179.596C178.102 179.26 178.486 178.78 178.726 178.156L179.014 179.038C178.774 179.662 178.354 180.16 177.754 180.532C177.166 180.904 176.422 181.09 175.522 181.09ZM187.456 181.09C186.472 181.09 185.608 180.886 184.864 180.478C184.12 180.058 183.538 179.488 183.118 178.768C182.698 178.036 182.488 177.202 182.488 176.266C182.488 175.33 182.686 174.502 183.082 173.782C183.49 173.062 184.042 172.498 184.738 172.09C185.446 171.67 186.238 171.46 187.114 171.46C188.002 171.46 188.788 171.664 189.472 172.072C190.168 172.468 190.714 173.032 191.11 173.764C191.506 174.484 191.704 175.318 191.704 176.266C191.704 176.326 191.698 176.392 191.686 176.464C191.686 176.524 191.686 176.59 191.686 176.662H183.46V175.708H191.002L190.498 176.086C190.498 175.402 190.348 174.796 190.048 174.268C189.76 173.728 189.364 173.308 188.86 173.008C188.356 172.708 187.774 172.558 187.114 172.558C186.466 172.558 185.884 172.708 185.368 173.008C184.852 173.308 184.45 173.728 184.162 174.268C183.874 174.808 183.73 175.426 183.73 176.122V176.32C183.73 177.04 183.886 177.676 184.198 178.228C184.522 178.768 184.966 179.194 185.53 179.506C186.106 179.806 186.76 179.956 187.492 179.956C188.068 179.956 188.602 179.854 189.094 179.65C189.598 179.446 190.03 179.134 190.39 178.714L191.11 179.542C190.69 180.046 190.162 180.43 189.526 180.694C188.902 180.958 188.212 181.09 187.456 181.09ZM194.533 181V171.55H195.829L200.113 178.804H199.573L203.929 171.55H205.117V181H203.947V173.008L204.181 173.116L200.113 179.848H199.537L195.433 173.044L195.703 172.99V181H194.533ZM213.464 181V171.55H217.64C218.708 171.55 219.548 171.754 220.16 172.162C220.784 172.57 221.096 173.17 221.096 173.962C221.096 174.73 220.802 175.324 220.214 175.744C219.626 176.152 218.852 176.356 217.892 176.356L218.144 175.978C219.272 175.978 220.1 176.188 220.628 176.608C221.156 177.028 221.42 177.634 221.42 178.426C221.42 179.242 221.12 179.878 220.52 180.334C219.932 180.778 219.014 181 217.766 181H213.464ZM214.706 179.992H217.712C218.516 179.992 219.122 179.866 219.53 179.614C219.95 179.35 220.16 178.93 220.16 178.354C220.16 177.778 219.974 177.358 219.602 177.094C219.23 176.83 218.642 176.698 217.838 176.698H214.706V179.992ZM214.706 175.744H217.55C218.282 175.744 218.84 175.606 219.224 175.33C219.62 175.054 219.818 174.652 219.818 174.124C219.818 173.596 219.62 173.2 219.224 172.936C218.84 172.672 218.282 172.54 217.55 172.54H214.706V175.744ZM233.632 181V171.55H234.91V181H233.632ZM228.394 174.88C229.582 174.892 230.488 175.156 231.112 175.672C231.736 176.188 232.048 176.932 232.048 177.904C232.048 178.912 231.712 179.686 231.04 180.226C230.368 180.766 229.408 181.03 228.16 181.018L224.416 181V171.55H225.694V174.844L228.394 174.88ZM228.07 180.046C228.958 180.058 229.624 179.884 230.068 179.524C230.524 179.152 230.752 178.612 230.752 177.904C230.752 177.196 230.53 176.68 230.086 176.356C229.642 176.02 228.97 175.846 228.07 175.834L225.694 175.798V180.01L228.07 180.046ZM242.508 181.09C241.572 181.09 240.732 180.886 239.988 180.478C239.256 180.058 238.68 179.488 238.26 178.768C237.84 178.036 237.63 177.202 237.63 176.266C237.63 175.318 237.84 174.484 238.26 173.764C238.68 173.044 239.256 172.48 239.988 172.072C240.732 171.664 241.572 171.46 242.508 171.46C243.312 171.46 244.038 171.616 244.686 171.928C245.334 172.24 245.844 172.708 246.216 173.332L245.262 173.98C244.938 173.5 244.536 173.146 244.056 172.918C243.576 172.69 243.054 172.576 242.49 172.576C241.818 172.576 241.212 172.732 240.672 173.044C240.132 173.344 239.706 173.77 239.394 174.322C239.082 174.874 238.926 175.522 238.926 176.266C238.926 177.01 239.082 177.658 239.394 178.21C239.706 178.762 240.132 179.194 240.672 179.506C241.212 179.806 241.818 179.956 242.49 179.956C243.054 179.956 243.576 179.842 244.056 179.614C244.536 179.386 244.938 179.038 245.262 178.57L246.216 179.218C245.844 179.83 245.334 180.298 244.686 180.622C244.038 180.934 243.312 181.09 242.508 181.09ZM252.421 181.09C251.509 181.09 250.687 180.886 249.955 180.478C249.235 180.058 248.665 179.488 248.245 178.768C247.825 178.036 247.615 177.202 247.615 176.266C247.615 175.318 247.825 174.484 248.245 173.764C248.665 173.044 249.235 172.48 249.955 172.072C250.675 171.664 251.497 171.46 252.421 171.46C253.357 171.46 254.185 171.664 254.905 172.072C255.637 172.48 256.207 173.044 256.615 173.764C257.035 174.484 257.245 175.318 257.245 176.266C257.245 177.202 257.035 178.036 256.615 178.768C256.207 179.488 255.637 180.058 254.905 180.478C254.173 180.886 253.345 181.09 252.421 181.09ZM252.421 179.956C253.105 179.956 253.711 179.806 254.239 179.506C254.767 179.194 255.181 178.762 255.481 178.21C255.793 177.646 255.949 176.998 255.949 176.266C255.949 175.522 255.793 174.874 255.481 174.322C255.181 173.77 254.767 173.344 254.239 173.044C253.711 172.732 253.111 172.576 252.439 172.576C251.767 172.576 251.167 172.732 250.639 173.044C250.111 173.344 249.691 173.77 249.379 174.322C249.067 174.874 248.911 175.522 248.911 176.266C248.911 176.998 249.067 177.646 249.379 178.21C249.691 178.762 250.111 179.194 250.639 179.506C251.167 179.806 251.761 179.956 252.421 179.956ZM266.906 181L263.018 176.32L264.08 175.69L268.418 181H266.906ZM259.976 181V171.55H261.254V181H259.976ZM260.858 176.788V175.69H263.9V176.788H260.858ZM264.188 176.41L263 176.23L266.762 171.55H268.148L264.188 176.41ZM273.989 181.09C273.077 181.09 272.255 180.886 271.523 180.478C270.803 180.058 270.233 179.488 269.813 178.768C269.393 178.036 269.183 177.202 269.183 176.266C269.183 175.318 269.393 174.484 269.813 173.764C270.233 173.044 270.803 172.48 271.523 172.072C272.243 171.664 273.065 171.46 273.989 171.46C274.925 171.46 275.753 171.664 276.473 172.072C277.205 172.48 277.775 173.044 278.183 173.764C278.603 174.484 278.813 175.318 278.813 176.266C278.813 177.202 278.603 178.036 278.183 178.768C277.775 179.488 277.205 180.058 276.473 180.478C275.741 180.886 274.913 181.09 273.989 181.09ZM273.989 179.956C274.673 179.956 275.279 179.806 275.807 179.506C276.335 179.194 276.749 178.762 277.049 178.21C277.361 177.646 277.517 176.998 277.517 176.266C277.517 175.522 277.361 174.874 277.049 174.322C276.749 173.77 276.335 173.344 275.807 173.044C275.279 172.732 274.679 172.576 274.007 172.576C273.335 172.576 272.735 172.732 272.207 173.044C271.679 173.344 271.259 173.77 270.947 174.322C270.635 174.874 270.479 175.522 270.479 176.266C270.479 176.998 270.635 177.646 270.947 178.21C271.259 178.762 271.679 179.194 272.207 179.506C272.735 179.806 273.329 179.956 273.989 179.956ZM281.545 181V171.55H290.041V181H288.763V172.324L289.087 172.666H282.499L282.823 172.324V181H281.545ZM298.551 181.09C297.735 181.09 296.997 180.904 296.337 180.532C295.677 180.148 295.149 179.602 294.753 178.894C294.369 178.174 294.177 177.298 294.177 176.266C294.177 175.234 294.369 174.364 294.753 173.656C295.137 172.936 295.659 172.39 296.319 172.018C296.979 171.646 297.723 171.46 298.551 171.46C299.451 171.46 300.255 171.664 300.963 172.072C301.683 172.468 302.247 173.032 302.655 173.764C303.063 174.484 303.267 175.318 303.267 176.266C303.267 177.226 303.063 178.066 302.655 178.786C302.247 179.506 301.683 180.07 300.963 180.478C300.255 180.886 299.451 181.09 298.551 181.09ZM293.673 184.492V171.55H294.897V174.394L294.771 176.284L294.951 178.192V184.492H293.673ZM298.461 179.956C299.133 179.956 299.733 179.806 300.261 179.506C300.789 179.194 301.209 178.762 301.521 178.21C301.833 177.646 301.989 176.998 301.989 176.266C301.989 175.534 301.833 174.892 301.521 174.34C301.209 173.788 300.789 173.356 300.261 173.044C299.733 172.732 299.133 172.576 298.461 172.576C297.789 172.576 297.183 172.732 296.643 173.044C296.115 173.356 295.695 173.788 295.383 174.34C295.083 174.892 294.933 175.534 294.933 176.266C294.933 176.998 295.083 177.646 295.383 178.21C295.695 178.762 296.115 179.194 296.643 179.506C297.183 179.806 297.789 179.956 298.461 179.956ZM309.901 181.09C308.989 181.09 308.167 180.886 307.435 180.478C306.715 180.058 306.145 179.488 305.725 178.768C305.305 178.036 305.095 177.202 305.095 176.266C305.095 175.318 305.305 174.484 305.725 173.764C306.145 173.044 306.715 172.48 307.435 172.072C308.155 171.664 308.977 171.46 309.901 171.46C310.837 171.46 311.665 171.664 312.385 172.072C313.117 172.48 313.687 173.044 314.095 173.764C314.515 174.484 314.725 175.318 314.725 176.266C314.725 177.202 314.515 178.036 314.095 178.768C313.687 179.488 313.117 180.058 312.385 180.478C311.653 180.886 310.825 181.09 309.901 181.09ZM309.901 179.956C310.585 179.956 311.191 179.806 311.719 179.506C312.247 179.194 312.661 178.762 312.961 178.21C313.273 177.646 313.429 176.998 313.429 176.266C313.429 175.522 313.273 174.874 312.961 174.322C312.661 173.77 312.247 173.344 311.719 173.044C311.191 172.732 310.591 172.576 309.919 172.576C309.247 172.576 308.647 172.732 308.119 173.044C307.591 173.344 307.171 173.77 306.859 174.322C306.547 174.874 306.391 175.522 306.391 176.266C306.391 176.998 306.547 177.646 306.859 178.21C307.171 178.762 307.591 179.194 308.119 179.506C308.647 179.806 309.241 179.956 309.901 179.956ZM317.457 181V171.55H318.735V179.056L325.053 171.55H326.187V181H324.909V173.476L318.609 181H317.457ZM332.194 181.108C331.51 181.108 330.832 181.012 330.16 180.82C329.488 180.628 328.894 180.334 328.378 179.938L328.792 178.984C329.248 179.32 329.776 179.578 330.376 179.758C330.976 179.926 331.57 180.01 332.158 180.01C332.746 179.998 333.256 179.914 333.688 179.758C334.12 179.602 334.456 179.386 334.696 179.11C334.936 178.834 335.056 178.522 335.056 178.174C335.056 177.67 334.828 177.28 334.372 177.004C333.916 176.716 333.292 176.572 332.5 176.572H330.88V175.636H332.41C332.878 175.636 333.292 175.576 333.652 175.456C334.012 175.336 334.288 175.162 334.48 174.934C334.684 174.706 334.786 174.436 334.786 174.124C334.786 173.788 334.666 173.5 334.426 173.26C334.198 173.02 333.88 172.84 333.472 172.72C333.064 172.6 332.602 172.54 332.086 172.54C331.618 172.552 331.132 172.624 330.628 172.756C330.124 172.876 329.626 173.062 329.134 173.314L328.774 172.324C329.326 172.036 329.872 171.82 330.412 171.676C330.964 171.52 331.516 171.442 332.068 171.442C332.824 171.418 333.502 171.508 334.102 171.712C334.714 171.916 335.2 172.21 335.56 172.594C335.92 172.966 336.1 173.416 336.1 173.944C336.1 174.412 335.956 174.82 335.668 175.168C335.38 175.516 334.996 175.786 334.516 175.978C334.036 176.17 333.49 176.266 332.878 176.266L332.932 175.924C334.012 175.924 334.852 176.134 335.452 176.554C336.064 176.974 336.37 177.544 336.37 178.264C336.37 178.828 336.184 179.326 335.812 179.758C335.44 180.178 334.936 180.508 334.3 180.748C333.676 180.988 332.974 181.108 332.194 181.108ZM339.271 181V171.55H343.447C344.515 171.55 345.355 171.754 345.967 172.162C346.591 172.57 346.903 173.17 346.903 173.962C346.903 174.73 346.609 175.324 346.021 175.744C345.433 176.152 344.659 176.356 343.699 176.356L343.951 175.978C345.079 175.978 345.907 176.188 346.435 176.608C346.963 177.028 347.227 177.634 347.227 178.426C347.227 179.242 346.927 179.878 346.327 180.334C345.739 180.778 344.821 181 343.573 181H339.271ZM340.513 179.992H343.519C344.323 179.992 344.929 179.866 345.337 179.614C345.757 179.35 345.967 178.93 345.967 178.354C345.967 177.778 345.781 177.358 345.409 177.094C345.037 176.83 344.449 176.698 343.645 176.698H340.513V179.992ZM340.513 175.744H343.357C344.089 175.744 344.647 175.606 345.031 175.33C345.427 175.054 345.625 174.652 345.625 174.124C345.625 173.596 345.427 173.2 345.031 172.936C344.647 172.672 344.089 172.54 343.357 172.54H340.513V175.744ZM354.11 181.09C353.198 181.09 352.376 180.886 351.644 180.478C350.924 180.058 350.354 179.488 349.934 178.768C349.514 178.036 349.304 177.202 349.304 176.266C349.304 175.318 349.514 174.484 349.934 173.764C350.354 173.044 350.924 172.48 351.644 172.072C352.364 171.664 353.186 171.46 354.11 171.46C355.046 171.46 355.874 171.664 356.594 172.072C357.326 172.48 357.896 173.044 358.304 173.764C358.724 174.484 358.934 175.318 358.934 176.266C358.934 177.202 358.724 178.036 358.304 178.768C357.896 179.488 357.326 180.058 356.594 180.478C355.862 180.886 355.034 181.09 354.11 181.09ZM354.11 179.956C354.794 179.956 355.4 179.806 355.928 179.506C356.456 179.194 356.87 178.762 357.17 178.21C357.482 177.646 357.638 176.998 357.638 176.266C357.638 175.522 357.482 174.874 357.17 174.322C356.87 173.77 356.456 173.344 355.928 173.044C355.4 172.732 354.8 172.576 354.128 172.576C353.456 172.576 352.856 172.732 352.328 173.044C351.8 173.344 351.38 173.77 351.068 174.322C350.756 174.874 350.6 175.522 350.6 176.266C350.6 176.998 350.756 177.646 351.068 178.21C351.38 178.762 351.8 179.194 352.328 179.506C352.856 179.806 353.45 179.956 354.11 179.956ZM368.093 180.388V172.666H363.539L363.431 174.772C363.407 175.408 363.365 176.032 363.305 176.644C363.257 177.256 363.167 177.82 363.035 178.336C362.915 178.84 362.741 179.254 362.513 179.578C362.285 179.89 361.991 180.07 361.631 180.118L360.353 179.884C360.725 179.896 361.031 179.764 361.271 179.488C361.511 179.2 361.697 178.81 361.829 178.318C361.961 177.826 362.057 177.268 362.117 176.644C362.177 176.008 362.225 175.36 362.261 174.7L362.387 171.55H369.371V180.388H368.093ZM359.957 183.286V179.884H370.847V183.286H369.641V181H361.163V183.286H359.957ZM373.338 181V171.55H374.616V179.056L380.934 171.55H382.068V181H380.79V173.476L374.49 181H373.338ZM387.53 181V172.324L387.854 172.666H383.948V171.55H392.39V172.666H388.484L388.808 172.324V181H387.53ZM397.848 181.09C396.864 181.09 396 180.886 395.256 180.478C394.512 180.058 393.93 179.488 393.51 178.768C393.09 178.036 392.88 177.202 392.88 176.266C392.88 175.33 393.078 174.502 393.474 173.782C393.882 173.062 394.434 172.498 395.13 172.09C395.838 171.67 396.63 171.46 397.506 171.46C398.394 171.46 399.18 171.664 399.864 172.072C400.56 172.468 401.106 173.032 401.502 173.764C401.898 174.484 402.096 175.318 402.096 176.266C402.096 176.326 402.09 176.392 402.078 176.464C402.078 176.524 402.078 176.59 402.078 176.662H393.852V175.708H401.394L400.89 176.086C400.89 175.402 400.74 174.796 400.44 174.268C400.152 173.728 399.756 173.308 399.252 173.008C398.748 172.708 398.166 172.558 397.506 172.558C396.858 172.558 396.276 172.708 395.76 173.008C395.244 173.308 394.842 173.728 394.554 174.268C394.266 174.808 394.122 175.426 394.122 176.122V176.32C394.122 177.04 394.278 177.676 394.59 178.228C394.914 178.768 395.358 179.194 395.922 179.506C396.498 179.806 397.152 179.956 397.884 179.956C398.46 179.956 398.994 179.854 399.486 179.65C399.99 179.446 400.422 179.134 400.782 178.714L401.502 179.542C401.082 180.046 400.554 180.43 399.918 180.694C399.294 180.958 398.604 181.09 397.848 181.09ZM403.004 180.982L403.094 179.884C403.178 179.896 403.256 179.914 403.328 179.938C403.412 179.95 403.484 179.956 403.544 179.956C403.928 179.956 404.234 179.812 404.462 179.524C404.702 179.236 404.882 178.852 405.002 178.372C405.122 177.892 405.206 177.352 405.254 176.752C405.302 176.14 405.344 175.528 405.38 174.916L405.542 171.55H412.472V181H411.194V172.288L411.518 172.666H406.37L406.676 172.27L406.532 175.006C406.496 175.822 406.43 176.602 406.334 177.346C406.25 178.09 406.112 178.744 405.92 179.308C405.74 179.872 405.488 180.316 405.164 180.64C404.84 180.952 404.426 181.108 403.922 181.108C403.778 181.108 403.628 181.096 403.472 181.072C403.328 181.048 403.172 181.018 403.004 180.982ZM420.173 174.88C421.361 174.892 422.261 175.156 422.873 175.672C423.497 176.188 423.809 176.932 423.809 177.904C423.809 178.912 423.473 179.686 422.801 180.226C422.141 180.766 421.181 181.03 419.921 181.018L416.105 181V171.55H417.383V174.844L420.173 174.88ZM419.849 180.046C420.725 180.058 421.385 179.884 421.829 179.524C422.285 179.152 422.513 178.612 422.513 177.904C422.513 177.196 422.291 176.68 421.847 176.356C421.403 176.02 420.737 175.846 419.849 175.834L417.383 175.798V180.01L419.849 180.046ZM426.248 181V171.55H427.526V175.726H433.484V171.55H434.762V181H433.484V176.824H427.526V181H426.248ZM447.61 181V171.55H448.888V181H447.61ZM442.372 174.88C443.56 174.892 444.466 175.156 445.09 175.672C445.714 176.188 446.026 176.932 446.026 177.904C446.026 178.912 445.69 179.686 445.018 180.226C444.346 180.766 443.386 181.03 442.138 181.018L438.394 181V171.55H439.672V174.844L442.372 174.88ZM442.048 180.046C442.936 180.058 443.602 179.884 444.046 179.524C444.502 179.152 444.73 178.612 444.73 177.904C444.73 177.196 444.508 176.68 444.064 176.356C443.62 176.02 442.948 175.846 442.048 175.834L439.672 175.798V180.01L442.048 180.046ZM456.577 181.09C455.593 181.09 454.729 180.886 453.985 180.478C453.241 180.058 452.659 179.488 452.239 178.768C451.819 178.036 451.609 177.202 451.609 176.266C451.609 175.33 451.807 174.502 452.203 173.782C452.611 173.062 453.163 172.498 453.859 172.09C454.567 171.67 455.359 171.46 456.235 171.46C457.123 171.46 457.909 171.664 458.593 172.072C459.289 172.468 459.835 173.032 460.231 173.764C460.627 174.484 460.825 175.318 460.825 176.266C460.825 176.326 460.819 176.392 460.807 176.464C460.807 176.524 460.807 176.59 460.807 176.662H452.581V175.708H460.123L459.619 176.086C459.619 175.402 459.469 174.796 459.169 174.268C458.881 173.728 458.485 173.308 457.981 173.008C457.477 172.708 456.895 172.558 456.235 172.558C455.587 172.558 455.005 172.708 454.489 173.008C453.973 173.308 453.571 173.728 453.283 174.268C452.995 174.808 452.851 175.426 452.851 176.122V176.32C452.851 177.04 453.007 177.676 453.319 178.228C453.643 178.768 454.087 179.194 454.651 179.506C455.227 179.806 455.881 179.956 456.613 179.956C457.189 179.956 457.723 179.854 458.215 179.65C458.719 179.446 459.151 179.134 459.511 178.714L460.231 179.542C459.811 180.046 459.283 180.43 458.647 180.694C458.023 180.958 457.333 181.09 456.577 181.09ZM468.365 181V171.55H469.643V179.056L475.961 171.55H477.095V181H475.817V173.476L469.517 181H468.365ZM61.818 208V198.55H63.114L67.398 205.804H66.858L71.214 198.55H72.402V208H71.232V200.008L71.466 200.116L67.398 206.848H66.822L62.718 200.044L62.988 199.99V208H61.818ZM81.9067 208V205.912L81.8527 205.57V202.078C81.8527 201.274 81.6247 200.656 81.1687 200.224C80.7247 199.792 80.0587 199.576 79.1707 199.576C78.5587 199.576 77.9767 199.678 77.4247 199.882C76.8727 200.086 76.4047 200.356 76.0207 200.692L75.4447 199.738C75.9247 199.33 76.5007 199.018 77.1727 198.802C77.8447 198.574 78.5527 198.46 79.2967 198.46C80.5207 198.46 81.4627 198.766 82.1227 199.378C82.7947 199.978 83.1307 200.896 83.1307 202.132V208H81.9067ZM78.6487 208.09C77.9407 208.09 77.3227 207.976 76.7947 207.748C76.2787 207.508 75.8827 207.184 75.6067 206.776C75.3307 206.356 75.1927 205.876 75.1927 205.336C75.1927 204.844 75.3067 204.4 75.5347 204.004C75.7747 203.596 76.1587 203.272 76.6867 203.032C77.2267 202.78 77.9467 202.654 78.8467 202.654H82.1047V203.608H78.8827C77.9707 203.608 77.3347 203.77 76.9747 204.094C76.6267 204.418 76.4527 204.82 76.4527 205.3C76.4527 205.84 76.6627 206.272 77.0827 206.596C77.5027 206.92 78.0907 207.082 78.8467 207.082C79.5667 207.082 80.1847 206.92 80.7007 206.596C81.2287 206.26 81.6127 205.78 81.8527 205.156L82.1407 206.038C81.9007 206.662 81.4807 207.16 80.8807 207.532C80.2927 207.904 79.5487 208.09 78.6487 208.09ZM90.4928 208.09C89.5568 208.09 88.7168 207.886 87.9728 207.478C87.2408 207.058 86.6648 206.488 86.2448 205.768C85.8248 205.036 85.6148 204.202 85.6148 203.266C85.6148 202.318 85.8248 201.484 86.2448 200.764C86.6648 200.044 87.2408 199.48 87.9728 199.072C88.7168 198.664 89.5568 198.46 90.4928 198.46C91.2968 198.46 92.0228 198.616 92.6708 198.928C93.3188 199.24 93.8288 199.708 94.2008 200.332L93.2468 200.98C92.9228 200.5 92.5208 200.146 92.0408 199.918C91.5608 199.69 91.0388 199.576 90.4748 199.576C89.8028 199.576 89.1968 199.732 88.6568 200.044C88.1168 200.344 87.6908 200.77 87.3788 201.322C87.0668 201.874 86.9108 202.522 86.9108 203.266C86.9108 204.01 87.0668 204.658 87.3788 205.21C87.6908 205.762 88.1168 206.194 88.6568 206.506C89.1968 206.806 89.8028 206.956 90.4748 206.956C91.0388 206.956 91.5608 206.842 92.0408 206.614C92.5208 206.386 92.9228 206.038 93.2468 205.57L94.2008 206.218C93.8288 206.83 93.3188 207.298 92.6708 207.622C92.0228 207.934 91.2968 208.09 90.4928 208.09ZM102.885 206.884L102.597 207.226V198.55H103.875V207.226L103.533 206.884H108.807L108.465 207.226V198.55H109.743V208H96.6754V198.55H97.9534V207.226L97.6294 206.884H102.885ZM115.175 208V199.324L115.499 199.666H111.593V198.55H120.035V199.666H116.129L116.453 199.324V208H115.175ZM127.75 208V205.912L127.696 205.57V202.078C127.696 201.274 127.468 200.656 127.012 200.224C126.568 199.792 125.902 199.576 125.014 199.576C124.402 199.576 123.82 199.678 123.268 199.882C122.716 200.086 122.248 200.356 121.864 200.692L121.288 199.738C121.768 199.33 122.344 199.018 123.016 198.802C123.688 198.574 124.396 198.46 125.14 198.46C126.364 198.46 127.306 198.766 127.966 199.378C128.638 199.978 128.974 200.896 128.974 202.132V208H127.75ZM124.492 208.09C123.784 208.09 123.166 207.976 122.638 207.748C122.122 207.508 121.726 207.184 121.45 206.776C121.174 206.356 121.036 205.876 121.036 205.336C121.036 204.844 121.15 204.4 121.378 204.004C121.618 203.596 122.002 203.272 122.53 203.032C123.07 202.78 123.79 202.654 124.69 202.654H127.948V203.608H124.726C123.814 203.608 123.178 203.77 122.818 204.094C122.47 204.418 122.296 204.82 122.296 205.3C122.296 205.84 122.506 206.272 122.926 206.596C123.346 206.92 123.934 207.082 124.69 207.082C125.41 207.082 126.028 206.92 126.544 206.596C127.072 206.26 127.456 205.78 127.696 205.156L127.984 206.038C127.744 206.662 127.324 207.16 126.724 207.532C126.136 207.904 125.392 208.09 124.492 208.09ZM136.625 208.108C135.857 208.108 135.173 207.982 134.573 207.73C133.985 207.478 133.481 207.094 133.061 206.578C132.641 206.062 132.323 205.426 132.107 204.67C131.891 203.902 131.783 203.014 131.783 202.006C131.783 201.106 131.867 200.32 132.035 199.648C132.203 198.964 132.437 198.376 132.737 197.884C133.037 197.392 133.385 196.978 133.781 196.642C134.189 196.294 134.627 196.018 135.095 195.814C135.575 195.598 136.067 195.436 136.571 195.328L140.819 194.338L141.035 195.526L137.039 196.426C136.787 196.486 136.481 196.57 136.121 196.678C135.773 196.786 135.413 196.948 135.041 197.164C134.681 197.38 134.345 197.68 134.033 198.064C133.721 198.448 133.469 198.946 133.277 199.558C133.097 200.158 133.007 200.908 133.007 201.808C133.007 202 133.013 202.156 133.025 202.276C133.037 202.384 133.049 202.504 133.061 202.636C133.085 202.756 133.103 202.936 133.115 203.176L132.557 202.708C132.689 201.976 132.959 201.34 133.367 200.8C133.775 200.248 134.285 199.822 134.897 199.522C135.521 199.21 136.211 199.054 136.967 199.054C137.843 199.054 138.623 199.246 139.307 199.63C139.991 200.002 140.525 200.524 140.909 201.196C141.305 201.868 141.503 202.648 141.503 203.536C141.503 204.412 141.299 205.198 140.891 205.894C140.495 206.59 139.931 207.136 139.199 207.532C138.467 207.916 137.609 208.108 136.625 208.108ZM136.769 207.046C137.441 207.046 138.035 206.896 138.551 206.596C139.067 206.284 139.469 205.864 139.757 205.336C140.057 204.808 140.207 204.214 140.207 203.554C140.207 202.906 140.057 202.33 139.757 201.826C139.469 201.322 139.067 200.926 138.551 200.638C138.035 200.338 137.435 200.188 136.751 200.188C136.079 200.188 135.485 200.332 134.969 200.62C134.453 200.896 134.045 201.286 133.745 201.79C133.457 202.294 133.313 202.876 133.313 203.536C133.313 204.196 133.457 204.79 133.745 205.318C134.045 205.846 134.453 206.266 134.969 206.578C135.497 206.89 136.097 207.046 136.769 207.046ZM144.242 208V198.55H145.52V206.056L151.838 198.55H152.972V208H151.694V200.476L145.394 208H144.242ZM161.512 208.09C160.696 208.09 159.958 207.904 159.298 207.532C158.638 207.148 158.11 206.602 157.714 205.894C157.33 205.174 157.138 204.298 157.138 203.266C157.138 202.234 157.33 201.364 157.714 200.656C158.098 199.936 158.62 199.39 159.28 199.018C159.94 198.646 160.684 198.46 161.512 198.46C162.412 198.46 163.216 198.664 163.924 199.072C164.644 199.468 165.208 200.032 165.616 200.764C166.024 201.484 166.228 202.318 166.228 203.266C166.228 204.226 166.024 205.066 165.616 205.786C165.208 206.506 164.644 207.07 163.924 207.478C163.216 207.886 162.412 208.09 161.512 208.09ZM156.634 211.492V198.55H157.858V201.394L157.732 203.284L157.912 205.192V211.492H156.634ZM161.422 206.956C162.094 206.956 162.694 206.806 163.222 206.506C163.75 206.194 164.17 205.762 164.482 205.21C164.794 204.646 164.95 203.998 164.95 203.266C164.95 202.534 164.794 201.892 164.482 201.34C164.17 200.788 163.75 200.356 163.222 200.044C162.694 199.732 162.094 199.576 161.422 199.576C160.75 199.576 160.144 199.732 159.604 200.044C159.076 200.356 158.656 200.788 158.344 201.34C158.044 201.892 157.894 202.534 157.894 203.266C157.894 203.998 158.044 204.646 158.344 205.21C158.656 205.762 159.076 206.194 159.604 206.506C160.144 206.806 160.75 206.956 161.422 206.956ZM168.873 211.582C168.429 211.582 168.003 211.51 167.595 211.366C167.199 211.222 166.857 211.006 166.569 210.718L167.163 209.764C167.403 209.992 167.661 210.166 167.937 210.286C168.225 210.418 168.543 210.484 168.891 210.484C169.311 210.484 169.671 210.364 169.971 210.124C170.283 209.896 170.577 209.488 170.853 208.9L171.465 207.514L171.609 207.316L175.497 198.55H176.757L172.023 209.134C171.759 209.746 171.465 210.232 171.141 210.592C170.829 210.952 170.487 211.204 170.115 211.348C169.743 211.504 169.329 211.582 168.873 211.582ZM171.393 208.27L167.037 198.55H168.369L172.221 207.226L171.393 208.27ZM182.534 208.09C181.55 208.09 180.686 207.886 179.942 207.478C179.198 207.058 178.616 206.488 178.196 205.768C177.776 205.036 177.566 204.202 177.566 203.266C177.566 202.33 177.764 201.502 178.16 200.782C178.568 200.062 179.12 199.498 179.816 199.09C180.524 198.67 181.316 198.46 182.192 198.46C183.08 198.46 183.866 198.664 184.55 199.072C185.246 199.468 185.792 200.032 186.188 200.764C186.584 201.484 186.782 202.318 186.782 203.266C186.782 203.326 186.776 203.392 186.764 203.464C186.764 203.524 186.764 203.59 186.764 203.662H178.538V202.708H186.08L185.576 203.086C185.576 202.402 185.426 201.796 185.126 201.268C184.838 200.728 184.442 200.308 183.938 200.008C183.434 199.708 182.852 199.558 182.192 199.558C181.544 199.558 180.962 199.708 180.446 200.008C179.93 200.308 179.528 200.728 179.24 201.268C178.952 201.808 178.808 202.426 178.808 203.122V203.32C178.808 204.04 178.964 204.676 179.276 205.228C179.6 205.768 180.044 206.194 180.608 206.506C181.184 206.806 181.838 206.956 182.57 206.956C183.146 206.956 183.68 206.854 184.172 206.65C184.676 206.446 185.108 206.134 185.468 205.714L186.188 206.542C185.768 207.046 185.24 207.43 184.604 207.694C183.98 207.958 183.29 208.09 182.534 208.09ZM189.611 208V198.55H190.907L195.191 205.804H194.651L199.007 198.55H200.195V208H199.025V200.008L199.259 200.116L195.191 206.848H194.615L190.511 200.044L190.781 199.99V208H189.611ZM213.048 208V198.55H214.326V208H213.048ZM207.81 201.88C208.998 201.892 209.904 202.156 210.528 202.672C211.152 203.188 211.464 203.932 211.464 204.904C211.464 205.912 211.128 206.686 210.456 207.226C209.784 207.766 208.824 208.03 207.576 208.018L203.832 208V198.55H205.11V201.844L207.81 201.88ZM207.486 207.046C208.374 207.058 209.04 206.884 209.484 206.524C209.94 206.152 210.168 205.612 210.168 204.904C210.168 204.196 209.946 203.68 209.502 203.356C209.058 203.02 208.386 202.846 207.486 202.834L205.11 202.798V207.01L207.486 207.046ZM222.014 208.09C221.03 208.09 220.166 207.886 219.422 207.478C218.678 207.058 218.096 206.488 217.676 205.768C217.256 205.036 217.046 204.202 217.046 203.266C217.046 202.33 217.244 201.502 217.64 200.782C218.048 200.062 218.6 199.498 219.296 199.09C220.004 198.67 220.796 198.46 221.672 198.46C222.56 198.46 223.346 198.664 224.03 199.072C224.726 199.468 225.272 200.032 225.668 200.764C226.064 201.484 226.262 202.318 226.262 203.266C226.262 203.326 226.256 203.392 226.244 203.464C226.244 203.524 226.244 203.59 226.244 203.662H218.018V202.708H225.56L225.056 203.086C225.056 202.402 224.906 201.796 224.606 201.268C224.318 200.728 223.922 200.308 223.418 200.008C222.914 199.708 222.332 199.558 221.672 199.558C221.024 199.558 220.442 199.708 219.926 200.008C219.41 200.308 219.008 200.728 218.72 201.268C218.432 201.808 218.288 202.426 218.288 203.122V203.32C218.288 204.04 218.444 204.676 218.756 205.228C219.08 205.768 219.524 206.194 220.088 206.506C220.664 206.806 221.318 206.956 222.05 206.956C222.626 206.956 223.16 206.854 223.652 206.65C224.156 206.446 224.588 206.134 224.948 205.714L225.668 206.542C225.248 207.046 224.72 207.43 224.084 207.694C223.46 207.958 222.77 208.09 222.014 208.09ZM233.802 208V198.55H237.978C239.046 198.55 239.886 198.754 240.498 199.162C241.122 199.57 241.434 200.17 241.434 200.962C241.434 201.73 241.14 202.324 240.552 202.744C239.964 203.152 239.19 203.356 238.23 203.356L238.482 202.978C239.61 202.978 240.438 203.188 240.966 203.608C241.494 204.028 241.758 204.634 241.758 205.426C241.758 206.242 241.458 206.878 240.858 207.334C240.27 207.778 239.352 208 238.104 208H233.802ZM235.044 206.992H238.05C238.854 206.992 239.46 206.866 239.868 206.614C240.288 206.35 240.498 205.93 240.498 205.354C240.498 204.778 240.312 204.358 239.94 204.094C239.568 203.83 238.98 203.698 238.176 203.698H235.044V206.992ZM235.044 202.744H237.888C238.62 202.744 239.178 202.606 239.562 202.33C239.958 202.054 240.156 201.652 240.156 201.124C240.156 200.596 239.958 200.2 239.562 199.936C239.178 199.672 238.62 199.54 237.888 199.54H235.044V202.744ZM248.804 208.09C247.82 208.09 246.956 207.886 246.212 207.478C245.468 207.058 244.886 206.488 244.466 205.768C244.046 205.036 243.836 204.202 243.836 203.266C243.836 202.33 244.034 201.502 244.43 200.782C244.838 200.062 245.39 199.498 246.086 199.09C246.794 198.67 247.586 198.46 248.462 198.46C249.35 198.46 250.136 198.664 250.82 199.072C251.516 199.468 252.062 200.032 252.458 200.764C252.854 201.484 253.052 202.318 253.052 203.266C253.052 203.326 253.046 203.392 253.034 203.464C253.034 203.524 253.034 203.59 253.034 203.662H244.808V202.708H252.35L251.846 203.086C251.846 202.402 251.696 201.796 251.396 201.268C251.108 200.728 250.712 200.308 250.208 200.008C249.704 199.708 249.122 199.558 248.462 199.558C247.814 199.558 247.232 199.708 246.716 200.008C246.2 200.308 245.798 200.728 245.51 201.268C245.222 201.808 245.078 202.426 245.078 203.122V203.32C245.078 204.04 245.234 204.676 245.546 205.228C245.87 205.768 246.314 206.194 246.878 206.506C247.454 206.806 248.108 206.956 248.84 206.956C249.416 206.956 249.95 206.854 250.442 206.65C250.946 206.446 251.378 206.134 251.738 205.714L252.458 206.542C252.038 207.046 251.51 207.43 250.874 207.694C250.25 207.958 249.56 208.09 248.804 208.09ZM260.129 208.108C259.361 208.108 258.677 207.982 258.077 207.73C257.489 207.478 256.985 207.094 256.565 206.578C256.145 206.062 255.827 205.426 255.611 204.67C255.395 203.902 255.287 203.014 255.287 202.006C255.287 201.106 255.371 200.32 255.539 199.648C255.707 198.964 255.941 198.376 256.241 197.884C256.541 197.392 256.889 196.978 257.285 196.642C257.693 196.294 258.131 196.018 258.599 195.814C259.079 195.598 259.571 195.436 260.075 195.328L264.323 194.338L264.539 195.526L260.543 196.426C260.291 196.486 259.985 196.57 259.625 196.678C259.277 196.786 258.917 196.948 258.545 197.164C258.185 197.38 257.849 197.68 257.537 198.064C257.225 198.448 256.973 198.946 256.781 199.558C256.601 200.158 256.511 200.908 256.511 201.808C256.511 202 256.517 202.156 256.529 202.276C256.541 202.384 256.553 202.504 256.565 202.636C256.589 202.756 256.607 202.936 256.619 203.176L256.061 202.708C256.193 201.976 256.463 201.34 256.871 200.8C257.279 200.248 257.789 199.822 258.401 199.522C259.025 199.21 259.715 199.054 260.471 199.054C261.347 199.054 262.127 199.246 262.811 199.63C263.495 200.002 264.029 200.524 264.413 201.196C264.809 201.868 265.007 202.648 265.007 203.536C265.007 204.412 264.803 205.198 264.395 205.894C263.999 206.59 263.435 207.136 262.703 207.532C261.971 207.916 261.113 208.108 260.129 208.108ZM260.273 207.046C260.945 207.046 261.539 206.896 262.055 206.596C262.571 206.284 262.973 205.864 263.261 205.336C263.561 204.808 263.711 204.214 263.711 203.554C263.711 202.906 263.561 202.33 263.261 201.826C262.973 201.322 262.571 200.926 262.055 200.638C261.539 200.338 260.939 200.188 260.255 200.188C259.583 200.188 258.989 200.332 258.473 200.62C257.957 200.896 257.549 201.286 257.249 201.79C256.961 202.294 256.817 202.876 256.817 203.536C256.817 204.196 256.961 204.79 257.249 205.318C257.549 205.846 257.957 206.266 258.473 206.578C259.001 206.89 259.601 207.046 260.273 207.046ZM267.184 203.68V202.564H271.9V203.68H267.184ZM274.795 208V198.55H283.291V208H282.013V199.324L282.337 199.666H275.749L276.073 199.324V208H274.795ZM291.801 208.09C290.985 208.09 290.247 207.904 289.587 207.532C288.927 207.148 288.399 206.602 288.003 205.894C287.619 205.174 287.427 204.298 287.427 203.266C287.427 202.234 287.619 201.364 288.003 200.656C288.387 199.936 288.909 199.39 289.569 199.018C290.229 198.646 290.973 198.46 291.801 198.46C292.701 198.46 293.505 198.664 294.213 199.072C294.933 199.468 295.497 200.032 295.905 200.764C296.313 201.484 296.517 202.318 296.517 203.266C296.517 204.226 296.313 205.066 295.905 205.786C295.497 206.506 294.933 207.07 294.213 207.478C293.505 207.886 292.701 208.09 291.801 208.09ZM286.923 211.492V198.55H288.147V201.394L288.021 203.284L288.201 205.192V211.492H286.923ZM291.711 206.956C292.383 206.956 292.983 206.806 293.511 206.506C294.039 206.194 294.459 205.762 294.771 205.21C295.083 204.646 295.239 203.998 295.239 203.266C295.239 202.534 295.083 201.892 294.771 201.34C294.459 200.788 294.039 200.356 293.511 200.044C292.983 199.732 292.383 199.576 291.711 199.576C291.039 199.576 290.433 199.732 289.893 200.044C289.365 200.356 288.945 200.788 288.633 201.34C288.333 201.892 288.183 202.534 288.183 203.266C288.183 203.998 288.333 204.646 288.633 205.21C288.945 205.762 289.365 206.194 289.893 206.506C290.433 206.806 291.039 206.956 291.711 206.956ZM299.263 208V198.55H300.541V206.056L306.859 198.55H307.993V208H306.715V200.476L300.415 208H299.263ZM309.928 207.982L310.018 206.884C310.102 206.896 310.18 206.914 310.252 206.938C310.336 206.95 310.408 206.956 310.468 206.956C310.852 206.956 311.158 206.812 311.386 206.524C311.626 206.236 311.806 205.852 311.926 205.372C312.046 204.892 312.13 204.352 312.178 203.752C312.226 203.14 312.268 202.528 312.304 201.916L312.466 198.55H319.396V208H318.118V199.288L318.442 199.666H313.294L313.6 199.27L313.456 202.006C313.42 202.822 313.354 203.602 313.258 204.346C313.174 205.09 313.036 205.744 312.844 206.308C312.664 206.872 312.412 207.316 312.088 207.64C311.764 207.952 311.35 208.108 310.846 208.108C310.702 208.108 310.552 208.096 310.396 208.072C310.252 208.048 310.096 208.018 309.928 207.982ZM326.917 208.09C326.005 208.09 325.183 207.886 324.451 207.478C323.731 207.058 323.161 206.488 322.741 205.768C322.321 205.036 322.111 204.202 322.111 203.266C322.111 202.318 322.321 201.484 322.741 200.764C323.161 200.044 323.731 199.48 324.451 199.072C325.171 198.664 325.993 198.46 326.917 198.46C327.853 198.46 328.681 198.664 329.401 199.072C330.133 199.48 330.703 200.044 331.111 200.764C331.531 201.484 331.741 202.318 331.741 203.266C331.741 204.202 331.531 205.036 331.111 205.768C330.703 206.488 330.133 207.058 329.401 207.478C328.669 207.886 327.841 208.09 326.917 208.09ZM326.917 206.956C327.601 206.956 328.207 206.806 328.735 206.506C329.263 206.194 329.677 205.762 329.977 205.21C330.289 204.646 330.445 203.998 330.445 203.266C330.445 202.522 330.289 201.874 329.977 201.322C329.677 200.77 329.263 200.344 328.735 200.044C328.207 199.732 327.607 199.576 326.935 199.576C326.263 199.576 325.663 199.732 325.135 200.044C324.607 200.344 324.187 200.77 323.875 201.322C323.563 201.874 323.407 202.522 323.407 203.266C323.407 203.998 323.563 204.646 323.875 205.21C324.187 205.762 324.607 206.194 325.135 206.506C325.663 206.806 326.257 206.956 326.917 206.956ZM345.352 208L342.112 203.32L343.174 202.69L346.882 208H345.352ZM339.988 203.788V202.69H342.976V203.788H339.988ZM343.3 203.41L342.076 203.23L345.226 198.55H346.612L343.3 203.41ZM334.156 208H332.626L336.334 202.69L337.378 203.32L334.156 208ZM340.384 208H339.106V198.55H340.384V208ZM339.502 203.788H336.532V202.69H339.502V203.788ZM336.226 203.41L332.896 198.55H334.282L337.414 203.23L336.226 203.41ZM352.725 208.09C351.741 208.09 350.877 207.886 350.133 207.478C349.389 207.058 348.807 206.488 348.387 205.768C347.967 205.036 347.757 204.202 347.757 203.266C347.757 202.33 347.955 201.502 348.351 200.782C348.759 200.062 349.311 199.498 350.007 199.09C350.715 198.67 351.507 198.46 352.383 198.46C353.271 198.46 354.057 198.664 354.741 199.072C355.437 199.468 355.983 200.032 356.379 200.764C356.775 201.484 356.973 202.318 356.973 203.266C356.973 203.326 356.967 203.392 356.955 203.464C356.955 203.524 356.955 203.59 356.955 203.662H348.729V202.708H356.271L355.767 203.086C355.767 202.402 355.617 201.796 355.317 201.268C355.029 200.728 354.633 200.308 354.129 200.008C353.625 199.708 353.043 199.558 352.383 199.558C351.735 199.558 351.153 199.708 350.637 200.008C350.121 200.308 349.719 200.728 349.431 201.268C349.143 201.808 348.999 202.426 348.999 203.122V203.32C348.999 204.04 349.155 204.676 349.467 205.228C349.791 205.768 350.235 206.194 350.799 206.506C351.375 206.806 352.029 206.956 352.761 206.956C353.337 206.956 353.871 206.854 354.363 206.65C354.867 206.446 355.299 206.134 355.659 205.714L356.379 206.542C355.959 207.046 355.431 207.43 354.795 207.694C354.171 207.958 353.481 208.09 352.725 208.09ZM359.802 208V198.55H361.08V202.726H367.038V198.55H368.316V208H367.038V203.824H361.08V208H359.802ZM371.949 208V198.55H373.227V206.056L379.545 198.55H380.679V208H379.401V200.476L373.101 208H371.949ZM390.443 208V204.598L390.677 204.868H387.473C386.261 204.868 385.313 204.604 384.629 204.076C383.945 203.548 383.603 202.78 383.603 201.772C383.603 200.692 383.969 199.888 384.701 199.36C385.433 198.82 386.411 198.55 387.635 198.55H391.613V208H390.443ZM383.531 208L386.123 204.364H387.455L384.917 208H383.531ZM390.443 204.22V199.288L390.677 199.666H387.671C386.795 199.666 386.111 199.834 385.619 200.17C385.139 200.506 384.899 201.052 384.899 201.808C384.899 203.212 385.793 203.914 387.581 203.914H390.677L390.443 204.22ZM395.347 208.09C395.083 208.09 394.855 207.994 394.663 207.802C394.483 207.61 394.393 207.376 394.393 207.1C394.393 206.812 394.483 206.578 394.663 206.398C394.855 206.218 395.083 206.128 395.347 206.128C395.611 206.128 395.833 206.218 396.013 206.398C396.205 206.578 396.301 206.812 396.301 207.1C396.301 207.376 396.205 207.61 396.013 207.802C395.833 207.994 395.611 208.09 395.347 208.09Z" fill="#0C2836"/>
</g>
<defs>
<filter id="filter0_d_16096_12634" x="-17" y="-16" width="598" height="335" filterUnits="userSpaceOnUse" color-interpolation-filters="sRGB">
<feFlood flood-opacity="0" result="BackgroundImageFix"/>
<feColorMatrix in="SourceAlpha" type="matrix" values="0 0 0 0 0 0 0 0 0 0 0 0 0 0 0 0 0 0 127 0" result="hardAlpha"/>
<feMorphology radius="2" operator="dilate" in="SourceAlpha" result="effect1_dropShadow_16096_12634"/>
<feOffset/>
<feGaussianBlur stdDeviation="17.5"/>
<feComposite in2="hardAlpha" operator="out"/>
<feColorMatrix type="matrix" values="0 0 0 0 0.670588 0 0 0 0 0.717647 0 0 0 0 0.807843 0 0 0 0.5 0"/>
<feBlend mode="normal" in2="BackgroundImageFix" result="effect1_dropShadow_16096_12634"/>
<feBlend mode="normal" in="SourceGraphic" in2="effect1_dropShadow_16096_12634" result="shape"/>
</filter>
<clipPath id="clip0_16096_12634">
<rect width="75" height="75" fill="white" transform="translate(60 61)"/>
</clipPath>
</defs>
</svg>
