<svg width="556" height="335" viewBox="0 0 556 335" fill="none" xmlns="http://www.w3.org/2000/svg">
<g filter="url(#filter0_d_16096_12658)">
<rect x="20" y="37" width="524" height="261" rx="40" fill="white"/>
<g clip-path="url(#clip0_16096_12658)">
<circle cx="97.5" cy="114.5" r="36.25" stroke="#0C2836" stroke-width="2.5"/>
<path d="M88.85 99.425C88.85 101.129 88.1731 102.763 86.9682 103.968C85.7633 105.173 84.129 105.85 82.425 105.85C80.721 105.85 79.0868 105.173 77.8818 103.968C76.6769 102.763 76 101.129 76 99.425C76 97.721 76.6769 96.0868 77.8818 94.8818C79.0868 93.6769 80.721 93 82.425 93C84.129 93 85.7633 93.6769 86.9682 94.8818C88.1731 96.0868 88.85 97.721 88.85 99.425ZM118.833 99.425C118.833 101.129 118.157 102.763 116.952 103.968C115.747 105.173 114.112 105.85 112.408 105.85C110.704 105.85 109.07 105.173 107.865 103.968C106.66 102.763 105.983 101.129 105.983 99.425C105.983 97.721 106.66 96.0868 107.865 94.8818C109.07 93.6769 110.704 93 112.408 93C114.112 93 115.747 93.6769 116.952 94.8818C118.157 96.0868 118.833 97.721 118.833 99.425ZM88.85 129.408C88.85 131.112 88.1731 132.747 86.9682 133.952C85.7633 135.157 84.129 135.833 82.425 135.833C80.721 135.833 79.0868 135.157 77.8818 133.952C76.6769 132.747 76 131.112 76 129.408C76 127.704 76.6769 126.07 77.8818 124.865C79.0868 123.66 80.721 122.983 82.425 122.983C84.129 122.983 85.7633 123.66 86.9682 124.865C88.1731 126.07 88.85 127.704 88.85 129.408ZM118.833 129.408C118.833 131.112 118.157 132.747 116.952 133.952C115.747 135.157 114.112 135.833 112.408 135.833C110.704 135.833 109.07 135.157 107.865 133.952C106.66 132.747 105.983 131.112 105.983 129.408C105.983 127.704 106.66 126.07 107.865 124.865C109.07 123.66 110.704 122.983 112.408 122.983C114.112 122.983 115.747 123.66 116.952 124.865C118.157 126.07 118.833 127.704 118.833 129.408Z" stroke="#0C2836" stroke-width="2"/>
<path d="M88.8501 99.425H105.983M112.408 122.983V116.558M112.408 105.85V107.992M105.983 129.408H99.5584M93.1334 129.408H88.8501M82.425 122.983V105.85" stroke="#0C2836" stroke-width="2" stroke-linecap="round"/>
</g>
<path d="M62.124 197V184.4H63.438V194.84L71.502 184.4H72.708V197H71.394V186.578L63.33 197H62.124ZM76.6539 197V187.55H77.9319V191.726H83.8899V187.55H85.1679V197H83.8899V192.824H77.9319V197H76.6539ZM90.6004 197V188.324L90.9244 188.666H87.0184V187.55H95.4604V188.666H91.5544L91.8784 188.324V197H90.6004ZM100.919 197.09C99.9348 197.09 99.0708 196.886 98.3268 196.478C97.5828 196.058 97.0008 195.488 96.5808 194.768C96.1608 194.036 95.9508 193.202 95.9508 192.266C95.9508 191.33 96.1488 190.502 96.5448 189.782C96.9528 189.062 97.5048 188.498 98.2008 188.09C98.9088 187.67 99.7008 187.46 100.577 187.46C101.465 187.46 102.251 187.664 102.935 188.072C103.631 188.468 104.177 189.032 104.573 189.764C104.969 190.484 105.167 191.318 105.167 192.266C105.167 192.326 105.161 192.392 105.149 192.464C105.149 192.524 105.149 192.59 105.149 192.662H96.9228V191.708H104.465L103.961 192.086C103.961 191.402 103.811 190.796 103.511 190.268C103.223 189.728 102.827 189.308 102.323 189.008C101.819 188.708 101.237 188.558 100.577 188.558C99.9288 188.558 99.3468 188.708 98.8308 189.008C98.3148 189.308 97.9128 189.728 97.6248 190.268C97.3368 190.808 97.1928 191.426 97.1928 192.122V192.32C97.1928 193.04 97.3488 193.676 97.6608 194.228C97.9848 194.768 98.4288 195.194 98.9928 195.506C99.5688 195.806 100.223 195.956 100.955 195.956C101.531 195.956 102.065 195.854 102.557 195.65C103.061 195.446 103.493 195.134 103.853 194.714L104.573 195.542C104.153 196.046 103.625 196.43 102.989 196.694C102.365 196.958 101.675 197.09 100.919 197.09ZM107.996 197V187.55H114.692V188.666H108.95L109.274 188.342V197H107.996ZM121.417 197.09C120.601 197.09 119.863 196.904 119.203 196.532C118.543 196.148 118.015 195.602 117.619 194.894C117.235 194.174 117.043 193.298 117.043 192.266C117.043 191.234 117.235 190.364 117.619 189.656C118.003 188.936 118.525 188.39 119.185 188.018C119.845 187.646 120.589 187.46 121.417 187.46C122.317 187.46 123.121 187.664 123.829 188.072C124.549 188.468 125.113 189.032 125.521 189.764C125.929 190.484 126.133 191.318 126.133 192.266C126.133 193.226 125.929 194.066 125.521 194.786C125.113 195.506 124.549 196.07 123.829 196.478C123.121 196.886 122.317 197.09 121.417 197.09ZM116.539 200.492V187.55H117.763V190.394L117.637 192.284L117.817 194.192V200.492H116.539ZM121.327 195.956C121.999 195.956 122.599 195.806 123.127 195.506C123.655 195.194 124.075 194.762 124.387 194.21C124.699 193.646 124.855 192.998 124.855 192.266C124.855 191.534 124.699 190.892 124.387 190.34C124.075 189.788 123.655 189.356 123.127 189.044C122.599 188.732 121.999 188.576 121.327 188.576C120.655 188.576 120.049 188.732 119.509 189.044C118.981 189.356 118.561 189.788 118.249 190.34C117.949 190.892 117.799 191.534 117.799 192.266C117.799 192.998 117.949 193.646 118.249 194.21C118.561 194.762 118.981 195.194 119.509 195.506C120.049 195.806 120.655 195.956 121.327 195.956ZM134.694 197V194.912L134.64 194.57V191.078C134.64 190.274 134.412 189.656 133.956 189.224C133.512 188.792 132.846 188.576 131.958 188.576C131.346 188.576 130.764 188.678 130.212 188.882C129.66 189.086 129.192 189.356 128.808 189.692L128.232 188.738C128.712 188.33 129.288 188.018 129.96 187.802C130.632 187.574 131.34 187.46 132.084 187.46C133.308 187.46 134.25 187.766 134.91 188.378C135.582 188.978 135.918 189.896 135.918 191.132V197H134.694ZM131.436 197.09C130.728 197.09 130.11 196.976 129.582 196.748C129.066 196.508 128.67 196.184 128.394 195.776C128.118 195.356 127.98 194.876 127.98 194.336C127.98 193.844 128.094 193.4 128.322 193.004C128.562 192.596 128.946 192.272 129.474 192.032C130.014 191.78 130.734 191.654 131.634 191.654H134.892V192.608H131.67C130.758 192.608 130.122 192.77 129.762 193.094C129.414 193.418 129.24 193.82 129.24 194.3C129.24 194.84 129.45 195.272 129.87 195.596C130.29 195.92 130.878 196.082 131.634 196.082C132.354 196.082 132.972 195.92 133.488 195.596C134.016 195.26 134.4 194.78 134.64 194.156L134.928 195.038C134.688 195.662 134.268 196.16 133.668 196.532C133.08 196.904 132.336 197.09 131.436 197.09ZM139.32 197V187.55H140.598V195.884H146.376V187.55H147.654V197H139.32ZM147.978 199.286V196.892L148.302 197H146.376V195.884H149.184V199.286H147.978ZM151.625 197V187.55H152.903V195.056L159.221 187.55H160.355V197H159.077V189.476L152.777 197H151.625ZM170.119 197V193.598L170.353 193.868H167.149C165.937 193.868 164.989 193.604 164.305 193.076C163.621 192.548 163.279 191.78 163.279 190.772C163.279 189.692 163.645 188.888 164.377 188.36C165.109 187.82 166.087 187.55 167.311 187.55H171.289V197H170.119ZM163.207 197L165.799 193.364H167.131L164.593 197H163.207ZM170.119 193.22V188.288L170.353 188.666H167.347C166.471 188.666 165.787 188.834 165.295 189.17C164.815 189.506 164.575 190.052 164.575 190.808C164.575 192.212 165.469 192.914 167.257 192.914H170.353L170.119 193.22ZM184.522 197.09C183.706 197.09 182.968 196.904 182.308 196.532C181.648 196.148 181.12 195.602 180.724 194.894C180.34 194.174 180.148 193.298 180.148 192.266C180.148 191.234 180.34 190.364 180.724 189.656C181.108 188.936 181.63 188.39 182.29 188.018C182.95 187.646 183.694 187.46 184.522 187.46C185.422 187.46 186.226 187.664 186.934 188.072C187.654 188.468 188.218 189.032 188.626 189.764C189.034 190.484 189.238 191.318 189.238 192.266C189.238 193.226 189.034 194.066 188.626 194.786C188.218 195.506 187.654 196.07 186.934 196.478C186.226 196.886 185.422 197.09 184.522 197.09ZM179.644 200.492V187.55H180.868V190.394L180.742 192.284L180.922 194.192V200.492H179.644ZM184.432 195.956C185.104 195.956 185.704 195.806 186.232 195.506C186.76 195.194 187.18 194.762 187.492 194.21C187.804 193.646 187.96 192.998 187.96 192.266C187.96 191.534 187.804 190.892 187.492 190.34C187.18 189.788 186.76 189.356 186.232 189.044C185.704 188.732 185.104 188.576 184.432 188.576C183.76 188.576 183.154 188.732 182.614 189.044C182.086 189.356 181.666 189.788 181.354 190.34C181.054 190.892 180.904 191.534 180.904 192.266C180.904 192.998 181.054 193.646 181.354 194.21C181.666 194.762 182.086 195.194 182.614 195.506C183.154 195.806 183.76 195.956 184.432 195.956ZM196.034 197.09C195.05 197.09 194.186 196.886 193.442 196.478C192.698 196.058 192.116 195.488 191.696 194.768C191.276 194.036 191.066 193.202 191.066 192.266C191.066 191.33 191.264 190.502 191.66 189.782C192.068 189.062 192.62 188.498 193.316 188.09C194.024 187.67 194.816 187.46 195.692 187.46C196.58 187.46 197.366 187.664 198.05 188.072C198.746 188.468 199.292 189.032 199.688 189.764C200.084 190.484 200.282 191.318 200.282 192.266C200.282 192.326 200.276 192.392 200.264 192.464C200.264 192.524 200.264 192.59 200.264 192.662H192.038V191.708H199.58L199.076 192.086C199.076 191.402 198.926 190.796 198.626 190.268C198.338 189.728 197.942 189.308 197.438 189.008C196.934 188.708 196.352 188.558 195.692 188.558C195.044 188.558 194.462 188.708 193.946 189.008C193.43 189.308 193.028 189.728 192.74 190.268C192.452 190.808 192.308 191.426 192.308 192.122V192.32C192.308 193.04 192.464 193.676 192.776 194.228C193.1 194.768 193.544 195.194 194.108 195.506C194.684 195.806 195.338 195.956 196.07 195.956C196.646 195.956 197.18 195.854 197.672 195.65C198.176 195.446 198.608 195.134 198.968 194.714L199.688 195.542C199.268 196.046 198.74 196.43 198.104 196.694C197.48 196.958 196.79 197.09 196.034 197.09ZM209.321 195.884L209.033 196.226V187.55H210.311V196.226L209.969 195.884H215.243L214.901 196.226V187.55H216.179V197H203.111V187.55H204.389V196.226L204.065 195.884H209.321ZM223.86 197.09C222.876 197.09 222.012 196.886 221.268 196.478C220.524 196.058 219.942 195.488 219.522 194.768C219.102 194.036 218.892 193.202 218.892 192.266C218.892 191.33 219.09 190.502 219.486 189.782C219.894 189.062 220.446 188.498 221.142 188.09C221.85 187.67 222.642 187.46 223.518 187.46C224.406 187.46 225.192 187.664 225.876 188.072C226.572 188.468 227.118 189.032 227.514 189.764C227.91 190.484 228.108 191.318 228.108 192.266C228.108 192.326 228.102 192.392 228.09 192.464C228.09 192.524 228.09 192.59 228.09 192.662H219.864V191.708H227.406L226.902 192.086C226.902 191.402 226.752 190.796 226.452 190.268C226.164 189.728 225.768 189.308 225.264 189.008C224.76 188.708 224.178 188.558 223.518 188.558C222.87 188.558 222.288 188.708 221.772 189.008C221.256 189.308 220.854 189.728 220.566 190.268C220.278 190.808 220.134 191.426 220.134 192.122V192.32C220.134 193.04 220.29 193.676 220.602 194.228C220.926 194.768 221.37 195.194 221.934 195.506C222.51 195.806 223.164 195.956 223.896 195.956C224.472 195.956 225.006 195.854 225.498 195.65C226.002 195.446 226.434 195.134 226.794 194.714L227.514 195.542C227.094 196.046 226.566 196.43 225.93 196.694C225.306 196.958 224.616 197.09 223.86 197.09ZM230.937 197V187.55H232.215V191.726H238.173V187.55H239.451V197H238.173V192.824H232.215V197H230.937ZM243.084 197V187.55H244.362V195.056L250.68 187.55H251.814V197H250.536V189.476L244.236 197H243.084ZM255.476 197V187.55H256.754V195.056L263.072 187.55H264.206V197H262.928V189.476L256.628 197H255.476ZM259.76 186.182C258.968 186.182 258.326 185.984 257.834 185.588C257.354 185.18 257.102 184.598 257.078 183.842H257.996C258.008 184.322 258.176 184.7 258.5 184.976C258.824 185.252 259.244 185.39 259.76 185.39C260.276 185.39 260.696 185.252 261.02 184.976C261.356 184.7 261.53 184.322 261.542 183.842H262.46C262.448 184.598 262.196 185.18 261.704 185.588C261.212 185.984 260.564 186.182 259.76 186.182ZM279.51 197L275.622 192.32L276.684 191.69L281.022 197H279.51ZM272.58 197V187.55H273.858V197H272.58ZM273.462 192.788V191.69H276.504V192.788H273.462ZM276.792 192.41L275.604 192.23L279.366 187.55H280.752L276.792 192.41ZM288.731 197V194.912L288.677 194.57V191.078C288.677 190.274 288.449 189.656 287.993 189.224C287.549 188.792 286.883 188.576 285.995 188.576C285.383 188.576 284.801 188.678 284.249 188.882C283.697 189.086 283.229 189.356 282.845 189.692L282.269 188.738C282.749 188.33 283.325 188.018 283.997 187.802C284.669 187.574 285.377 187.46 286.121 187.46C287.345 187.46 288.287 187.766 288.947 188.378C289.619 188.978 289.955 189.896 289.955 191.132V197H288.731ZM285.473 197.09C284.765 197.09 284.147 196.976 283.619 196.748C283.103 196.508 282.707 196.184 282.431 195.776C282.155 195.356 282.017 194.876 282.017 194.336C282.017 193.844 282.131 193.4 282.359 193.004C282.599 192.596 282.983 192.272 283.511 192.032C284.051 191.78 284.771 191.654 285.671 191.654H288.929V192.608H285.707C284.795 192.608 284.159 192.77 283.799 193.094C283.451 193.418 283.277 193.82 283.277 194.3C283.277 194.84 283.487 195.272 283.907 195.596C284.327 195.92 284.915 196.082 285.671 196.082C286.391 196.082 287.009 195.92 287.525 195.596C288.053 195.26 288.437 194.78 288.677 194.156L288.965 195.038C288.725 195.662 288.305 196.16 287.705 196.532C287.117 196.904 286.373 197.09 285.473 197.09ZM300.287 197L296.399 192.32L297.461 191.69L301.799 197H300.287ZM293.357 197V187.55H294.635V197H293.357ZM294.239 192.788V191.69H297.281V192.788H294.239ZM297.569 192.41L296.381 192.23L300.143 187.55H301.529L297.569 192.41ZM312.487 197.09C311.551 197.09 310.711 196.886 309.967 196.478C309.235 196.058 308.659 195.488 308.239 194.768C307.819 194.036 307.609 193.202 307.609 192.266C307.609 191.318 307.819 190.484 308.239 189.764C308.659 189.044 309.235 188.48 309.967 188.072C310.711 187.664 311.551 187.46 312.487 187.46C313.291 187.46 314.017 187.616 314.665 187.928C315.313 188.24 315.823 188.708 316.195 189.332L315.241 189.98C314.917 189.5 314.515 189.146 314.035 188.918C313.555 188.69 313.033 188.576 312.469 188.576C311.797 188.576 311.191 188.732 310.651 189.044C310.111 189.344 309.685 189.77 309.373 190.322C309.061 190.874 308.905 191.522 308.905 192.266C308.905 193.01 309.061 193.658 309.373 194.21C309.685 194.762 310.111 195.194 310.651 195.506C311.191 195.806 311.797 195.956 312.469 195.956C313.033 195.956 313.555 195.842 314.035 195.614C314.515 195.386 314.917 195.038 315.241 194.57L316.195 195.218C315.823 195.83 315.313 196.298 314.665 196.622C314.017 196.934 313.291 197.09 312.487 197.09ZM327.341 197.09C326.405 197.09 325.565 196.886 324.821 196.478C324.089 196.058 323.513 195.488 323.093 194.768C322.673 194.036 322.463 193.202 322.463 192.266C322.463 191.318 322.673 190.484 323.093 189.764C323.513 189.044 324.089 188.48 324.821 188.072C325.565 187.664 326.405 187.46 327.341 187.46C328.145 187.46 328.871 187.616 329.519 187.928C330.167 188.24 330.677 188.708 331.049 189.332L330.095 189.98C329.771 189.5 329.369 189.146 328.889 188.918C328.409 188.69 327.887 188.576 327.323 188.576C326.651 188.576 326.045 188.732 325.505 189.044C324.965 189.344 324.539 189.77 324.227 190.322C323.915 190.874 323.759 191.522 323.759 192.266C323.759 193.01 323.915 193.658 324.227 194.21C324.539 194.762 324.965 195.194 325.505 195.506C326.045 195.806 326.651 195.956 327.323 195.956C327.887 195.956 328.409 195.842 328.889 195.614C329.369 195.386 329.771 195.038 330.095 194.57L331.049 195.218C330.677 195.83 330.167 196.298 329.519 196.622C328.871 196.934 328.145 197.09 327.341 197.09ZM333.544 200.582C333.1 200.582 332.674 200.51 332.266 200.366C331.87 200.222 331.528 200.006 331.24 199.718L331.834 198.764C332.074 198.992 332.332 199.166 332.608 199.286C332.896 199.418 333.214 199.484 333.562 199.484C333.982 199.484 334.342 199.364 334.642 199.124C334.954 198.896 335.248 198.488 335.524 197.9L336.136 196.514L336.28 196.316L340.168 187.55H341.428L336.694 198.134C336.43 198.746 336.136 199.232 335.812 199.592C335.5 199.952 335.158 200.204 334.786 200.348C334.414 200.504 334 200.582 333.544 200.582ZM336.064 197.27L331.708 187.55H333.04L336.892 196.226L336.064 197.27ZM349.63 195.884L349.342 196.226V187.55H350.62V196.226L350.278 195.884H355.552L355.21 196.226V187.55H356.488V197H343.42V187.55H344.698V196.226L344.374 195.884H349.63ZM356.74 199.07V196.658L357.064 197H355.138V195.884H357.946V199.07H356.74ZM364.169 197.09C363.185 197.09 362.321 196.886 361.577 196.478C360.833 196.058 360.251 195.488 359.831 194.768C359.411 194.036 359.201 193.202 359.201 192.266C359.201 191.33 359.399 190.502 359.795 189.782C360.203 189.062 360.755 188.498 361.451 188.09C362.159 187.67 362.951 187.46 363.827 187.46C364.715 187.46 365.501 187.664 366.185 188.072C366.881 188.468 367.427 189.032 367.823 189.764C368.219 190.484 368.417 191.318 368.417 192.266C368.417 192.326 368.411 192.392 368.399 192.464C368.399 192.524 368.399 192.59 368.399 192.662H360.173V191.708H367.715L367.211 192.086C367.211 191.402 367.061 190.796 366.761 190.268C366.473 189.728 366.077 189.308 365.573 189.008C365.069 188.708 364.487 188.558 363.827 188.558C363.179 188.558 362.597 188.708 362.081 189.008C361.565 189.308 361.163 189.728 360.875 190.268C360.587 190.808 360.443 191.426 360.443 192.122V192.32C360.443 193.04 360.599 193.676 360.911 194.228C361.235 194.768 361.679 195.194 362.243 195.506C362.819 195.806 363.473 195.956 364.205 195.956C364.781 195.956 365.315 195.854 365.807 195.65C366.311 195.446 366.743 195.134 367.103 194.714L367.823 195.542C367.403 196.046 366.875 196.43 366.239 196.694C365.615 196.958 364.925 197.09 364.169 197.09ZM375.206 197.09C374.27 197.09 373.43 196.886 372.686 196.478C371.954 196.058 371.378 195.488 370.958 194.768C370.538 194.036 370.328 193.202 370.328 192.266C370.328 191.318 370.538 190.484 370.958 189.764C371.378 189.044 371.954 188.48 372.686 188.072C373.43 187.664 374.27 187.46 375.206 187.46C376.01 187.46 376.736 187.616 377.384 187.928C378.032 188.24 378.542 188.708 378.914 189.332L377.96 189.98C377.636 189.5 377.234 189.146 376.754 188.918C376.274 188.69 375.752 188.576 375.188 188.576C374.516 188.576 373.91 188.732 373.37 189.044C372.83 189.344 372.404 189.77 372.092 190.322C371.78 190.874 371.624 191.522 371.624 192.266C371.624 193.01 371.78 193.658 372.092 194.21C372.404 194.762 372.83 195.194 373.37 195.506C373.91 195.806 374.516 195.956 375.188 195.956C375.752 195.956 376.274 195.842 376.754 195.614C377.234 195.386 377.636 195.038 377.96 194.57L378.914 195.218C378.542 195.83 378.032 196.298 377.384 196.622C376.736 196.934 376.01 197.09 375.206 197.09ZM383.013 197V188.324L383.337 188.666H379.431V187.55H387.873V188.666H383.967L384.291 188.324V197H383.013ZM389.72 197V187.55H393.896C394.964 187.55 395.804 187.754 396.416 188.162C397.04 188.57 397.352 189.17 397.352 189.962C397.352 190.73 397.058 191.324 396.47 191.744C395.882 192.152 395.108 192.356 394.148 192.356L394.4 191.978C395.528 191.978 396.356 192.188 396.884 192.608C397.412 193.028 397.676 193.634 397.676 194.426C397.676 195.242 397.376 195.878 396.776 196.334C396.188 196.778 395.27 197 394.022 197H389.72ZM390.962 195.992H393.968C394.772 195.992 395.378 195.866 395.786 195.614C396.206 195.35 396.416 194.93 396.416 194.354C396.416 193.778 396.23 193.358 395.858 193.094C395.486 192.83 394.898 192.698 394.094 192.698H390.962V195.992ZM390.962 191.744H393.806C394.538 191.744 395.096 191.606 395.48 191.33C395.876 191.054 396.074 190.652 396.074 190.124C396.074 189.596 395.876 189.2 395.48 188.936C395.096 188.672 394.538 188.54 393.806 188.54H390.962V191.744ZM400.834 200.582C400.39 200.582 399.964 200.51 399.556 200.366C399.16 200.222 398.818 200.006 398.53 199.718L399.124 198.764C399.364 198.992 399.622 199.166 399.898 199.286C400.186 199.418 400.504 199.484 400.852 199.484C401.272 199.484 401.632 199.364 401.932 199.124C402.244 198.896 402.538 198.488 402.814 197.9L403.426 196.514L403.57 196.316L407.458 187.55H408.718L403.984 198.134C403.72 198.746 403.426 199.232 403.102 199.592C402.79 199.952 402.448 200.204 402.076 200.348C401.704 200.504 401.29 200.582 400.834 200.582ZM403.354 197.27L398.998 187.55H400.33L404.182 196.226L403.354 197.27ZM410.709 197V187.55H411.987V191.618H414.867V192.788H411.987V197H410.709ZM418.845 197.09C417.945 197.09 417.135 196.886 416.415 196.478C415.707 196.058 415.149 195.488 414.741 194.768C414.333 194.036 414.129 193.202 414.129 192.266C414.129 191.318 414.333 190.484 414.741 189.764C415.149 189.044 415.707 188.48 416.415 188.072C417.135 187.664 417.945 187.46 418.845 187.46C419.745 187.46 420.549 187.664 421.257 188.072C421.965 188.48 422.523 189.044 422.931 189.764C423.339 190.484 423.543 191.318 423.543 192.266C423.543 193.202 423.339 194.036 422.931 194.768C422.523 195.488 421.965 196.058 421.257 196.478C420.549 196.886 419.745 197.09 418.845 197.09ZM418.845 195.974C419.505 195.974 420.093 195.818 420.609 195.506C421.125 195.194 421.533 194.762 421.833 194.21C422.133 193.646 422.283 192.998 422.283 192.266C422.283 191.522 422.133 190.874 421.833 190.322C421.533 189.77 421.125 189.344 420.609 189.044C420.093 188.732 419.505 188.576 418.845 188.576C418.197 188.576 417.609 188.732 417.081 189.044C416.565 189.344 416.157 189.77 415.857 190.322C415.557 190.874 415.407 191.522 415.407 192.266C415.407 192.998 415.557 193.646 415.857 194.21C416.157 194.762 416.565 195.194 417.081 195.506C417.609 195.818 418.197 195.974 418.845 195.974ZM432.493 195.884L432.205 196.226V187.55H433.483V196.226L433.141 195.884H438.415L438.073 196.226V187.55H439.351V197H426.283V187.55H427.561V196.226L427.237 195.884H432.493ZM439.603 199.07V196.658L439.927 197H438.001V195.884H440.809V199.07H439.603ZM442.982 197V187.55H444.26V195.056L450.578 187.55H451.712V197H450.434V189.476L444.134 197H442.982ZM455.375 197V187.55H456.671L460.955 194.804H460.415L464.771 187.55H465.959V197H464.789V189.008L465.023 189.116L460.955 195.848H460.379L456.275 189.044L456.545 188.99V197H455.375ZM469.595 197V187.55H470.873V195.056L477.191 187.55H478.325V197H477.047V189.476L470.747 197H469.595ZM65.778 224.09C64.842 224.09 64.002 223.886 63.258 223.478C62.526 223.058 61.95 222.488 61.53 221.768C61.11 221.036 60.9 220.202 60.9 219.266C60.9 218.318 61.11 217.484 61.53 216.764C61.95 216.044 62.526 215.48 63.258 215.072C64.002 214.664 64.842 214.46 65.778 214.46C66.582 214.46 67.308 214.616 67.956 214.928C68.604 215.24 69.114 215.708 69.486 216.332L68.532 216.98C68.208 216.5 67.806 216.146 67.326 215.918C66.846 215.69 66.324 215.576 65.76 215.576C65.088 215.576 64.482 215.732 63.942 216.044C63.402 216.344 62.976 216.77 62.664 217.322C62.352 217.874 62.196 218.522 62.196 219.266C62.196 220.01 62.352 220.658 62.664 221.21C62.976 221.762 63.402 222.194 63.942 222.506C64.482 222.806 65.088 222.956 65.76 222.956C66.324 222.956 66.846 222.842 67.326 222.614C67.806 222.386 68.208 222.038 68.532 221.57L69.486 222.218C69.114 222.83 68.604 223.298 67.956 223.622C67.308 223.934 66.582 224.09 65.778 224.09ZM71.9606 224V214.55H73.2386V222.056L79.5566 214.55H80.6906V224H79.4126V216.476L73.1126 224H71.9606ZM88.3132 224.09C87.3772 224.09 86.5372 223.886 85.7932 223.478C85.0612 223.058 84.4852 222.488 84.0652 221.768C83.6452 221.036 83.4352 220.202 83.4352 219.266C83.4352 218.318 83.6452 217.484 84.0652 216.764C84.4852 216.044 85.0612 215.48 85.7932 215.072C86.5372 214.664 87.3772 214.46 88.3132 214.46C89.1172 214.46 89.8432 214.616 90.4912 214.928C91.1392 215.24 91.6492 215.708 92.0212 216.332L91.0672 216.98C90.7432 216.5 90.3412 216.146 89.8612 215.918C89.3812 215.69 88.8592 215.576 88.2952 215.576C87.6232 215.576 87.0172 215.732 86.4772 216.044C85.9372 216.344 85.5112 216.77 85.1992 217.322C84.8872 217.874 84.7312 218.522 84.7312 219.266C84.7312 220.01 84.8872 220.658 85.1992 221.21C85.5112 221.762 85.9372 222.194 86.4772 222.506C87.0172 222.806 87.6232 222.956 88.2952 222.956C88.8592 222.956 89.3812 222.842 89.8612 222.614C90.3412 222.386 90.7432 222.038 91.0672 221.57L92.0212 222.218C91.6492 222.83 91.1392 223.298 90.4912 223.622C89.8432 223.934 89.1172 224.09 88.3132 224.09ZM96.12 224V215.324L96.444 215.666H92.538V214.55H100.98V215.666H97.074L97.398 215.324V224H96.12ZM106.438 224.09C105.454 224.09 104.59 223.886 103.846 223.478C103.102 223.058 102.52 222.488 102.1 221.768C101.68 221.036 101.47 220.202 101.47 219.266C101.47 218.33 101.668 217.502 102.064 216.782C102.472 216.062 103.024 215.498 103.72 215.09C104.428 214.67 105.22 214.46 106.096 214.46C106.984 214.46 107.77 214.664 108.454 215.072C109.15 215.468 109.696 216.032 110.092 216.764C110.488 217.484 110.686 218.318 110.686 219.266C110.686 219.326 110.68 219.392 110.668 219.464C110.668 219.524 110.668 219.59 110.668 219.662H102.442V218.708H109.984L109.48 219.086C109.48 218.402 109.33 217.796 109.03 217.268C108.742 216.728 108.346 216.308 107.842 216.008C107.338 215.708 106.756 215.558 106.096 215.558C105.448 215.558 104.866 215.708 104.35 216.008C103.834 216.308 103.432 216.728 103.144 217.268C102.856 217.808 102.712 218.426 102.712 219.122V219.32C102.712 220.04 102.868 220.676 103.18 221.228C103.504 221.768 103.948 222.194 104.512 222.506C105.088 222.806 105.742 222.956 106.474 222.956C107.05 222.956 107.584 222.854 108.076 222.65C108.58 222.446 109.012 222.134 109.372 221.714L110.092 222.542C109.672 223.046 109.144 223.43 108.508 223.694C107.884 223.958 107.194 224.09 106.438 224.09ZM113.515 224V214.55H114.811L119.095 221.804H118.555L122.911 214.55H124.099V224H122.929V216.008L123.163 216.116L119.095 222.848H118.519L114.415 216.044L114.685 215.99V224H113.515ZM133.604 224V221.912L133.55 221.57V218.078C133.55 217.274 133.322 216.656 132.866 216.224C132.422 215.792 131.756 215.576 130.868 215.576C130.256 215.576 129.674 215.678 129.122 215.882C128.57 216.086 128.102 216.356 127.718 216.692L127.142 215.738C127.622 215.33 128.198 215.018 128.87 214.802C129.542 214.574 130.25 214.46 130.994 214.46C132.218 214.46 133.16 214.766 133.82 215.378C134.492 215.978 134.828 216.896 134.828 218.132V224H133.604ZM130.346 224.09C129.638 224.09 129.02 223.976 128.492 223.748C127.976 223.508 127.58 223.184 127.304 222.776C127.028 222.356 126.89 221.876 126.89 221.336C126.89 220.844 127.004 220.4 127.232 220.004C127.472 219.596 127.856 219.272 128.384 219.032C128.924 218.78 129.644 218.654 130.544 218.654H133.802V219.608H130.58C129.668 219.608 129.032 219.77 128.672 220.094C128.324 220.418 128.15 220.82 128.15 221.3C128.15 221.84 128.36 222.272 128.78 222.596C129.2 222.92 129.788 223.082 130.544 223.082C131.264 223.082 131.882 222.92 132.398 222.596C132.926 222.26 133.31 221.78 133.55 221.156L133.838 222.038C133.598 222.662 133.178 223.16 132.578 223.532C131.99 223.904 131.246 224.09 130.346 224.09ZM138.23 224V214.55H139.526L143.81 221.804H143.27L147.626 214.55H148.814V224H147.644V216.008L147.878 216.116L143.81 222.848H143.234L139.13 216.044L139.4 215.99V224H138.23ZM152.451 224V214.55H153.729V222.056L160.047 214.55H161.181V224H159.903V216.476L153.603 224H152.451ZM164.033 226.628L164.825 223.298L164.969 224.072C164.693 224.072 164.459 223.982 164.267 223.802C164.087 223.622 163.997 223.388 163.997 223.1C163.997 222.812 164.087 222.578 164.267 222.398C164.459 222.218 164.687 222.128 164.951 222.128C165.227 222.128 165.449 222.224 165.617 222.416C165.797 222.608 165.887 222.836 165.887 223.1C165.887 223.196 165.881 223.292 165.869 223.388C165.857 223.484 165.833 223.592 165.797 223.712C165.761 223.832 165.713 223.976 165.653 224.144L164.897 226.628H164.033ZM175.169 224V215.324L175.493 215.666H171.587V214.55H180.029V215.666H176.123L176.447 215.324V224H175.169ZM187.745 224V221.912L187.691 221.57V218.078C187.691 217.274 187.463 216.656 187.007 216.224C186.563 215.792 185.897 215.576 185.009 215.576C184.397 215.576 183.815 215.678 183.263 215.882C182.711 216.086 182.243 216.356 181.859 216.692L181.283 215.738C181.763 215.33 182.339 215.018 183.011 214.802C183.683 214.574 184.391 214.46 185.135 214.46C186.359 214.46 187.301 214.766 187.961 215.378C188.633 215.978 188.969 216.896 188.969 218.132V224H187.745ZM184.487 224.09C183.779 224.09 183.161 223.976 182.633 223.748C182.117 223.508 181.721 223.184 181.445 222.776C181.169 222.356 181.031 221.876 181.031 221.336C181.031 220.844 181.145 220.4 181.373 220.004C181.613 219.596 181.997 219.272 182.525 219.032C183.065 218.78 183.785 218.654 184.685 218.654H187.943V219.608H184.721C183.809 219.608 183.173 219.77 182.813 220.094C182.465 220.418 182.291 220.82 182.291 221.3C182.291 221.84 182.501 222.272 182.921 222.596C183.341 222.92 183.929 223.082 184.685 223.082C185.405 223.082 186.023 222.92 186.539 222.596C187.067 222.26 187.451 221.78 187.691 221.156L187.979 222.038C187.739 222.662 187.319 223.16 186.719 223.532C186.131 223.904 185.387 224.09 184.487 224.09ZM199.301 224L195.413 219.32L196.475 218.69L200.813 224H199.301ZM192.371 224V214.55H193.649V224H192.371ZM193.253 219.788V218.69H196.295V219.788H193.253ZM196.583 219.41L195.395 219.23L199.157 214.55H200.543L196.583 219.41ZM207.541 224V214.55H208.819V222.056L215.137 214.55H216.271V224H214.993V216.476L208.693 224H207.541ZM224.644 224V214.55H228.82C229.888 214.55 230.728 214.754 231.34 215.162C231.964 215.57 232.276 216.17 232.276 216.962C232.276 217.73 231.982 218.324 231.394 218.744C230.806 219.152 230.032 219.356 229.072 219.356L229.324 218.978C230.452 218.978 231.28 219.188 231.808 219.608C232.336 220.028 232.6 220.634 232.6 221.426C232.6 222.242 232.3 222.878 231.7 223.334C231.112 223.778 230.194 224 228.946 224H224.644ZM225.886 222.992H228.892C229.696 222.992 230.302 222.866 230.71 222.614C231.13 222.35 231.34 221.93 231.34 221.354C231.34 220.778 231.154 220.358 230.782 220.094C230.41 219.83 229.822 219.698 229.018 219.698H225.886V222.992ZM225.886 218.744H228.73C229.462 218.744 230.02 218.606 230.404 218.33C230.8 218.054 230.998 217.652 230.998 217.124C230.998 216.596 230.8 216.2 230.404 215.936C230.02 215.672 229.462 215.54 228.73 215.54H225.886V218.744ZM235.595 224V214.55H236.873V218.726H242.831V214.55H244.109V224H242.831V219.824H236.873V224H235.595ZM251.792 224.09C250.808 224.09 249.944 223.886 249.2 223.478C248.456 223.058 247.874 222.488 247.454 221.768C247.034 221.036 246.824 220.202 246.824 219.266C246.824 218.33 247.022 217.502 247.418 216.782C247.826 216.062 248.378 215.498 249.074 215.09C249.782 214.67 250.574 214.46 251.45 214.46C252.338 214.46 253.124 214.664 253.808 215.072C254.504 215.468 255.05 216.032 255.446 216.764C255.842 217.484 256.04 218.318 256.04 219.266C256.04 219.326 256.034 219.392 256.022 219.464C256.022 219.524 256.022 219.59 256.022 219.662H247.796V218.708H255.338L254.834 219.086C254.834 218.402 254.684 217.796 254.384 217.268C254.096 216.728 253.7 216.308 253.196 216.008C252.692 215.708 252.11 215.558 251.45 215.558C250.802 215.558 250.22 215.708 249.704 216.008C249.188 216.308 248.786 216.728 248.498 217.268C248.21 217.808 248.066 218.426 248.066 219.122V219.32C248.066 220.04 248.222 220.676 248.534 221.228C248.858 221.768 249.302 222.194 249.866 222.506C250.442 222.806 251.096 222.956 251.828 222.956C252.404 222.956 252.938 222.854 253.43 222.65C253.934 222.446 254.366 222.134 254.726 221.714L255.446 222.542C255.026 223.046 254.498 223.43 253.862 223.694C253.238 223.958 252.548 224.09 251.792 224.09ZM265.079 222.884L264.791 223.226V214.55H266.069V223.226L265.727 222.884H271.001L270.659 223.226V214.55H271.937V224H258.869V214.55H260.147V223.226L259.823 222.884H265.079ZM275.568 224V214.55H276.846V218.726H282.804V214.55H284.082V224H282.804V219.824H276.846V224H275.568ZM287.714 224V214.55H288.992V222.056L295.31 214.55H296.444V224H295.166V216.476L288.866 224H287.714ZM300.107 224V214.55H301.403L305.687 221.804H305.147L309.503 214.55H310.691V224H309.521V216.008L309.755 216.116L305.687 222.848H305.111L301.007 216.044L301.277 215.99V224H300.107ZM314.328 224V214.55H315.606V222.056L321.924 214.55H323.058V224H321.78V216.476L315.48 224H314.328ZM335.391 224.09C334.455 224.09 333.615 223.886 332.871 223.478C332.139 223.058 331.563 222.488 331.143 221.768C330.723 221.036 330.513 220.202 330.513 219.266C330.513 218.318 330.723 217.484 331.143 216.764C331.563 216.044 332.139 215.48 332.871 215.072C333.615 214.664 334.455 214.46 335.391 214.46C336.195 214.46 336.921 214.616 337.569 214.928C338.217 215.24 338.727 215.708 339.099 216.332L338.145 216.98C337.821 216.5 337.419 216.146 336.939 215.918C336.459 215.69 335.937 215.576 335.373 215.576C334.701 215.576 334.095 215.732 333.555 216.044C333.015 216.344 332.589 216.77 332.277 217.322C331.965 217.874 331.809 218.522 331.809 219.266C331.809 220.01 331.965 220.658 332.277 221.21C332.589 221.762 333.015 222.194 333.555 222.506C334.095 222.806 334.701 222.956 335.373 222.956C335.937 222.956 336.459 222.842 336.939 222.614C337.419 222.386 337.821 222.038 338.145 221.57L339.099 222.218C338.727 222.83 338.217 223.298 337.569 223.622C336.921 223.934 336.195 224.09 335.391 224.09ZM345.466 224.09C344.482 224.09 343.618 223.886 342.874 223.478C342.13 223.058 341.548 222.488 341.128 221.768C340.708 221.036 340.498 220.202 340.498 219.266C340.498 218.33 340.696 217.502 341.092 216.782C341.5 216.062 342.052 215.498 342.748 215.09C343.456 214.67 344.248 214.46 345.124 214.46C346.012 214.46 346.798 214.664 347.482 215.072C348.178 215.468 348.724 216.032 349.12 216.764C349.516 217.484 349.714 218.318 349.714 219.266C349.714 219.326 349.708 219.392 349.696 219.464C349.696 219.524 349.696 219.59 349.696 219.662H341.47V218.708H349.012L348.508 219.086C348.508 218.402 348.358 217.796 348.058 217.268C347.77 216.728 347.374 216.308 346.87 216.008C346.366 215.708 345.784 215.558 345.124 215.558C344.476 215.558 343.894 215.708 343.378 216.008C342.862 216.308 342.46 216.728 342.172 217.268C341.884 217.808 341.74 218.426 341.74 219.122V219.32C341.74 220.04 341.896 220.676 342.208 221.228C342.532 221.768 342.976 222.194 343.54 222.506C344.116 222.806 344.77 222.956 345.502 222.956C346.078 222.956 346.612 222.854 347.104 222.65C347.608 222.446 348.04 222.134 348.4 221.714L349.12 222.542C348.7 223.046 348.172 223.43 347.536 223.694C346.912 223.958 346.222 224.09 345.466 224.09ZM357.421 224.09C356.605 224.09 355.867 223.904 355.207 223.532C354.547 223.148 354.019 222.602 353.623 221.894C353.239 221.174 353.047 220.298 353.047 219.266C353.047 218.234 353.239 217.364 353.623 216.656C354.007 215.936 354.529 215.39 355.189 215.018C355.849 214.646 356.593 214.46 357.421 214.46C358.321 214.46 359.125 214.664 359.833 215.072C360.553 215.468 361.117 216.032 361.525 216.764C361.933 217.484 362.137 218.318 362.137 219.266C362.137 220.226 361.933 221.066 361.525 221.786C361.117 222.506 360.553 223.07 359.833 223.478C359.125 223.886 358.321 224.09 357.421 224.09ZM352.543 227.492V214.55H353.767V217.394L353.641 219.284L353.821 221.192V227.492H352.543ZM357.331 222.956C358.003 222.956 358.603 222.806 359.131 222.506C359.659 222.194 360.079 221.762 360.391 221.21C360.703 220.646 360.859 219.998 360.859 219.266C360.859 218.534 360.703 217.892 360.391 217.34C360.079 216.788 359.659 216.356 359.131 216.044C358.603 215.732 358.003 215.576 357.331 215.576C356.659 215.576 356.053 215.732 355.513 216.044C354.985 216.356 354.565 216.788 354.253 217.34C353.953 217.892 353.803 218.534 353.803 219.266C353.803 219.998 353.953 220.646 354.253 221.21C354.565 221.762 354.985 222.194 355.513 222.506C356.053 222.806 356.659 222.956 357.331 222.956ZM364.882 224V214.55H369.058C370.126 214.55 370.966 214.754 371.578 215.162C372.202 215.57 372.514 216.17 372.514 216.962C372.514 217.73 372.22 218.324 371.632 218.744C371.044 219.152 370.27 219.356 369.31 219.356L369.562 218.978C370.69 218.978 371.518 219.188 372.046 219.608C372.574 220.028 372.838 220.634 372.838 221.426C372.838 222.242 372.538 222.878 371.938 223.334C371.35 223.778 370.432 224 369.184 224H364.882ZM366.124 222.992H369.13C369.934 222.992 370.54 222.866 370.948 222.614C371.368 222.35 371.578 221.93 371.578 221.354C371.578 220.778 371.392 220.358 371.02 220.094C370.648 219.83 370.06 219.698 369.256 219.698H366.124V222.992ZM366.124 218.744H368.968C369.7 218.744 370.258 218.606 370.642 218.33C371.038 218.054 371.236 217.652 371.236 217.124C371.236 216.596 371.038 216.2 370.642 215.936C370.258 215.672 369.7 215.54 368.968 215.54H366.124V218.744ZM375.834 224V214.55H377.112V222.056L383.43 214.55H384.564V224H383.286V216.476L376.986 224H375.834ZM392.186 224.09C391.25 224.09 390.41 223.886 389.666 223.478C388.934 223.058 388.358 222.488 387.938 221.768C387.518 221.036 387.308 220.202 387.308 219.266C387.308 218.318 387.518 217.484 387.938 216.764C388.358 216.044 388.934 215.48 389.666 215.072C390.41 214.664 391.25 214.46 392.186 214.46C392.99 214.46 393.716 214.616 394.364 214.928C395.012 215.24 395.522 215.708 395.894 216.332L394.94 216.98C394.616 216.5 394.214 216.146 393.734 215.918C393.254 215.69 392.732 215.576 392.168 215.576C391.496 215.576 390.89 215.732 390.35 216.044C389.81 216.344 389.384 216.77 389.072 217.322C388.76 217.874 388.604 218.522 388.604 219.266C388.604 220.01 388.76 220.658 389.072 221.21C389.384 221.762 389.81 222.194 390.35 222.506C390.89 222.806 391.496 222.956 392.168 222.956C392.732 222.956 393.254 222.842 393.734 222.614C394.214 222.386 394.616 222.038 394.94 221.57L395.894 222.218C395.522 222.83 395.012 223.298 394.364 223.622C393.716 223.934 392.99 224.09 392.186 224.09ZM404.237 224V221.912L404.183 221.57V218.078C404.183 217.274 403.955 216.656 403.499 216.224C403.055 215.792 402.389 215.576 401.501 215.576C400.889 215.576 400.307 215.678 399.755 215.882C399.203 216.086 398.735 216.356 398.351 216.692L397.775 215.738C398.255 215.33 398.831 215.018 399.503 214.802C400.175 214.574 400.883 214.46 401.627 214.46C402.851 214.46 403.793 214.766 404.453 215.378C405.125 215.978 405.461 216.896 405.461 218.132V224H404.237ZM400.979 224.09C400.271 224.09 399.653 223.976 399.125 223.748C398.609 223.508 398.213 223.184 397.937 222.776C397.661 222.356 397.523 221.876 397.523 221.336C397.523 220.844 397.637 220.4 397.865 220.004C398.105 219.596 398.489 219.272 399.017 219.032C399.557 218.78 400.277 218.654 401.177 218.654H404.435V219.608H401.213C400.301 219.608 399.665 219.77 399.305 220.094C398.957 220.418 398.783 220.82 398.783 221.3C398.783 221.84 398.993 222.272 399.413 222.596C399.833 222.92 400.421 223.082 401.177 223.082C401.897 223.082 402.515 222.92 403.031 222.596C403.559 222.26 403.943 221.78 404.183 221.156L404.471 222.038C404.231 222.662 403.811 223.16 403.211 223.532C402.623 223.904 401.879 224.09 400.979 224.09ZM408.863 224V214.55H410.159L414.443 221.804H413.903L418.259 214.55H419.447V224H418.277V216.008L418.511 216.116L414.443 222.848H413.867L409.763 216.044L410.033 215.99V224H408.863ZM423.084 224V214.55H424.362V222.056L430.68 214.55H431.814V224H430.536V216.476L424.236 224H423.084ZM435.566 224.09C435.302 224.09 435.074 223.994 434.882 223.802C434.702 223.61 434.612 223.376 434.612 223.1C434.612 222.812 434.702 222.578 434.882 222.398C435.074 222.218 435.302 222.128 435.566 222.128C435.83 222.128 436.052 222.218 436.232 222.398C436.424 222.578 436.52 222.812 436.52 223.1C436.52 223.376 436.424 223.61 436.232 223.802C436.052 223.994 435.83 224.09 435.566 224.09Z" fill="#0C2836"/>
</g>
<defs>
<filter id="filter0_d_16096_12658" x="-17" y="0" width="598" height="335" filterUnits="userSpaceOnUse" color-interpolation-filters="sRGB">
<feFlood flood-opacity="0" result="BackgroundImageFix"/>
<feColorMatrix in="SourceAlpha" type="matrix" values="0 0 0 0 0 0 0 0 0 0 0 0 0 0 0 0 0 0 127 0" result="hardAlpha"/>
<feMorphology radius="2" operator="dilate" in="SourceAlpha" result="effect1_dropShadow_16096_12658"/>
<feOffset/>
<feGaussianBlur stdDeviation="17.5"/>
<feComposite in2="hardAlpha" operator="out"/>
<feColorMatrix type="matrix" values="0 0 0 0 0.670588 0 0 0 0 0.717647 0 0 0 0 0.807843 0 0 0 0.5 0"/>
<feBlend mode="normal" in2="BackgroundImageFix" result="effect1_dropShadow_16096_12658"/>
<feBlend mode="normal" in="SourceGraphic" in2="effect1_dropShadow_16096_12658" result="shape"/>
</filter>
<clipPath id="clip0_16096_12658">
<rect width="75" height="75" fill="white" transform="translate(60 77)"/>
</clipPath>
</defs>
</svg>
