<svg width="556" height="335" viewBox="0 0 556 335" fill="none" xmlns="http://www.w3.org/2000/svg">
<g filter="url(#filter0_d_16096_12639)">
<rect x="20" y="37" width="524" height="261" rx="40" fill="white"/>
<g clip-path="url(#clip0_16096_12639)">
<circle cx="97.5" cy="114.5" r="36.5" stroke="#0C2836" stroke-width="2"/>
<path d="M87 124C87 126.761 84.7614 129 82 129C79.2386 129 77 126.761 77 124C77 121.239 79.2386 119 82 119C84.7614 119 87 121.239 87 124Z" stroke="#0C2836" stroke-width="2"/>
<path d="M98 101V105.5M98 105.5L105.5 110V119M98 105.5L90.5 110V119M105.5 119L98 123.5L90.5 119M105.5 119L109.5 121M90.5 119L86.5 121" stroke="#0C2836" stroke-width="2"/>
<path d="M119 124C119 126.761 116.761 129 114 129C111.239 129 109 126.761 109 124C109 121.239 111.239 119 114 119C116.761 119 119 121.239 119 124Z" stroke="#0C2836" stroke-width="2"/>
<path d="M103 95.5001C103 98.2615 100.761 100.5 98 100.5C95.2386 100.5 93 98.2615 93 95.5001C93 92.7386 95.2386 90.5001 98 90.5001C100.761 90.5001 103 92.7386 103 95.5001Z" stroke="#0C2836" stroke-width="2"/>
</g>
<path d="M67.632 197.108C66.684 197.108 65.808 196.952 65.004 196.64C64.2 196.316 63.504 195.866 62.916 195.29C62.328 194.714 61.866 194.036 61.53 193.256C61.206 192.476 61.044 191.624 61.044 190.7C61.044 189.776 61.206 188.924 61.53 188.144C61.866 187.364 62.328 186.686 62.916 186.11C63.516 185.534 64.218 185.09 65.022 184.778C65.826 184.454 66.702 184.292 67.65 184.292C68.562 184.292 69.42 184.448 70.224 184.76C71.028 185.06 71.706 185.516 72.258 186.128L71.412 186.974C70.896 186.446 70.326 186.068 69.702 185.84C69.078 185.6 68.406 185.48 67.686 185.48C66.93 185.48 66.228 185.612 65.58 185.876C64.932 186.128 64.368 186.494 63.888 186.974C63.408 187.442 63.03 187.994 62.754 188.63C62.49 189.254 62.358 189.944 62.358 190.7C62.358 191.456 62.49 192.152 62.754 192.788C63.03 193.412 63.408 193.964 63.888 194.444C64.368 194.912 64.932 195.278 65.58 195.542C66.228 195.794 66.93 195.92 67.686 195.92C68.406 195.92 69.078 195.8 69.702 195.56C70.326 195.32 70.896 194.936 71.412 194.408L72.258 195.254C71.706 195.866 71.028 196.328 70.224 196.64C69.42 196.952 68.556 197.108 67.632 197.108ZM78.1689 197.09C77.2569 197.09 76.4349 196.886 75.7029 196.478C74.9829 196.058 74.4129 195.488 73.9929 194.768C73.5729 194.036 73.3629 193.202 73.3629 192.266C73.3629 191.318 73.5729 190.484 73.9929 189.764C74.4129 189.044 74.9829 188.48 75.7029 188.072C76.4229 187.664 77.2449 187.46 78.1689 187.46C79.1049 187.46 79.9329 187.664 80.6529 188.072C81.3849 188.48 81.9549 189.044 82.3629 189.764C82.7829 190.484 82.9929 191.318 82.9929 192.266C82.9929 193.202 82.7829 194.036 82.3629 194.768C81.9549 195.488 81.3849 196.058 80.6529 196.478C79.9209 196.886 79.0929 197.09 78.1689 197.09ZM78.1689 195.956C78.8529 195.956 79.4589 195.806 79.9869 195.506C80.5149 195.194 80.9289 194.762 81.2289 194.21C81.5409 193.646 81.6969 192.998 81.6969 192.266C81.6969 191.522 81.5409 190.874 81.2289 190.322C80.9289 189.77 80.5149 189.344 79.9869 189.044C79.4589 188.732 78.8589 188.576 78.1869 188.576C77.5149 188.576 76.9149 188.732 76.3869 189.044C75.8589 189.344 75.4389 189.77 75.1269 190.322C74.8149 190.874 74.6589 191.522 74.6589 192.266C74.6589 192.998 74.8149 193.646 75.1269 194.21C75.4389 194.762 75.8589 195.194 76.3869 195.506C76.9149 195.806 77.5089 195.956 78.1689 195.956ZM88.1919 197.108C87.5079 197.108 86.8299 197.012 86.1579 196.82C85.4859 196.628 84.8919 196.334 84.3759 195.938L84.7899 194.984C85.2459 195.32 85.7739 195.578 86.3739 195.758C86.9739 195.926 87.5679 196.01 88.1559 196.01C88.7439 195.998 89.2539 195.914 89.6859 195.758C90.1179 195.602 90.4539 195.386 90.6939 195.11C90.9339 194.834 91.0539 194.522 91.0539 194.174C91.0539 193.67 90.8259 193.28 90.3699 193.004C89.9139 192.716 89.2899 192.572 88.4979 192.572H86.8779V191.636H88.4079C88.8759 191.636 89.2899 191.576 89.6499 191.456C90.0099 191.336 90.2859 191.162 90.4779 190.934C90.6819 190.706 90.7839 190.436 90.7839 190.124C90.7839 189.788 90.6639 189.5 90.4239 189.26C90.1959 189.02 89.8779 188.84 89.4699 188.72C89.0619 188.6 88.5999 188.54 88.0839 188.54C87.6159 188.552 87.1299 188.624 86.6259 188.756C86.1219 188.876 85.6239 189.062 85.1319 189.314L84.7719 188.324C85.3239 188.036 85.8699 187.82 86.4099 187.676C86.9619 187.52 87.5139 187.442 88.0659 187.442C88.8219 187.418 89.4999 187.508 90.0999 187.712C90.7119 187.916 91.1979 188.21 91.5579 188.594C91.9179 188.966 92.0979 189.416 92.0979 189.944C92.0979 190.412 91.9539 190.82 91.6659 191.168C91.3779 191.516 90.9939 191.786 90.5139 191.978C90.0339 192.17 89.4879 192.266 88.8759 192.266L88.9299 191.924C90.0099 191.924 90.8499 192.134 91.4499 192.554C92.0619 192.974 92.3679 193.544 92.3679 194.264C92.3679 194.828 92.1819 195.326 91.8099 195.758C91.4379 196.178 90.9339 196.508 90.2979 196.748C89.6739 196.988 88.9719 197.108 88.1919 197.108ZM101.749 196.388V188.666H97.1952L97.0872 190.772C97.0632 191.408 97.0212 192.032 96.9612 192.644C96.9132 193.256 96.8232 193.82 96.6912 194.336C96.5712 194.84 96.3972 195.254 96.1692 195.578C95.9412 195.89 95.6472 196.07 95.2872 196.118L94.0092 195.884C94.3812 195.896 94.6872 195.764 94.9272 195.488C95.1672 195.2 95.3532 194.81 95.4852 194.318C95.6172 193.826 95.7132 193.268 95.7732 192.644C95.8332 192.008 95.8812 191.36 95.9172 190.7L96.0432 187.55H103.027V196.388H101.749ZM93.6132 199.286V195.884H104.503V199.286H103.297V197H94.8192V199.286H93.6132ZM112.862 197V194.912L112.808 194.57V191.078C112.808 190.274 112.58 189.656 112.124 189.224C111.68 188.792 111.014 188.576 110.126 188.576C109.514 188.576 108.932 188.678 108.38 188.882C107.828 189.086 107.36 189.356 106.976 189.692L106.4 188.738C106.88 188.33 107.456 188.018 108.128 187.802C108.8 187.574 109.508 187.46 110.252 187.46C111.476 187.46 112.418 187.766 113.078 188.378C113.75 188.978 114.086 189.896 114.086 191.132V197H112.862ZM109.604 197.09C108.896 197.09 108.278 196.976 107.75 196.748C107.234 196.508 106.838 196.184 106.562 195.776C106.286 195.356 106.148 194.876 106.148 194.336C106.148 193.844 106.262 193.4 106.49 193.004C106.73 192.596 107.114 192.272 107.642 192.032C108.182 191.78 108.902 191.654 109.802 191.654H113.06V192.608H109.838C108.926 192.608 108.29 192.77 107.93 193.094C107.582 193.418 107.408 193.82 107.408 194.3C107.408 194.84 107.618 195.272 108.038 195.596C108.458 195.92 109.046 196.082 109.802 196.082C110.522 196.082 111.14 195.92 111.656 195.596C112.184 195.26 112.568 194.78 112.808 194.156L113.096 195.038C112.856 195.662 112.436 196.16 111.836 196.532C111.248 196.904 110.504 197.09 109.604 197.09ZM121.538 197.09C120.554 197.09 119.69 196.886 118.946 196.478C118.202 196.058 117.62 195.488 117.2 194.768C116.78 194.036 116.57 193.202 116.57 192.266C116.57 191.33 116.768 190.502 117.164 189.782C117.572 189.062 118.124 188.498 118.82 188.09C119.528 187.67 120.32 187.46 121.196 187.46C122.084 187.46 122.87 187.664 123.554 188.072C124.25 188.468 124.796 189.032 125.192 189.764C125.588 190.484 125.786 191.318 125.786 192.266C125.786 192.326 125.78 192.392 125.768 192.464C125.768 192.524 125.768 192.59 125.768 192.662H117.542V191.708H125.084L124.58 192.086C124.58 191.402 124.43 190.796 124.13 190.268C123.842 189.728 123.446 189.308 122.942 189.008C122.438 188.708 121.856 188.558 121.196 188.558C120.548 188.558 119.966 188.708 119.45 189.008C118.934 189.308 118.532 189.728 118.244 190.268C117.956 190.808 117.812 191.426 117.812 192.122V192.32C117.812 193.04 117.968 193.676 118.28 194.228C118.604 194.768 119.048 195.194 119.612 195.506C120.188 195.806 120.842 195.956 121.574 195.956C122.15 195.956 122.684 195.854 123.176 195.65C123.68 195.446 124.112 195.134 124.472 194.714L125.192 195.542C124.772 196.046 124.244 196.43 123.608 196.694C122.984 196.958 122.294 197.09 121.538 197.09ZM128.615 197V187.55H129.911L134.195 194.804H133.655L138.011 187.55H139.199V197H138.029V189.008L138.263 189.116L134.195 195.848H133.619L129.515 189.044L129.785 188.99V197H128.615ZM147.709 200.582C147.265 200.582 146.839 200.51 146.431 200.366C146.035 200.222 145.693 200.006 145.405 199.718L145.999 198.764C146.239 198.992 146.497 199.166 146.773 199.286C147.061 199.418 147.379 199.484 147.727 199.484C148.147 199.484 148.507 199.364 148.807 199.124C149.119 198.896 149.413 198.488 149.689 197.9L150.301 196.514L150.445 196.316L154.333 187.55H155.593L150.859 198.134C150.595 198.746 150.301 199.232 149.977 199.592C149.665 199.952 149.323 200.204 148.951 200.348C148.579 200.504 148.165 200.582 147.709 200.582ZM150.229 197.27L145.873 187.55H147.205L151.057 196.226L150.229 197.27ZM157.584 197V187.55H158.862V191.726H164.82V187.55H166.098V197H164.82V192.824H158.862V197H157.584ZM169.73 197V187.55H171.008V195.056L177.326 187.55H178.46V197H177.182V189.476L170.882 197H169.73ZM189.053 197L185.165 192.32L186.227 191.69L190.565 197H189.053ZM182.123 197V187.55H183.401V197H182.123ZM183.005 192.788V191.69H186.047V192.788H183.005ZM186.335 192.41L185.147 192.23L188.909 187.55H190.295L186.335 192.41ZM198.274 197V194.912L198.22 194.57V191.078C198.22 190.274 197.992 189.656 197.536 189.224C197.092 188.792 196.426 188.576 195.538 188.576C194.926 188.576 194.344 188.678 193.792 188.882C193.24 189.086 192.772 189.356 192.388 189.692L191.812 188.738C192.292 188.33 192.868 188.018 193.54 187.802C194.212 187.574 194.92 187.46 195.664 187.46C196.888 187.46 197.83 187.766 198.49 188.378C199.162 188.978 199.498 189.896 199.498 191.132V197H198.274ZM195.016 197.09C194.308 197.09 193.69 196.976 193.162 196.748C192.646 196.508 192.25 196.184 191.974 195.776C191.698 195.356 191.56 194.876 191.56 194.336C191.56 193.844 191.674 193.4 191.902 193.004C192.142 192.596 192.526 192.272 193.054 192.032C193.594 191.78 194.314 191.654 195.214 191.654H198.472V192.608H195.25C194.338 192.608 193.702 192.77 193.342 193.094C192.994 193.418 192.82 193.82 192.82 194.3C192.82 194.84 193.03 195.272 193.45 195.596C193.87 195.92 194.458 196.082 195.214 196.082C195.934 196.082 196.552 195.92 197.068 195.596C197.596 195.26 197.98 194.78 198.22 194.156L198.508 195.038C198.268 195.662 197.848 196.16 197.248 196.532C196.66 196.904 195.916 197.09 195.016 197.09ZM201.172 196.982L201.262 195.884C201.346 195.896 201.424 195.914 201.496 195.938C201.58 195.95 201.652 195.956 201.712 195.956C202.096 195.956 202.402 195.812 202.63 195.524C202.87 195.236 203.05 194.852 203.17 194.372C203.29 193.892 203.374 193.352 203.422 192.752C203.47 192.14 203.512 191.528 203.548 190.916L203.71 187.55H210.64V197H209.362V188.288L209.686 188.666H204.538L204.844 188.27L204.7 191.006C204.664 191.822 204.598 192.602 204.502 193.346C204.418 194.09 204.28 194.744 204.088 195.308C203.908 195.872 203.656 196.316 203.332 196.64C203.008 196.952 202.594 197.108 202.09 197.108C201.946 197.108 201.796 197.096 201.64 197.072C201.496 197.048 201.34 197.018 201.172 196.982ZM218.341 190.88C219.529 190.892 220.429 191.156 221.041 191.672C221.665 192.188 221.977 192.932 221.977 193.904C221.977 194.912 221.641 195.686 220.969 196.226C220.309 196.766 219.349 197.03 218.089 197.018L214.273 197V187.55H215.551V190.844L218.341 190.88ZM218.017 196.046C218.893 196.058 219.553 195.884 219.997 195.524C220.453 195.152 220.681 194.612 220.681 193.904C220.681 193.196 220.459 192.68 220.015 192.356C219.571 192.02 218.905 191.846 218.017 191.834L215.551 191.798V196.01L218.017 196.046ZM224.416 197V187.55H225.694V191.726H231.652V187.55H232.93V197H231.652V192.824H225.694V197H224.416ZM245.778 197V187.55H247.056V197H245.778ZM240.54 190.88C241.728 190.892 242.634 191.156 243.258 191.672C243.882 192.188 244.194 192.932 244.194 193.904C244.194 194.912 243.858 195.686 243.186 196.226C242.514 196.766 241.554 197.03 240.306 197.018L236.562 197V187.55H237.84V190.844L240.54 190.88ZM240.216 196.046C241.104 196.058 241.77 195.884 242.214 195.524C242.67 195.152 242.898 194.612 242.898 193.904C242.898 193.196 242.676 192.68 242.232 192.356C241.788 192.02 241.116 191.846 240.216 191.834L237.84 191.798V196.01L240.216 196.046ZM254.745 197.09C253.761 197.09 252.897 196.886 252.153 196.478C251.409 196.058 250.827 195.488 250.407 194.768C249.987 194.036 249.777 193.202 249.777 192.266C249.777 191.33 249.975 190.502 250.371 189.782C250.779 189.062 251.331 188.498 252.027 188.09C252.735 187.67 253.527 187.46 254.403 187.46C255.291 187.46 256.077 187.664 256.761 188.072C257.457 188.468 258.003 189.032 258.399 189.764C258.795 190.484 258.993 191.318 258.993 192.266C258.993 192.326 258.987 192.392 258.975 192.464C258.975 192.524 258.975 192.59 258.975 192.662H250.749V191.708H258.291L257.787 192.086C257.787 191.402 257.637 190.796 257.337 190.268C257.049 189.728 256.653 189.308 256.149 189.008C255.645 188.708 255.063 188.558 254.403 188.558C253.755 188.558 253.173 188.708 252.657 189.008C252.141 189.308 251.739 189.728 251.451 190.268C251.163 190.808 251.019 191.426 251.019 192.122V192.32C251.019 193.04 251.175 193.676 251.487 194.228C251.811 194.768 252.255 195.194 252.819 195.506C253.395 195.806 254.049 195.956 254.781 195.956C255.357 195.956 255.891 195.854 256.383 195.65C256.887 195.446 257.319 195.134 257.679 194.714L258.399 195.542C257.979 196.046 257.451 196.43 256.815 196.694C256.191 196.958 255.501 197.09 254.745 197.09ZM270.493 197.09C269.557 197.09 268.717 196.886 267.973 196.478C267.241 196.058 266.665 195.488 266.245 194.768C265.825 194.036 265.615 193.202 265.615 192.266C265.615 191.318 265.825 190.484 266.245 189.764C266.665 189.044 267.241 188.48 267.973 188.072C268.717 187.664 269.557 187.46 270.493 187.46C271.297 187.46 272.023 187.616 272.671 187.928C273.319 188.24 273.829 188.708 274.201 189.332L273.247 189.98C272.923 189.5 272.521 189.146 272.041 188.918C271.561 188.69 271.039 188.576 270.475 188.576C269.803 188.576 269.197 188.732 268.657 189.044C268.117 189.344 267.691 189.77 267.379 190.322C267.067 190.874 266.911 191.522 266.911 192.266C266.911 193.01 267.067 193.658 267.379 194.21C267.691 194.762 268.117 195.194 268.657 195.506C269.197 195.806 269.803 195.956 270.475 195.956C271.039 195.956 271.561 195.842 272.041 195.614C272.521 195.386 272.923 195.038 273.247 194.57L274.201 195.218C273.829 195.83 273.319 196.298 272.671 196.622C272.023 196.934 271.297 197.09 270.493 197.09ZM276.675 197V187.55H277.953V195.056L284.271 187.55H285.405V197H284.127V189.476L277.827 197H276.675ZM293.028 197.09C292.092 197.09 291.252 196.886 290.508 196.478C289.776 196.058 289.2 195.488 288.78 194.768C288.36 194.036 288.15 193.202 288.15 192.266C288.15 191.318 288.36 190.484 288.78 189.764C289.2 189.044 289.776 188.48 290.508 188.072C291.252 187.664 292.092 187.46 293.028 187.46C293.832 187.46 294.558 187.616 295.206 187.928C295.854 188.24 296.364 188.708 296.736 189.332L295.782 189.98C295.458 189.5 295.056 189.146 294.576 188.918C294.096 188.69 293.574 188.576 293.01 188.576C292.338 188.576 291.732 188.732 291.192 189.044C290.652 189.344 290.226 189.77 289.914 190.322C289.602 190.874 289.446 191.522 289.446 192.266C289.446 193.01 289.602 193.658 289.914 194.21C290.226 194.762 290.652 195.194 291.192 195.506C291.732 195.806 292.338 195.956 293.01 195.956C293.574 195.956 294.096 195.842 294.576 195.614C295.056 195.386 295.458 195.038 295.782 194.57L296.736 195.218C296.364 195.83 295.854 196.298 295.206 196.622C294.558 196.934 293.832 197.09 293.028 197.09ZM300.835 197V188.324L301.159 188.666H297.253V187.55H305.695V188.666H301.789L302.113 188.324V197H300.835ZM311.153 197.09C310.169 197.09 309.305 196.886 308.561 196.478C307.817 196.058 307.235 195.488 306.815 194.768C306.395 194.036 306.185 193.202 306.185 192.266C306.185 191.33 306.383 190.502 306.779 189.782C307.187 189.062 307.739 188.498 308.435 188.09C309.143 187.67 309.935 187.46 310.811 187.46C311.699 187.46 312.485 187.664 313.169 188.072C313.865 188.468 314.411 189.032 314.807 189.764C315.203 190.484 315.401 191.318 315.401 192.266C315.401 192.326 315.395 192.392 315.383 192.464C315.383 192.524 315.383 192.59 315.383 192.662H307.157V191.708H314.699L314.195 192.086C314.195 191.402 314.045 190.796 313.745 190.268C313.457 189.728 313.061 189.308 312.557 189.008C312.053 188.708 311.471 188.558 310.811 188.558C310.163 188.558 309.581 188.708 309.065 189.008C308.549 189.308 308.147 189.728 307.859 190.268C307.571 190.808 307.427 191.426 307.427 192.122V192.32C307.427 193.04 307.583 193.676 307.895 194.228C308.219 194.768 308.663 195.194 309.227 195.506C309.803 195.806 310.457 195.956 311.189 195.956C311.765 195.956 312.299 195.854 312.791 195.65C313.295 195.446 313.727 195.134 314.087 194.714L314.807 195.542C314.387 196.046 313.859 196.43 313.223 196.694C312.599 196.958 311.909 197.09 311.153 197.09ZM318.23 197V187.55H319.526L323.81 194.804H323.27L327.626 187.55H328.814V197H327.644V189.008L327.878 189.116L323.81 195.848H323.234L319.13 189.044L319.4 188.99V197H318.23ZM341.667 197V187.55H342.945V197H341.667ZM336.429 190.88C337.617 190.892 338.523 191.156 339.147 191.672C339.771 192.188 340.083 192.932 340.083 193.904C340.083 194.912 339.747 195.686 339.075 196.226C338.403 196.766 337.443 197.03 336.195 197.018L332.451 197V187.55H333.729V190.844L336.429 190.88ZM336.105 196.046C336.993 196.058 337.659 195.884 338.103 195.524C338.559 195.152 338.787 194.612 338.787 193.904C338.787 193.196 338.565 192.68 338.121 192.356C337.677 192.02 337.005 191.846 336.105 191.834L333.729 191.798V196.01L336.105 196.046ZM351.295 197V187.55H359.791V197H358.513V188.324L358.837 188.666H352.249L352.573 188.324V197H351.295ZM367.311 197.09C366.399 197.09 365.577 196.886 364.845 196.478C364.125 196.058 363.555 195.488 363.135 194.768C362.715 194.036 362.505 193.202 362.505 192.266C362.505 191.318 362.715 190.484 363.135 189.764C363.555 189.044 364.125 188.48 364.845 188.072C365.565 187.664 366.387 187.46 367.311 187.46C368.247 187.46 369.075 187.664 369.795 188.072C370.527 188.48 371.097 189.044 371.505 189.764C371.925 190.484 372.135 191.318 372.135 192.266C372.135 193.202 371.925 194.036 371.505 194.768C371.097 195.488 370.527 196.058 369.795 196.478C369.063 196.886 368.235 197.09 367.311 197.09ZM367.311 195.956C367.995 195.956 368.601 195.806 369.129 195.506C369.657 195.194 370.071 194.762 370.371 194.21C370.683 193.646 370.839 192.998 370.839 192.266C370.839 191.522 370.683 190.874 370.371 190.322C370.071 189.77 369.657 189.344 369.129 189.044C368.601 188.732 368.001 188.576 367.329 188.576C366.657 188.576 366.057 188.732 365.529 189.044C365.001 189.344 364.581 189.77 364.269 190.322C363.957 190.874 363.801 191.522 363.801 192.266C363.801 192.998 363.957 193.646 364.269 194.21C364.581 194.762 365.001 195.194 365.529 195.506C366.057 195.806 366.651 195.956 367.311 195.956ZM381.294 196.388V188.666H376.74L376.632 190.772C376.608 191.408 376.566 192.032 376.506 192.644C376.458 193.256 376.368 193.82 376.236 194.336C376.116 194.84 375.942 195.254 375.714 195.578C375.486 195.89 375.192 196.07 374.832 196.118L373.554 195.884C373.926 195.896 374.232 195.764 374.472 195.488C374.712 195.2 374.898 194.81 375.03 194.318C375.162 193.826 375.258 193.268 375.318 192.644C375.378 192.008 375.426 191.36 375.462 190.7L375.588 187.55H382.572V196.388H381.294ZM373.158 199.286V195.884H384.048V199.286H382.842V197H374.364V199.286H373.158ZM398.18 197L394.292 192.32L395.354 191.69L399.692 197H398.18ZM391.25 197V187.55H392.528V197H391.25ZM392.132 192.788V191.69H395.174V192.788H392.132ZM395.462 192.41L394.274 192.23L398.036 187.55H399.422L395.462 192.41ZM405.263 197.09C404.351 197.09 403.529 196.886 402.797 196.478C402.077 196.058 401.507 195.488 401.087 194.768C400.667 194.036 400.457 193.202 400.457 192.266C400.457 191.318 400.667 190.484 401.087 189.764C401.507 189.044 402.077 188.48 402.797 188.072C403.517 187.664 404.339 187.46 405.263 187.46C406.199 187.46 407.027 187.664 407.747 188.072C408.479 188.48 409.049 189.044 409.457 189.764C409.877 190.484 410.087 191.318 410.087 192.266C410.087 193.202 409.877 194.036 409.457 194.768C409.049 195.488 408.479 196.058 407.747 196.478C407.015 196.886 406.187 197.09 405.263 197.09ZM405.263 195.956C405.947 195.956 406.553 195.806 407.081 195.506C407.609 195.194 408.023 194.762 408.323 194.21C408.635 193.646 408.791 192.998 408.791 192.266C408.791 191.522 408.635 190.874 408.323 190.322C408.023 189.77 407.609 189.344 407.081 189.044C406.553 188.732 405.953 188.576 405.281 188.576C404.609 188.576 404.009 188.732 403.481 189.044C402.953 189.344 402.533 189.77 402.221 190.322C401.909 190.874 401.753 191.522 401.753 192.266C401.753 192.998 401.909 193.646 402.221 194.21C402.533 194.762 402.953 195.194 403.481 195.506C404.009 195.806 404.603 195.956 405.263 195.956ZM412.818 197V187.55H414.096V191.726H420.054V187.55H421.332V197H420.054V192.824H414.096V197H412.818ZM431.894 197L428.006 192.32L429.068 191.69L433.406 197H431.894ZM424.964 197V187.55H426.242V197H424.964ZM425.846 192.788V191.69H428.888V192.788H425.846ZM429.176 192.41L427.988 192.23L431.75 187.55H433.136L429.176 192.41ZM440.301 197.09C439.485 197.09 438.747 196.904 438.087 196.532C437.427 196.148 436.899 195.602 436.503 194.894C436.119 194.174 435.927 193.298 435.927 192.266C435.927 191.234 436.119 190.364 436.503 189.656C436.887 188.936 437.409 188.39 438.069 188.018C438.729 187.646 439.473 187.46 440.301 187.46C441.201 187.46 442.005 187.664 442.713 188.072C443.433 188.468 443.997 189.032 444.405 189.764C444.813 190.484 445.017 191.318 445.017 192.266C445.017 193.226 444.813 194.066 444.405 194.786C443.997 195.506 443.433 196.07 442.713 196.478C442.005 196.886 441.201 197.09 440.301 197.09ZM435.423 200.492V187.55H436.647V190.394L436.521 192.284L436.701 194.192V200.492H435.423ZM440.211 195.956C440.883 195.956 441.483 195.806 442.011 195.506C442.539 195.194 442.959 194.762 443.271 194.21C443.583 193.646 443.739 192.998 443.739 192.266C443.739 191.534 443.583 190.892 443.271 190.34C442.959 189.788 442.539 189.356 442.011 189.044C441.483 188.732 440.883 188.576 440.211 188.576C439.539 188.576 438.933 188.732 438.393 189.044C437.865 189.356 437.445 189.788 437.133 190.34C436.833 190.892 436.683 191.534 436.683 192.266C436.683 192.998 436.833 193.646 437.133 194.21C437.445 194.762 437.865 195.194 438.393 195.506C438.933 195.806 439.539 195.956 440.211 195.956ZM451.813 197.09C450.829 197.09 449.965 196.886 449.221 196.478C448.477 196.058 447.895 195.488 447.475 194.768C447.055 194.036 446.845 193.202 446.845 192.266C446.845 191.33 447.043 190.502 447.439 189.782C447.847 189.062 448.399 188.498 449.095 188.09C449.803 187.67 450.595 187.46 451.471 187.46C452.359 187.46 453.145 187.664 453.829 188.072C454.525 188.468 455.071 189.032 455.467 189.764C455.863 190.484 456.061 191.318 456.061 192.266C456.061 192.326 456.055 192.392 456.043 192.464C456.043 192.524 456.043 192.59 456.043 192.662H447.817V191.708H455.359L454.855 192.086C454.855 191.402 454.705 190.796 454.405 190.268C454.117 189.728 453.721 189.308 453.217 189.008C452.713 188.708 452.131 188.558 451.471 188.558C450.823 188.558 450.241 188.708 449.725 189.008C449.209 189.308 448.807 189.728 448.519 190.268C448.231 190.808 448.087 191.426 448.087 192.122V192.32C448.087 193.04 448.243 193.676 448.555 194.228C448.879 194.768 449.323 195.194 449.887 195.506C450.463 195.806 451.117 195.956 451.849 195.956C452.425 195.956 452.959 195.854 453.451 195.65C453.955 195.446 454.387 195.134 454.747 194.714L455.467 195.542C455.047 196.046 454.519 196.43 453.883 196.694C453.259 196.958 452.569 197.09 451.813 197.09ZM460.268 197V188.324L460.592 188.666H456.686V187.55H465.128V188.666H461.222L461.546 188.324V197H460.268ZM466.976 197V187.55H468.254V191.726H474.212V187.55H475.49V197H474.212V192.824H468.254V197H466.976ZM488.339 197V187.55H489.617V197H488.339ZM483.101 190.88C484.289 190.892 485.195 191.156 485.819 191.672C486.443 192.188 486.755 192.932 486.755 193.904C486.755 194.912 486.419 195.686 485.747 196.226C485.075 196.766 484.115 197.03 482.867 197.018L479.123 197V187.55H480.401V190.844L483.101 190.88ZM482.777 196.046C483.665 196.058 484.331 195.884 484.775 195.524C485.231 195.152 485.459 194.612 485.459 193.904C485.459 193.196 485.237 192.68 484.793 192.356C484.349 192.02 483.677 191.846 482.777 191.834L480.401 191.798V196.01L482.777 196.046ZM497.306 197.09C496.322 197.09 495.458 196.886 494.714 196.478C493.97 196.058 493.388 195.488 492.968 194.768C492.548 194.036 492.338 193.202 492.338 192.266C492.338 191.33 492.536 190.502 492.932 189.782C493.34 189.062 493.892 188.498 494.588 188.09C495.296 187.67 496.088 187.46 496.964 187.46C497.852 187.46 498.638 187.664 499.322 188.072C500.018 188.468 500.564 189.032 500.96 189.764C501.356 190.484 501.554 191.318 501.554 192.266C501.554 192.326 501.548 192.392 501.536 192.464C501.536 192.524 501.536 192.59 501.536 192.662H493.31V191.708H500.852L500.348 192.086C500.348 191.402 500.198 190.796 499.898 190.268C499.61 189.728 499.214 189.308 498.71 189.008C498.206 188.708 497.624 188.558 496.964 188.558C496.316 188.558 495.734 188.708 495.218 189.008C494.702 189.308 494.3 189.728 494.012 190.268C493.724 190.808 493.58 191.426 493.58 192.122V192.32C493.58 193.04 493.736 193.676 494.048 194.228C494.372 194.768 494.816 195.194 495.38 195.506C495.956 195.806 496.61 195.956 497.342 195.956C497.918 195.956 498.452 195.854 498.944 195.65C499.448 195.446 499.88 195.134 500.24 194.714L500.96 195.542C500.54 196.046 500.012 196.43 499.376 196.694C498.752 196.958 498.062 197.09 497.306 197.09ZM64.356 224.108C63.672 224.108 62.994 224.012 62.322 223.82C61.65 223.628 61.056 223.334 60.54 222.938L60.954 221.984C61.41 222.32 61.938 222.578 62.538 222.758C63.138 222.926 63.732 223.01 64.32 223.01C64.908 222.998 65.418 222.914 65.85 222.758C66.282 222.602 66.618 222.386 66.858 222.11C67.098 221.834 67.218 221.522 67.218 221.174C67.218 220.67 66.99 220.28 66.534 220.004C66.078 219.716 65.454 219.572 64.662 219.572H63.042V218.636H64.572C65.04 218.636 65.454 218.576 65.814 218.456C66.174 218.336 66.45 218.162 66.642 217.934C66.846 217.706 66.948 217.436 66.948 217.124C66.948 216.788 66.828 216.5 66.588 216.26C66.36 216.02 66.042 215.84 65.634 215.72C65.226 215.6 64.764 215.54 64.248 215.54C63.78 215.552 63.294 215.624 62.79 215.756C62.286 215.876 61.788 216.062 61.296 216.314L60.936 215.324C61.488 215.036 62.034 214.82 62.574 214.676C63.126 214.52 63.678 214.442 64.23 214.442C64.986 214.418 65.664 214.508 66.264 214.712C66.876 214.916 67.362 215.21 67.722 215.594C68.082 215.966 68.262 216.416 68.262 216.944C68.262 217.412 68.118 217.82 67.83 218.168C67.542 218.516 67.158 218.786 66.678 218.978C66.198 219.17 65.652 219.266 65.04 219.266L65.094 218.924C66.174 218.924 67.014 219.134 67.614 219.554C68.226 219.974 68.532 220.544 68.532 221.264C68.532 221.828 68.346 222.326 67.974 222.758C67.602 223.178 67.098 223.508 66.462 223.748C65.838 223.988 65.136 224.108 64.356 224.108ZM77.3012 224V221.912L77.2472 221.57V218.078C77.2472 217.274 77.0192 216.656 76.5632 216.224C76.1192 215.792 75.4532 215.576 74.5652 215.576C73.9532 215.576 73.3712 215.678 72.8192 215.882C72.2672 216.086 71.7992 216.356 71.4152 216.692L70.8392 215.738C71.3192 215.33 71.8952 215.018 72.5672 214.802C73.2392 214.574 73.9472 214.46 74.6912 214.46C75.9152 214.46 76.8572 214.766 77.5172 215.378C78.1892 215.978 78.5252 216.896 78.5252 218.132V224H77.3012ZM74.0432 224.09C73.3352 224.09 72.7172 223.976 72.1892 223.748C71.6732 223.508 71.2772 223.184 71.0012 222.776C70.7252 222.356 70.5872 221.876 70.5872 221.336C70.5872 220.844 70.7012 220.4 70.9292 220.004C71.1692 219.596 71.5532 219.272 72.0812 219.032C72.6212 218.78 73.3412 218.654 74.2412 218.654H77.4992V219.608H74.2772C73.3652 219.608 72.7292 219.77 72.3692 220.094C72.0212 220.418 71.8472 220.82 71.8472 221.3C71.8472 221.84 72.0572 222.272 72.4772 222.596C72.8972 222.92 73.4852 223.082 74.2412 223.082C74.9612 223.082 75.5792 222.92 76.0952 222.596C76.6232 222.26 77.0072 221.78 77.2472 221.156L77.5352 222.038C77.2952 222.662 76.8752 223.16 76.2752 223.532C75.6872 223.904 74.9432 224.09 74.0432 224.09ZM88.4074 223.388V215.666H83.8534L83.7454 217.772C83.7214 218.408 83.6794 219.032 83.6194 219.644C83.5714 220.256 83.4814 220.82 83.3494 221.336C83.2294 221.84 83.0554 222.254 82.8274 222.578C82.5994 222.89 82.3054 223.07 81.9454 223.118L80.6674 222.884C81.0394 222.896 81.3454 222.764 81.5854 222.488C81.8254 222.2 82.0114 221.81 82.1434 221.318C82.2754 220.826 82.3714 220.268 82.4314 219.644C82.4914 219.008 82.5394 218.36 82.5754 217.7L82.7014 214.55H89.6854V223.388H88.4074ZM80.2714 226.286V222.884H91.1614V226.286H89.9554V224H81.4774V226.286H80.2714ZM99.52 224V221.912L99.466 221.57V218.078C99.466 217.274 99.238 216.656 98.782 216.224C98.338 215.792 97.672 215.576 96.784 215.576C96.172 215.576 95.59 215.678 95.038 215.882C94.486 216.086 94.018 216.356 93.634 216.692L93.058 215.738C93.538 215.33 94.114 215.018 94.786 214.802C95.458 214.574 96.166 214.46 96.91 214.46C98.134 214.46 99.076 214.766 99.736 215.378C100.408 215.978 100.744 216.896 100.744 218.132V224H99.52ZM96.262 224.09C95.554 224.09 94.936 223.976 94.408 223.748C93.892 223.508 93.496 223.184 93.22 222.776C92.944 222.356 92.806 221.876 92.806 221.336C92.806 220.844 92.92 220.4 93.148 220.004C93.388 219.596 93.772 219.272 94.3 219.032C94.84 218.78 95.56 218.654 96.46 218.654H99.718V219.608H96.496C95.584 219.608 94.948 219.77 94.588 220.094C94.24 220.418 94.066 220.82 94.066 221.3C94.066 221.84 94.276 222.272 94.696 222.596C95.116 222.92 95.704 223.082 96.46 223.082C97.18 223.082 97.798 222.92 98.314 222.596C98.842 222.26 99.226 221.78 99.466 221.156L99.754 222.038C99.514 222.662 99.094 223.16 98.494 223.532C97.906 223.904 97.162 224.09 96.262 224.09ZM110.122 220.004C109.57 220.244 109.012 220.436 108.448 220.58C107.896 220.712 107.344 220.778 106.792 220.778C105.676 220.778 104.794 220.526 104.146 220.022C103.498 219.506 103.174 218.714 103.174 217.646V214.55H104.434V217.574C104.434 218.294 104.668 218.834 105.136 219.194C105.604 219.554 106.234 219.734 107.026 219.734C107.506 219.734 108.01 219.674 108.538 219.554C109.066 219.422 109.6 219.236 110.14 218.996L110.122 220.004ZM110.014 224V214.55H111.292V224H110.014ZM114.922 224V214.55H116.2V222.056L122.518 214.55H123.652V224H122.374V216.476L116.074 224H114.922ZM132.025 224V214.55H133.303V222.056L139.621 214.55H140.755V224H139.477V216.476L133.177 224H132.025ZM149.129 224V214.55H157.625V224H156.347V215.324L156.671 215.666H150.083L150.407 215.324V224H149.129ZM165.145 224.09C164.233 224.09 163.411 223.886 162.679 223.478C161.959 223.058 161.389 222.488 160.969 221.768C160.549 221.036 160.339 220.202 160.339 219.266C160.339 218.318 160.549 217.484 160.969 216.764C161.389 216.044 161.959 215.48 162.679 215.072C163.399 214.664 164.221 214.46 165.145 214.46C166.081 214.46 166.909 214.664 167.629 215.072C168.361 215.48 168.931 216.044 169.339 216.764C169.759 217.484 169.969 218.318 169.969 219.266C169.969 220.202 169.759 221.036 169.339 221.768C168.931 222.488 168.361 223.058 167.629 223.478C166.897 223.886 166.069 224.09 165.145 224.09ZM165.145 222.956C165.829 222.956 166.435 222.806 166.963 222.506C167.491 222.194 167.905 221.762 168.205 221.21C168.517 220.646 168.673 219.998 168.673 219.266C168.673 218.522 168.517 217.874 168.205 217.322C167.905 216.77 167.491 216.344 166.963 216.044C166.435 215.732 165.835 215.576 165.163 215.576C164.491 215.576 163.891 215.732 163.363 216.044C162.835 216.344 162.415 216.77 162.103 217.322C161.791 217.874 161.635 218.522 161.635 219.266C161.635 219.998 161.791 220.646 162.103 221.21C162.415 221.762 162.835 222.194 163.363 222.506C163.891 222.806 164.485 222.956 165.145 222.956ZM174.149 224V215.324L174.473 215.666H170.567V214.55H179.009V215.666H175.103L175.427 215.324V224H174.149ZM185.735 224.09C184.919 224.09 184.181 223.904 183.521 223.532C182.861 223.148 182.333 222.602 181.937 221.894C181.553 221.174 181.361 220.298 181.361 219.266C181.361 218.234 181.553 217.364 181.937 216.656C182.321 215.936 182.843 215.39 183.503 215.018C184.163 214.646 184.907 214.46 185.735 214.46C186.635 214.46 187.439 214.664 188.147 215.072C188.867 215.468 189.431 216.032 189.839 216.764C190.247 217.484 190.451 218.318 190.451 219.266C190.451 220.226 190.247 221.066 189.839 221.786C189.431 222.506 188.867 223.07 188.147 223.478C187.439 223.886 186.635 224.09 185.735 224.09ZM180.857 227.492V214.55H182.081V217.394L181.955 219.284L182.135 221.192V227.492H180.857ZM185.645 222.956C186.317 222.956 186.917 222.806 187.445 222.506C187.973 222.194 188.393 221.762 188.705 221.21C189.017 220.646 189.173 219.998 189.173 219.266C189.173 218.534 189.017 217.892 188.705 217.34C188.393 216.788 187.973 216.356 187.445 216.044C186.917 215.732 186.317 215.576 185.645 215.576C184.973 215.576 184.367 215.732 183.827 216.044C183.299 216.356 182.879 216.788 182.567 217.34C182.267 217.892 182.117 218.534 182.117 219.266C182.117 219.998 182.267 220.646 182.567 221.21C182.879 221.762 183.299 222.194 183.827 222.506C184.367 222.806 184.973 222.956 185.645 222.956ZM197.247 224.09C196.263 224.09 195.399 223.886 194.655 223.478C193.911 223.058 193.329 222.488 192.909 221.768C192.489 221.036 192.279 220.202 192.279 219.266C192.279 218.33 192.477 217.502 192.873 216.782C193.281 216.062 193.833 215.498 194.529 215.09C195.237 214.67 196.029 214.46 196.905 214.46C197.793 214.46 198.579 214.664 199.263 215.072C199.959 215.468 200.505 216.032 200.901 216.764C201.297 217.484 201.495 218.318 201.495 219.266C201.495 219.326 201.489 219.392 201.477 219.464C201.477 219.524 201.477 219.59 201.477 219.662H193.251V218.708H200.793L200.289 219.086C200.289 218.402 200.139 217.796 199.839 217.268C199.551 216.728 199.155 216.308 198.651 216.008C198.147 215.708 197.565 215.558 196.905 215.558C196.257 215.558 195.675 215.708 195.159 216.008C194.643 216.308 194.241 216.728 193.953 217.268C193.665 217.808 193.521 218.426 193.521 219.122V219.32C193.521 220.04 193.677 220.676 193.989 221.228C194.313 221.768 194.757 222.194 195.321 222.506C195.897 222.806 196.551 222.956 197.283 222.956C197.859 222.956 198.393 222.854 198.885 222.65C199.389 222.446 199.821 222.134 200.181 221.714L200.901 222.542C200.481 223.046 199.953 223.43 199.317 223.694C198.693 223.958 198.003 224.09 197.247 224.09ZM208.572 224.108C207.804 224.108 207.12 223.982 206.52 223.73C205.932 223.478 205.428 223.094 205.008 222.578C204.588 222.062 204.27 221.426 204.054 220.67C203.838 219.902 203.73 219.014 203.73 218.006C203.73 217.106 203.814 216.32 203.982 215.648C204.15 214.964 204.384 214.376 204.684 213.884C204.984 213.392 205.332 212.978 205.728 212.642C206.136 212.294 206.574 212.018 207.042 211.814C207.522 211.598 208.014 211.436 208.518 211.328L212.766 210.338L212.982 211.526L208.986 212.426C208.734 212.486 208.428 212.57 208.068 212.678C207.72 212.786 207.36 212.948 206.988 213.164C206.628 213.38 206.292 213.68 205.98 214.064C205.668 214.448 205.416 214.946 205.224 215.558C205.044 216.158 204.954 216.908 204.954 217.808C204.954 218 204.96 218.156 204.972 218.276C204.984 218.384 204.996 218.504 205.008 218.636C205.032 218.756 205.05 218.936 205.062 219.176L204.504 218.708C204.636 217.976 204.906 217.34 205.314 216.8C205.722 216.248 206.232 215.822 206.844 215.522C207.468 215.21 208.158 215.054 208.914 215.054C209.79 215.054 210.57 215.246 211.254 215.63C211.938 216.002 212.472 216.524 212.856 217.196C213.252 217.868 213.45 218.648 213.45 219.536C213.45 220.412 213.246 221.198 212.838 221.894C212.442 222.59 211.878 223.136 211.146 223.532C210.414 223.916 209.556 224.108 208.572 224.108ZM208.716 223.046C209.388 223.046 209.982 222.896 210.498 222.596C211.014 222.284 211.416 221.864 211.704 221.336C212.004 220.808 212.154 220.214 212.154 219.554C212.154 218.906 212.004 218.33 211.704 217.826C211.416 217.322 211.014 216.926 210.498 216.638C209.982 216.338 209.382 216.188 208.698 216.188C208.026 216.188 207.432 216.332 206.916 216.62C206.4 216.896 205.992 217.286 205.692 217.79C205.404 218.294 205.26 218.876 205.26 219.536C205.26 220.196 205.404 220.79 205.692 221.318C205.992 221.846 206.4 222.266 206.916 222.578C207.444 222.89 208.044 223.046 208.716 223.046ZM216.189 224V214.55H217.467V218.726H223.425V214.55H224.703V224H223.425V219.824H217.467V224H216.189ZM232.224 224.09C231.312 224.09 230.49 223.886 229.758 223.478C229.038 223.058 228.468 222.488 228.048 221.768C227.628 221.036 227.418 220.202 227.418 219.266C227.418 218.318 227.628 217.484 228.048 216.764C228.468 216.044 229.038 215.48 229.758 215.072C230.478 214.664 231.3 214.46 232.224 214.46C233.16 214.46 233.988 214.664 234.708 215.072C235.44 215.48 236.01 216.044 236.418 216.764C236.838 217.484 237.048 218.318 237.048 219.266C237.048 220.202 236.838 221.036 236.418 221.768C236.01 222.488 235.44 223.058 234.708 223.478C233.976 223.886 233.148 224.09 232.224 224.09ZM232.224 222.956C232.908 222.956 233.514 222.806 234.042 222.506C234.57 222.194 234.984 221.762 235.284 221.21C235.596 220.646 235.752 219.998 235.752 219.266C235.752 218.522 235.596 217.874 235.284 217.322C234.984 216.77 234.57 216.344 234.042 216.044C233.514 215.732 232.914 215.576 232.242 215.576C231.57 215.576 230.97 215.732 230.442 216.044C229.914 216.344 229.494 216.77 229.182 217.322C228.87 217.874 228.714 218.522 228.714 219.266C228.714 219.998 228.87 220.646 229.182 221.21C229.494 221.762 229.914 222.194 230.442 222.506C230.97 222.806 231.564 222.956 232.224 222.956ZM243.739 224.09C242.803 224.09 241.963 223.886 241.219 223.478C240.487 223.058 239.911 222.488 239.491 221.768C239.071 221.036 238.861 220.202 238.861 219.266C238.861 218.318 239.071 217.484 239.491 216.764C239.911 216.044 240.487 215.48 241.219 215.072C241.963 214.664 242.803 214.46 243.739 214.46C244.543 214.46 245.269 214.616 245.917 214.928C246.565 215.24 247.075 215.708 247.447 216.332L246.493 216.98C246.169 216.5 245.767 216.146 245.287 215.918C244.807 215.69 244.285 215.576 243.721 215.576C243.049 215.576 242.443 215.732 241.903 216.044C241.363 216.344 240.937 216.77 240.625 217.322C240.313 217.874 240.157 218.522 240.157 219.266C240.157 220.01 240.313 220.658 240.625 221.21C240.937 221.762 241.363 222.194 241.903 222.506C242.443 222.806 243.049 222.956 243.721 222.956C244.285 222.956 244.807 222.842 245.287 222.614C245.767 222.386 246.169 222.038 246.493 221.57L247.447 222.218C247.075 222.83 246.565 223.298 245.917 223.622C245.269 223.934 244.543 224.09 243.739 224.09ZM251.546 224V215.324L251.87 215.666H247.964V214.55H256.406V215.666H252.5L252.824 215.324V224H251.546ZM258.254 224V214.55H259.532V222.056L265.85 214.55H266.984V224H265.706V216.476L259.406 224H258.254ZM275.357 224V214.55H279.533C280.601 214.55 281.441 214.754 282.053 215.162C282.677 215.57 282.989 216.17 282.989 216.962C282.989 217.73 282.695 218.324 282.107 218.744C281.519 219.152 280.745 219.356 279.785 219.356L280.037 218.978C281.165 218.978 281.993 219.188 282.521 219.608C283.049 220.028 283.313 220.634 283.313 221.426C283.313 222.242 283.013 222.878 282.413 223.334C281.825 223.778 280.907 224 279.659 224H275.357ZM276.599 222.992H279.605C280.409 222.992 281.015 222.866 281.423 222.614C281.843 222.35 282.053 221.93 282.053 221.354C282.053 220.778 281.867 220.358 281.495 220.094C281.123 219.83 280.535 219.698 279.731 219.698H276.599V222.992ZM276.599 218.744H279.443C280.175 218.744 280.733 218.606 281.117 218.33C281.513 218.054 281.711 217.652 281.711 217.124C281.711 216.596 281.513 216.2 281.117 215.936C280.733 215.672 280.175 215.54 279.443 215.54H276.599V218.744ZM292.176 224V221.912L292.122 221.57V218.078C292.122 217.274 291.894 216.656 291.438 216.224C290.994 215.792 290.328 215.576 289.44 215.576C288.828 215.576 288.246 215.678 287.694 215.882C287.142 216.086 286.674 216.356 286.29 216.692L285.714 215.738C286.194 215.33 286.77 215.018 287.442 214.802C288.114 214.574 288.822 214.46 289.566 214.46C290.79 214.46 291.732 214.766 292.392 215.378C293.064 215.978 293.4 216.896 293.4 218.132V224H292.176ZM288.918 224.09C288.21 224.09 287.592 223.976 287.064 223.748C286.548 223.508 286.152 223.184 285.876 222.776C285.6 222.356 285.462 221.876 285.462 221.336C285.462 220.844 285.576 220.4 285.804 220.004C286.044 219.596 286.428 219.272 286.956 219.032C287.496 218.78 288.216 218.654 289.116 218.654H292.374V219.608H289.152C288.24 219.608 287.604 219.77 287.244 220.094C286.896 220.418 286.722 220.82 286.722 221.3C286.722 221.84 286.932 222.272 287.352 222.596C287.772 222.92 288.36 223.082 289.116 223.082C289.836 223.082 290.454 222.92 290.97 222.596C291.498 222.26 291.882 221.78 292.122 221.156L292.41 222.038C292.17 222.662 291.75 223.16 291.15 223.532C290.562 223.904 289.818 224.09 288.918 224.09ZM303.012 222.884L302.724 223.226V214.55H304.002V223.226L303.66 222.884H308.934L308.592 223.226V214.55H309.87V224H296.802V214.55H298.08V223.226L297.756 222.884H303.012ZM317.552 224.09C316.568 224.09 315.704 223.886 314.96 223.478C314.216 223.058 313.634 222.488 313.214 221.768C312.794 221.036 312.584 220.202 312.584 219.266C312.584 218.33 312.782 217.502 313.178 216.782C313.586 216.062 314.138 215.498 314.834 215.09C315.542 214.67 316.334 214.46 317.21 214.46C318.098 214.46 318.884 214.664 319.568 215.072C320.264 215.468 320.81 216.032 321.206 216.764C321.602 217.484 321.8 218.318 321.8 219.266C321.8 219.326 321.794 219.392 321.782 219.464C321.782 219.524 321.782 219.59 321.782 219.662H313.556V218.708H321.098L320.594 219.086C320.594 218.402 320.444 217.796 320.144 217.268C319.856 216.728 319.46 216.308 318.956 216.008C318.452 215.708 317.87 215.558 317.21 215.558C316.562 215.558 315.98 215.708 315.464 216.008C314.948 216.308 314.546 216.728 314.258 217.268C313.97 217.808 313.826 218.426 313.826 219.122V219.32C313.826 220.04 313.982 220.676 314.294 221.228C314.618 221.768 315.062 222.194 315.626 222.506C316.202 222.806 316.856 222.956 317.588 222.956C318.164 222.956 318.698 222.854 319.19 222.65C319.694 222.446 320.126 222.134 320.486 221.714L321.206 222.542C320.786 223.046 320.258 223.43 319.622 223.694C318.998 223.958 318.308 224.09 317.552 224.09ZM324.629 224V214.55H331.325V215.666H325.583L325.907 215.342V224H324.629ZM336.62 224.09C335.708 224.09 334.886 223.886 334.154 223.478C333.434 223.058 332.864 222.488 332.444 221.768C332.024 221.036 331.814 220.202 331.814 219.266C331.814 218.318 332.024 217.484 332.444 216.764C332.864 216.044 333.434 215.48 334.154 215.072C334.874 214.664 335.696 214.46 336.62 214.46C337.556 214.46 338.384 214.664 339.104 215.072C339.836 215.48 340.406 216.044 340.814 216.764C341.234 217.484 341.444 218.318 341.444 219.266C341.444 220.202 341.234 221.036 340.814 221.768C340.406 222.488 339.836 223.058 339.104 223.478C338.372 223.886 337.544 224.09 336.62 224.09ZM336.62 222.956C337.304 222.956 337.91 222.806 338.438 222.506C338.966 222.194 339.38 221.762 339.68 221.21C339.992 220.646 340.148 219.998 340.148 219.266C340.148 218.522 339.992 217.874 339.68 217.322C339.38 216.77 338.966 216.344 338.438 216.044C337.91 215.732 337.31 215.576 336.638 215.576C335.966 215.576 335.366 215.732 334.838 216.044C334.31 216.344 333.89 216.77 333.578 217.322C333.266 217.874 333.11 218.522 333.11 219.266C333.11 219.998 333.266 220.646 333.578 221.21C333.89 221.762 334.31 222.194 334.838 222.506C335.366 222.806 335.96 222.956 336.62 222.956ZM353.134 224.108C352.366 224.108 351.682 223.982 351.082 223.73C350.494 223.478 349.99 223.094 349.57 222.578C349.15 222.062 348.832 221.426 348.616 220.67C348.4 219.902 348.292 219.014 348.292 218.006C348.292 217.106 348.376 216.32 348.544 215.648C348.712 214.964 348.946 214.376 349.246 213.884C349.546 213.392 349.894 212.978 350.29 212.642C350.698 212.294 351.136 212.018 351.604 211.814C352.084 211.598 352.576 211.436 353.08 211.328L357.328 210.338L357.544 211.526L353.548 212.426C353.296 212.486 352.99 212.57 352.63 212.678C352.282 212.786 351.922 212.948 351.55 213.164C351.19 213.38 350.854 213.68 350.542 214.064C350.23 214.448 349.978 214.946 349.786 215.558C349.606 216.158 349.516 216.908 349.516 217.808C349.516 218 349.522 218.156 349.534 218.276C349.546 218.384 349.558 218.504 349.57 218.636C349.594 218.756 349.612 218.936 349.624 219.176L349.066 218.708C349.198 217.976 349.468 217.34 349.876 216.8C350.284 216.248 350.794 215.822 351.406 215.522C352.03 215.21 352.72 215.054 353.476 215.054C354.352 215.054 355.132 215.246 355.816 215.63C356.5 216.002 357.034 216.524 357.418 217.196C357.814 217.868 358.012 218.648 358.012 219.536C358.012 220.412 357.808 221.198 357.4 221.894C357.004 222.59 356.44 223.136 355.708 223.532C354.976 223.916 354.118 224.108 353.134 224.108ZM353.278 223.046C353.95 223.046 354.544 222.896 355.06 222.596C355.576 222.284 355.978 221.864 356.266 221.336C356.566 220.808 356.716 220.214 356.716 219.554C356.716 218.906 356.566 218.33 356.266 217.826C355.978 217.322 355.576 216.926 355.06 216.638C354.544 216.338 353.944 216.188 353.26 216.188C352.588 216.188 351.994 216.332 351.478 216.62C350.962 216.896 350.554 217.286 350.254 217.79C349.966 218.294 349.822 218.876 349.822 219.536C349.822 220.196 349.966 220.79 350.254 221.318C350.554 221.846 350.962 222.266 351.478 222.578C352.006 222.89 352.606 223.046 353.278 223.046ZM360.752 224V214.55H362.03V222.056L368.348 214.55H369.482V224H368.204V216.476L361.904 224H360.752ZM375.489 224.108C374.805 224.108 374.127 224.012 373.455 223.82C372.783 223.628 372.189 223.334 371.673 222.938L372.087 221.984C372.543 222.32 373.071 222.578 373.671 222.758C374.271 222.926 374.865 223.01 375.453 223.01C376.041 222.998 376.551 222.914 376.983 222.758C377.415 222.602 377.751 222.386 377.991 222.11C378.231 221.834 378.351 221.522 378.351 221.174C378.351 220.67 378.123 220.28 377.667 220.004C377.211 219.716 376.587 219.572 375.795 219.572H374.175V218.636H375.705C376.173 218.636 376.587 218.576 376.947 218.456C377.307 218.336 377.583 218.162 377.775 217.934C377.979 217.706 378.081 217.436 378.081 217.124C378.081 216.788 377.961 216.5 377.721 216.26C377.493 216.02 377.175 215.84 376.767 215.72C376.359 215.6 375.897 215.54 375.381 215.54C374.913 215.552 374.427 215.624 373.923 215.756C373.419 215.876 372.921 216.062 372.429 216.314L372.069 215.324C372.621 215.036 373.167 214.82 373.707 214.676C374.259 214.52 374.811 214.442 375.363 214.442C376.119 214.418 376.797 214.508 377.397 214.712C378.009 214.916 378.495 215.21 378.855 215.594C379.215 215.966 379.395 216.416 379.395 216.944C379.395 217.412 379.251 217.82 378.963 218.168C378.675 218.516 378.291 218.786 377.811 218.978C377.331 219.17 376.785 219.266 376.173 219.266L376.227 218.924C377.307 218.924 378.147 219.134 378.747 219.554C379.359 219.974 379.665 220.544 379.665 221.264C379.665 221.828 379.479 222.326 379.107 222.758C378.735 223.178 378.231 223.508 377.595 223.748C376.971 223.988 376.269 224.108 375.489 224.108ZM382.566 224V214.55H383.844V218.726H389.802V214.55H391.08V224H389.802V219.824H383.844V224H382.566ZM398.763 224.09C397.779 224.09 396.915 223.886 396.171 223.478C395.427 223.058 394.845 222.488 394.425 221.768C394.005 221.036 393.795 220.202 393.795 219.266C393.795 218.33 393.993 217.502 394.389 216.782C394.797 216.062 395.349 215.498 396.045 215.09C396.753 214.67 397.545 214.46 398.421 214.46C399.309 214.46 400.095 214.664 400.779 215.072C401.475 215.468 402.021 216.032 402.417 216.764C402.813 217.484 403.011 218.318 403.011 219.266C403.011 219.326 403.005 219.392 402.993 219.464C402.993 219.524 402.993 219.59 402.993 219.662H394.767V218.708H402.309L401.805 219.086C401.805 218.402 401.655 217.796 401.355 217.268C401.067 216.728 400.671 216.308 400.167 216.008C399.663 215.708 399.081 215.558 398.421 215.558C397.773 215.558 397.191 215.708 396.675 216.008C396.159 216.308 395.757 216.728 395.469 217.268C395.181 217.808 395.037 218.426 395.037 219.122V219.32C395.037 220.04 395.193 220.676 395.505 221.228C395.829 221.768 396.273 222.194 396.837 222.506C397.413 222.806 398.067 222.956 398.799 222.956C399.375 222.956 399.909 222.854 400.401 222.65C400.905 222.446 401.337 222.134 401.697 221.714L402.417 222.542C401.997 223.046 401.469 223.43 400.833 223.694C400.209 223.958 399.519 224.09 398.763 224.09ZM409.799 224.09C408.863 224.09 408.023 223.886 407.279 223.478C406.547 223.058 405.971 222.488 405.551 221.768C405.131 221.036 404.921 220.202 404.921 219.266C404.921 218.318 405.131 217.484 405.551 216.764C405.971 216.044 406.547 215.48 407.279 215.072C408.023 214.664 408.863 214.46 409.799 214.46C410.603 214.46 411.329 214.616 411.977 214.928C412.625 215.24 413.135 215.708 413.507 216.332L412.553 216.98C412.229 216.5 411.827 216.146 411.347 215.918C410.867 215.69 410.345 215.576 409.781 215.576C409.109 215.576 408.503 215.732 407.963 216.044C407.423 216.344 406.997 216.77 406.685 217.322C406.373 217.874 406.217 218.522 406.217 219.266C406.217 220.01 406.373 220.658 406.685 221.21C406.997 221.762 407.423 222.194 407.963 222.506C408.503 222.806 409.109 222.956 409.781 222.956C410.345 222.956 410.867 222.842 411.347 222.614C411.827 222.386 412.229 222.038 412.553 221.57L413.507 222.218C413.135 222.83 412.625 223.298 411.977 223.622C411.329 223.934 410.603 224.09 409.799 224.09ZM421.85 224V221.912L421.796 221.57V218.078C421.796 217.274 421.568 216.656 421.112 216.224C420.668 215.792 420.002 215.576 419.114 215.576C418.502 215.576 417.92 215.678 417.368 215.882C416.816 216.086 416.348 216.356 415.964 216.692L415.388 215.738C415.868 215.33 416.444 215.018 417.116 214.802C417.788 214.574 418.496 214.46 419.24 214.46C420.464 214.46 421.406 214.766 422.066 215.378C422.738 215.978 423.074 216.896 423.074 218.132V224H421.85ZM418.592 224.09C417.884 224.09 417.266 223.976 416.738 223.748C416.222 223.508 415.826 223.184 415.55 222.776C415.274 222.356 415.136 221.876 415.136 221.336C415.136 220.844 415.25 220.4 415.478 220.004C415.718 219.596 416.102 219.272 416.63 219.032C417.17 218.78 417.89 218.654 418.79 218.654H422.048V219.608H418.826C417.914 219.608 417.278 219.77 416.918 220.094C416.57 220.418 416.396 220.82 416.396 221.3C416.396 221.84 416.606 222.272 417.026 222.596C417.446 222.92 418.034 223.082 418.79 223.082C419.51 223.082 420.128 222.92 420.644 222.596C421.172 222.26 421.556 221.78 421.796 221.156L422.084 222.038C421.844 222.662 421.424 223.16 420.824 223.532C420.236 223.904 419.492 224.09 418.592 224.09ZM426.566 224.09C426.302 224.09 426.074 223.994 425.882 223.802C425.702 223.61 425.612 223.376 425.612 223.1C425.612 222.812 425.702 222.578 425.882 222.398C426.074 222.218 426.302 222.128 426.566 222.128C426.83 222.128 427.052 222.218 427.232 222.398C427.424 222.578 427.52 222.812 427.52 223.1C427.52 223.376 427.424 223.61 427.232 223.802C427.052 223.994 426.83 224.09 426.566 224.09Z" fill="#0C2836"/>
</g>
<defs>
<filter id="filter0_d_16096_12639" x="-17" y="0" width="598" height="335" filterUnits="userSpaceOnUse" color-interpolation-filters="sRGB">
<feFlood flood-opacity="0" result="BackgroundImageFix"/>
<feColorMatrix in="SourceAlpha" type="matrix" values="0 0 0 0 0 0 0 0 0 0 0 0 0 0 0 0 0 0 127 0" result="hardAlpha"/>
<feMorphology radius="2" operator="dilate" in="SourceAlpha" result="effect1_dropShadow_16096_12639"/>
<feOffset/>
<feGaussianBlur stdDeviation="17.5"/>
<feComposite in2="hardAlpha" operator="out"/>
<feColorMatrix type="matrix" values="0 0 0 0 0.670588 0 0 0 0 0.717647 0 0 0 0 0.807843 0 0 0 0.5 0"/>
<feBlend mode="normal" in2="BackgroundImageFix" result="effect1_dropShadow_16096_12639"/>
<feBlend mode="normal" in="SourceGraphic" in2="effect1_dropShadow_16096_12639" result="shape"/>
</filter>
<clipPath id="clip0_16096_12639">
<rect width="75" height="75" fill="white" transform="translate(60 77)"/>
</clipPath>
</defs>
</svg>
