<svg width="556" height="335" viewBox="0 0 556 335" fill="none" xmlns="http://www.w3.org/2000/svg">
<g filter="url(#filter0_d_16096_12648)">
<rect x="20" y="37" width="524" height="261" rx="40" fill="white"/>
<g clip-path="url(#clip0_16096_12648)">
<path d="M133.558 114.5C133.558 136.135 117.728 150.558 98.1996 150.558C82.327 150.558 69.5193 142.138 65.0482 128.923M61.4424 114.5C61.4424 92.8653 77.2717 78.4422 96.8005 78.4422C112.677 78.4422 125.481 86.8617 129.952 100.077" stroke="#0C2836" stroke-width="2" stroke-linecap="round" stroke-linejoin="round"/>
<path d="M72.8368 132.3L65.1925 128.838L62.4521 136.915M132.981 92.492L130.529 100.569L122.596 97.1074" stroke="#0C2836" stroke-width="2" stroke-linecap="round" stroke-linejoin="round"/>
<path fill-rule="evenodd" clip-rule="evenodd" d="M98.0771 89.1538C99.3769 89.1538 100.658 89.2501 101.906 89.4352L103.787 95.1345C105.435 95.6048 107.002 96.2751 108.454 97.1195L113.86 94.5124C115.775 95.9826 117.478 97.7157 118.915 99.6562L116.212 105.015C117.03 106.481 117.675 108.059 118.115 109.718L123.781 111.692C124.093 114.088 124.072 116.515 123.718 118.906L118.019 120.787C117.552 122.418 116.885 123.985 116.034 125.453L118.641 130.86C117.169 132.775 115.438 134.476 113.497 135.915L108.139 133.211C106.656 134.039 105.076 134.678 103.436 135.115L101.462 140.781C99.0658 141.093 96.6381 141.072 94.2479 140.718L92.3667 135.018C90.7356 134.551 89.1683 133.885 87.7006 133.034L82.2939 135.641C80.3788 134.168 78.6775 132.437 77.2389 130.497L79.9423 125.138C79.1165 123.655 78.4772 122.075 78.0388 120.435L72.3729 118.458C72.061 116.063 72.0822 113.636 72.4358 111.247L78.1351 109.366C78.6054 107.718 79.2757 106.152 80.1201 104.7L77.513 99.2933C78.9851 97.3782 80.7163 95.6769 82.6568 94.2383L88.0154 96.9417C89.4977 96.1139 91.0777 95.4745 92.7185 95.0382L94.696 89.3723C95.8171 89.2264 96.9465 89.1534 98.0771 89.1538Z" stroke="#0C2836" stroke-width="2" stroke-linecap="round" stroke-linejoin="round"/>
<path d="M98.0768 126.186C104.213 126.186 109.187 121.212 109.187 115.076C109.187 108.941 104.213 103.967 98.0768 103.967C91.941 103.967 86.967 108.941 86.967 115.076C86.967 121.212 91.941 126.186 98.0768 126.186Z" stroke="#0C2836" stroke-width="2" stroke-linecap="round" stroke-linejoin="round"/>
<path d="M94 115L97 118L102 113" stroke="#0C2836" stroke-width="2" stroke-linecap="round" stroke-linejoin="round"/>
</g>
<path d="M60.27 197L66.03 184.4H67.344L73.104 197H71.7L66.408 185.174H66.948L61.656 197H60.27ZM62.538 193.634L62.934 192.554H70.26L70.656 193.634H62.538ZM75.2125 197V187.55H76.4905V191.726H82.4485V187.55H83.7265V197H82.4485V192.824H76.4905V197H75.2125ZM93.227 197V194.912L93.173 194.57V191.078C93.173 190.274 92.945 189.656 92.489 189.224C92.045 188.792 91.379 188.576 90.491 188.576C89.879 188.576 89.297 188.678 88.745 188.882C88.193 189.086 87.725 189.356 87.341 189.692L86.765 188.738C87.245 188.33 87.821 188.018 88.493 187.802C89.165 187.574 89.873 187.46 90.617 187.46C91.841 187.46 92.783 187.766 93.443 188.378C94.115 188.978 94.451 189.896 94.451 191.132V197H93.227ZM89.969 197.09C89.261 197.09 88.643 196.976 88.115 196.748C87.599 196.508 87.203 196.184 86.927 195.776C86.651 195.356 86.513 194.876 86.513 194.336C86.513 193.844 86.627 193.4 86.855 193.004C87.095 192.596 87.479 192.272 88.007 192.032C88.547 191.78 89.267 191.654 90.167 191.654H93.425V192.608H90.203C89.291 192.608 88.655 192.77 88.295 193.094C87.947 193.418 87.773 193.82 87.773 194.3C87.773 194.84 87.983 195.272 88.403 195.596C88.823 195.92 89.411 196.082 90.167 196.082C90.887 196.082 91.505 195.92 92.021 195.596C92.549 195.26 92.933 194.78 93.173 194.156L93.461 195.038C93.221 195.662 92.801 196.16 92.201 196.532C91.613 196.904 90.869 197.09 89.969 197.09ZM96.1252 196.982L96.2152 195.884C96.2992 195.896 96.3772 195.914 96.4492 195.938C96.5332 195.95 96.6052 195.956 96.6652 195.956C97.0492 195.956 97.3552 195.812 97.5832 195.524C97.8232 195.236 98.0032 194.852 98.1232 194.372C98.2432 193.892 98.3272 193.352 98.3752 192.752C98.4232 192.14 98.4652 191.528 98.5012 190.916L98.6632 187.55H105.593V197H104.315V188.288L104.639 188.666H99.4912L99.7972 188.27L99.6532 191.006C99.6172 191.822 99.5512 192.602 99.4552 193.346C99.3712 194.09 99.2332 194.744 99.0412 195.308C98.8612 195.872 98.6092 196.316 98.2852 196.64C97.9612 196.952 97.5472 197.108 97.0432 197.108C96.8992 197.108 96.7492 197.096 96.5932 197.072C96.4492 197.048 96.2932 197.018 96.1252 196.982ZM109.226 197V187.55H110.504V195.056L116.822 187.55H117.956V197H116.678V189.476L110.378 197H109.226ZM123.963 197.108C123.279 197.108 122.601 197.012 121.929 196.82C121.257 196.628 120.663 196.334 120.147 195.938L120.561 194.984C121.017 195.32 121.545 195.578 122.145 195.758C122.745 195.926 123.339 196.01 123.927 196.01C124.515 195.998 125.025 195.914 125.457 195.758C125.889 195.602 126.225 195.386 126.465 195.11C126.705 194.834 126.825 194.522 126.825 194.174C126.825 193.67 126.597 193.28 126.141 193.004C125.685 192.716 125.061 192.572 124.269 192.572H122.649V191.636H124.179C124.647 191.636 125.061 191.576 125.421 191.456C125.781 191.336 126.057 191.162 126.249 190.934C126.453 190.706 126.555 190.436 126.555 190.124C126.555 189.788 126.435 189.5 126.195 189.26C125.967 189.02 125.649 188.84 125.241 188.72C124.833 188.6 124.371 188.54 123.855 188.54C123.387 188.552 122.901 188.624 122.397 188.756C121.893 188.876 121.395 189.062 120.903 189.314L120.543 188.324C121.095 188.036 121.641 187.82 122.181 187.676C122.733 187.52 123.285 187.442 123.837 187.442C124.593 187.418 125.271 187.508 125.871 187.712C126.483 187.916 126.969 188.21 127.329 188.594C127.689 188.966 127.869 189.416 127.869 189.944C127.869 190.412 127.725 190.82 127.437 191.168C127.149 191.516 126.765 191.786 126.285 191.978C125.805 192.17 125.259 192.266 124.647 192.266L124.701 191.924C125.781 191.924 126.621 192.134 127.221 192.554C127.833 192.974 128.139 193.544 128.139 194.264C128.139 194.828 127.953 195.326 127.581 195.758C127.209 196.178 126.705 196.508 126.069 196.748C125.445 196.988 124.743 197.108 123.963 197.108ZM135.752 197V187.55H137.03V195.056L143.348 187.55H144.482V197H143.204V189.476L136.904 197H135.752ZM158.723 197V194.912L158.669 194.57V191.078C158.669 190.274 158.441 189.656 157.985 189.224C157.541 188.792 156.875 188.576 155.987 188.576C155.375 188.576 154.793 188.678 154.241 188.882C153.689 189.086 153.221 189.356 152.837 189.692L152.261 188.738C152.741 188.33 153.317 188.018 153.989 187.802C154.661 187.574 155.369 187.46 156.113 187.46C157.337 187.46 158.279 187.766 158.939 188.378C159.611 188.978 159.947 189.896 159.947 191.132V197H158.723ZM155.465 197.09C154.757 197.09 154.139 196.976 153.611 196.748C153.095 196.508 152.699 196.184 152.423 195.776C152.147 195.356 152.009 194.876 152.009 194.336C152.009 193.844 152.123 193.4 152.351 193.004C152.591 192.596 152.975 192.272 153.503 192.032C154.043 191.78 154.763 191.654 155.663 191.654H158.921V192.608H155.699C154.787 192.608 154.151 192.77 153.791 193.094C153.443 193.418 153.269 193.82 153.269 194.3C153.269 194.84 153.479 195.272 153.899 195.596C154.319 195.92 154.907 196.082 155.663 196.082C156.383 196.082 157.001 195.92 157.517 195.596C158.045 195.26 158.429 194.78 158.669 194.156L158.957 195.038C158.717 195.662 158.297 196.16 157.697 196.532C157.109 196.904 156.365 197.09 155.465 197.09ZM163.349 197V187.55H167.525C168.593 187.55 169.433 187.754 170.045 188.162C170.669 188.57 170.981 189.17 170.981 189.962C170.981 190.73 170.687 191.324 170.099 191.744C169.511 192.152 168.737 192.356 167.777 192.356L168.029 191.978C169.157 191.978 169.985 192.188 170.513 192.608C171.041 193.028 171.305 193.634 171.305 194.426C171.305 195.242 171.005 195.878 170.405 196.334C169.817 196.778 168.899 197 167.651 197H163.349ZM164.591 195.992H167.597C168.401 195.992 169.007 195.866 169.415 195.614C169.835 195.35 170.045 194.93 170.045 194.354C170.045 193.778 169.859 193.358 169.487 193.094C169.115 192.83 168.527 192.698 167.723 192.698H164.591V195.992ZM164.591 191.744H167.435C168.167 191.744 168.725 191.606 169.109 191.33C169.505 191.054 169.703 190.652 169.703 190.124C169.703 189.596 169.505 189.2 169.109 188.936C168.725 188.672 168.167 188.54 167.435 188.54H164.591V191.744ZM176.1 197V188.324L176.424 188.666H172.518V187.55H180.96V188.666H177.054L177.378 188.324V197H176.1ZM186.257 197.09C185.345 197.09 184.523 196.886 183.791 196.478C183.071 196.058 182.501 195.488 182.081 194.768C181.661 194.036 181.451 193.202 181.451 192.266C181.451 191.318 181.661 190.484 182.081 189.764C182.501 189.044 183.071 188.48 183.791 188.072C184.511 187.664 185.333 187.46 186.257 187.46C187.193 187.46 188.021 187.664 188.741 188.072C189.473 188.48 190.043 189.044 190.451 189.764C190.871 190.484 191.081 191.318 191.081 192.266C191.081 193.202 190.871 194.036 190.451 194.768C190.043 195.488 189.473 196.058 188.741 196.478C188.009 196.886 187.181 197.09 186.257 197.09ZM186.257 195.956C186.941 195.956 187.547 195.806 188.075 195.506C188.603 195.194 189.017 194.762 189.317 194.21C189.629 193.646 189.785 192.998 189.785 192.266C189.785 191.522 189.629 190.874 189.317 190.322C189.017 189.77 188.603 189.344 188.075 189.044C187.547 188.732 186.947 188.576 186.275 188.576C185.603 188.576 185.003 188.732 184.475 189.044C183.947 189.344 183.527 189.77 183.215 190.322C182.903 190.874 182.747 191.522 182.747 192.266C182.747 192.998 182.903 193.646 183.215 194.21C183.527 194.762 183.947 195.194 184.475 195.506C185.003 195.806 185.597 195.956 186.257 195.956ZM193.812 197V187.55H195.108L199.392 194.804H198.852L203.208 187.55H204.396V197H203.226V189.008L203.46 189.116L199.392 195.848H198.816L194.712 189.044L194.982 188.99V197H193.812ZM213.901 197V194.912L213.847 194.57V191.078C213.847 190.274 213.619 189.656 213.163 189.224C212.719 188.792 212.053 188.576 211.165 188.576C210.553 188.576 209.971 188.678 209.419 188.882C208.867 189.086 208.399 189.356 208.015 189.692L207.439 188.738C207.919 188.33 208.495 188.018 209.167 187.802C209.839 187.574 210.547 187.46 211.291 187.46C212.515 187.46 213.457 187.766 214.117 188.378C214.789 188.978 215.125 189.896 215.125 191.132V197H213.901ZM210.643 197.09C209.935 197.09 209.317 196.976 208.789 196.748C208.273 196.508 207.877 196.184 207.601 195.776C207.325 195.356 207.187 194.876 207.187 194.336C207.187 193.844 207.301 193.4 207.529 193.004C207.769 192.596 208.153 192.272 208.681 192.032C209.221 191.78 209.941 191.654 210.841 191.654H214.099V192.608H210.877C209.965 192.608 209.329 192.77 208.969 193.094C208.621 193.418 208.447 193.82 208.447 194.3C208.447 194.84 208.657 195.272 209.077 195.596C209.497 195.92 210.085 196.082 210.841 196.082C211.561 196.082 212.179 195.92 212.695 195.596C213.223 195.26 213.607 194.78 213.847 194.156L214.135 195.038C213.895 195.662 213.475 196.16 212.875 196.532C212.287 196.904 211.543 197.09 210.643 197.09ZM220.327 197V188.324L220.651 188.666H216.745V187.55H225.187V188.666H221.281L221.605 188.324V197H220.327ZM227.035 197V187.55H228.313V195.056L234.631 187.55H235.765V197H234.487V189.476L228.187 197H227.035ZM241.772 197.108C241.088 197.108 240.41 197.012 239.738 196.82C239.066 196.628 238.472 196.334 237.956 195.938L238.37 194.984C238.826 195.32 239.354 195.578 239.954 195.758C240.554 195.926 241.148 196.01 241.736 196.01C242.324 195.998 242.834 195.914 243.266 195.758C243.698 195.602 244.034 195.386 244.274 195.11C244.514 194.834 244.634 194.522 244.634 194.174C244.634 193.67 244.406 193.28 243.95 193.004C243.494 192.716 242.87 192.572 242.078 192.572H240.458V191.636H241.988C242.456 191.636 242.87 191.576 243.23 191.456C243.59 191.336 243.866 191.162 244.058 190.934C244.262 190.706 244.364 190.436 244.364 190.124C244.364 189.788 244.244 189.5 244.004 189.26C243.776 189.02 243.458 188.84 243.05 188.72C242.642 188.6 242.18 188.54 241.664 188.54C241.196 188.552 240.71 188.624 240.206 188.756C239.702 188.876 239.204 189.062 238.712 189.314L238.352 188.324C238.904 188.036 239.45 187.82 239.99 187.676C240.542 187.52 241.094 187.442 241.646 187.442C242.402 187.418 243.08 187.508 243.68 187.712C244.292 187.916 244.778 188.21 245.138 188.594C245.498 188.966 245.678 189.416 245.678 189.944C245.678 190.412 245.534 190.82 245.246 191.168C244.958 191.516 244.574 191.786 244.094 191.978C243.614 192.17 243.068 192.266 242.456 192.266L242.51 191.924C243.59 191.924 244.43 192.134 245.03 192.554C245.642 192.974 245.948 193.544 245.948 194.264C245.948 194.828 245.762 195.326 245.39 195.758C245.018 196.178 244.514 196.508 243.878 196.748C243.254 196.988 242.552 197.108 241.772 197.108ZM254.717 197V194.912L254.663 194.57V191.078C254.663 190.274 254.435 189.656 253.979 189.224C253.535 188.792 252.869 188.576 251.981 188.576C251.369 188.576 250.787 188.678 250.235 188.882C249.683 189.086 249.215 189.356 248.831 189.692L248.255 188.738C248.735 188.33 249.311 188.018 249.983 187.802C250.655 187.574 251.363 187.46 252.107 187.46C253.331 187.46 254.273 187.766 254.933 188.378C255.605 188.978 255.941 189.896 255.941 191.132V197H254.717ZM251.459 197.09C250.751 197.09 250.133 196.976 249.605 196.748C249.089 196.508 248.693 196.184 248.417 195.776C248.141 195.356 248.003 194.876 248.003 194.336C248.003 193.844 248.117 193.4 248.345 193.004C248.585 192.596 248.969 192.272 249.497 192.032C250.037 191.78 250.757 191.654 251.657 191.654H254.915V192.608H251.693C250.781 192.608 250.145 192.77 249.785 193.094C249.437 193.418 249.263 193.82 249.263 194.3C249.263 194.84 249.473 195.272 249.893 195.596C250.313 195.92 250.901 196.082 251.657 196.082C252.377 196.082 252.995 195.92 253.511 195.596C254.039 195.26 254.423 194.78 254.663 194.156L254.951 195.038C254.711 195.662 254.291 196.16 253.691 196.532C253.103 196.904 252.359 197.09 251.459 197.09ZM259.343 197V187.55H260.621V195.884H266.399V187.55H267.677V197H259.343ZM268.001 199.286V196.892L268.325 197H266.399V195.884H269.207V199.286H268.001ZM271.648 197V187.55H272.926V195.056L279.244 187.55H280.378V197H279.1V189.476L272.8 197H271.648ZM290.143 197V193.598L290.377 193.868H287.173C285.961 193.868 285.013 193.604 284.329 193.076C283.645 192.548 283.303 191.78 283.303 190.772C283.303 189.692 283.669 188.888 284.401 188.36C285.133 187.82 286.111 187.55 287.335 187.55H291.313V197H290.143ZM283.231 197L285.823 193.364H287.155L284.617 197H283.231ZM290.143 193.22V188.288L290.377 188.666H287.371C286.495 188.666 285.811 188.834 285.319 189.17C284.839 189.506 284.599 190.052 284.599 190.808C284.599 192.212 285.493 192.914 287.281 192.914H290.377L290.143 193.22ZM303.916 197.108C303.148 197.108 302.464 196.982 301.864 196.73C301.276 196.478 300.772 196.094 300.352 195.578C299.932 195.062 299.614 194.426 299.398 193.67C299.182 192.902 299.074 192.014 299.074 191.006C299.074 190.106 299.158 189.32 299.326 188.648C299.494 187.964 299.728 187.376 300.028 186.884C300.328 186.392 300.676 185.978 301.072 185.642C301.48 185.294 301.918 185.018 302.386 184.814C302.866 184.598 303.358 184.436 303.862 184.328L308.11 183.338L308.326 184.526L304.33 185.426C304.078 185.486 303.772 185.57 303.412 185.678C303.064 185.786 302.704 185.948 302.332 186.164C301.972 186.38 301.636 186.68 301.324 187.064C301.012 187.448 300.76 187.946 300.568 188.558C300.388 189.158 300.298 189.908 300.298 190.808C300.298 191 300.304 191.156 300.316 191.276C300.328 191.384 300.34 191.504 300.352 191.636C300.376 191.756 300.394 191.936 300.406 192.176L299.848 191.708C299.98 190.976 300.25 190.34 300.658 189.8C301.066 189.248 301.576 188.822 302.188 188.522C302.812 188.21 303.502 188.054 304.258 188.054C305.134 188.054 305.914 188.246 306.598 188.63C307.282 189.002 307.816 189.524 308.2 190.196C308.596 190.868 308.794 191.648 308.794 192.536C308.794 193.412 308.59 194.198 308.182 194.894C307.786 195.59 307.222 196.136 306.49 196.532C305.758 196.916 304.9 197.108 303.916 197.108ZM304.06 196.046C304.732 196.046 305.326 195.896 305.842 195.596C306.358 195.284 306.76 194.864 307.048 194.336C307.348 193.808 307.498 193.214 307.498 192.554C307.498 191.906 307.348 191.33 307.048 190.826C306.76 190.322 306.358 189.926 305.842 189.638C305.326 189.338 304.726 189.188 304.042 189.188C303.37 189.188 302.776 189.332 302.26 189.62C301.744 189.896 301.336 190.286 301.036 190.79C300.748 191.294 300.604 191.876 300.604 192.536C300.604 193.196 300.748 193.79 301.036 194.318C301.336 194.846 301.744 195.266 302.26 195.578C302.788 195.89 303.388 196.046 304.06 196.046ZM311.533 197V187.55H312.811V195.056L319.129 187.55H320.263V197H318.985V189.476L312.685 197H311.533ZM326.27 197.108C325.586 197.108 324.908 197.012 324.236 196.82C323.564 196.628 322.97 196.334 322.454 195.938L322.868 194.984C323.324 195.32 323.852 195.578 324.452 195.758C325.052 195.926 325.646 196.01 326.234 196.01C326.822 195.998 327.332 195.914 327.764 195.758C328.196 195.602 328.532 195.386 328.772 195.11C329.012 194.834 329.132 194.522 329.132 194.174C329.132 193.67 328.904 193.28 328.448 193.004C327.992 192.716 327.368 192.572 326.576 192.572H324.956V191.636H326.486C326.954 191.636 327.368 191.576 327.728 191.456C328.088 191.336 328.364 191.162 328.556 190.934C328.76 190.706 328.862 190.436 328.862 190.124C328.862 189.788 328.742 189.5 328.502 189.26C328.274 189.02 327.956 188.84 327.548 188.72C327.14 188.6 326.678 188.54 326.162 188.54C325.694 188.552 325.208 188.624 324.704 188.756C324.2 188.876 323.702 189.062 323.21 189.314L322.85 188.324C323.402 188.036 323.948 187.82 324.488 187.676C325.04 187.52 325.592 187.442 326.144 187.442C326.9 187.418 327.578 187.508 328.178 187.712C328.79 187.916 329.276 188.21 329.636 188.594C329.996 188.966 330.176 189.416 330.176 189.944C330.176 190.412 330.032 190.82 329.744 191.168C329.456 191.516 329.072 191.786 328.592 191.978C328.112 192.17 327.566 192.266 326.954 192.266L327.008 191.924C328.088 191.924 328.928 192.134 329.528 192.554C330.14 192.974 330.446 193.544 330.446 194.264C330.446 194.828 330.26 195.326 329.888 195.758C329.516 196.178 329.012 196.508 328.376 196.748C327.752 196.988 327.05 197.108 326.27 197.108ZM333.347 197V187.55H334.625V191.726H340.583V187.55H341.861V197H340.583V192.824H334.625V197H333.347ZM349.544 197.09C348.56 197.09 347.696 196.886 346.952 196.478C346.208 196.058 345.626 195.488 345.206 194.768C344.786 194.036 344.576 193.202 344.576 192.266C344.576 191.33 344.774 190.502 345.17 189.782C345.578 189.062 346.13 188.498 346.826 188.09C347.534 187.67 348.326 187.46 349.202 187.46C350.09 187.46 350.876 187.664 351.56 188.072C352.256 188.468 352.802 189.032 353.198 189.764C353.594 190.484 353.792 191.318 353.792 192.266C353.792 192.326 353.786 192.392 353.774 192.464C353.774 192.524 353.774 192.59 353.774 192.662H345.548V191.708H353.09L352.586 192.086C352.586 191.402 352.436 190.796 352.136 190.268C351.848 189.728 351.452 189.308 350.948 189.008C350.444 188.708 349.862 188.558 349.202 188.558C348.554 188.558 347.972 188.708 347.456 189.008C346.94 189.308 346.538 189.728 346.25 190.268C345.962 190.808 345.818 191.426 345.818 192.122V192.32C345.818 193.04 345.974 193.676 346.286 194.228C346.61 194.768 347.054 195.194 347.618 195.506C348.194 195.806 348.848 195.956 349.58 195.956C350.156 195.956 350.69 195.854 351.182 195.65C351.686 195.446 352.118 195.134 352.478 194.714L353.198 195.542C352.778 196.046 352.25 196.43 351.614 196.694C350.99 196.958 350.3 197.09 349.544 197.09ZM360.581 197.09C359.645 197.09 358.805 196.886 358.061 196.478C357.329 196.058 356.753 195.488 356.333 194.768C355.913 194.036 355.703 193.202 355.703 192.266C355.703 191.318 355.913 190.484 356.333 189.764C356.753 189.044 357.329 188.48 358.061 188.072C358.805 187.664 359.645 187.46 360.581 187.46C361.385 187.46 362.111 187.616 362.759 187.928C363.407 188.24 363.917 188.708 364.289 189.332L363.335 189.98C363.011 189.5 362.609 189.146 362.129 188.918C361.649 188.69 361.127 188.576 360.563 188.576C359.891 188.576 359.285 188.732 358.745 189.044C358.205 189.344 357.779 189.77 357.467 190.322C357.155 190.874 356.999 191.522 356.999 192.266C356.999 193.01 357.155 193.658 357.467 194.21C357.779 194.762 358.205 195.194 358.745 195.506C359.285 195.806 359.891 195.956 360.563 195.956C361.127 195.956 361.649 195.842 362.129 195.614C362.609 195.386 363.011 195.038 363.335 194.57L364.289 195.218C363.917 195.83 363.407 196.298 362.759 196.622C362.111 196.934 361.385 197.09 360.581 197.09ZM365.885 192.68V191.564H370.601V192.68H365.885ZM373.496 197V187.55H381.992V197H380.714V188.324L381.038 188.666H374.45L374.774 188.324V197H373.496ZM390.503 197.09C389.687 197.09 388.949 196.904 388.289 196.532C387.629 196.148 387.101 195.602 386.705 194.894C386.321 194.174 386.129 193.298 386.129 192.266C386.129 191.234 386.321 190.364 386.705 189.656C387.089 188.936 387.611 188.39 388.271 188.018C388.931 187.646 389.675 187.46 390.503 187.46C391.403 187.46 392.207 187.664 392.915 188.072C393.635 188.468 394.199 189.032 394.607 189.764C395.015 190.484 395.219 191.318 395.219 192.266C395.219 193.226 395.015 194.066 394.607 194.786C394.199 195.506 393.635 196.07 392.915 196.478C392.207 196.886 391.403 197.09 390.503 197.09ZM385.625 200.492V187.55H386.849V190.394L386.723 192.284L386.903 194.192V200.492H385.625ZM390.413 195.956C391.085 195.956 391.685 195.806 392.213 195.506C392.741 195.194 393.161 194.762 393.473 194.21C393.785 193.646 393.941 192.998 393.941 192.266C393.941 191.534 393.785 190.892 393.473 190.34C393.161 189.788 392.741 189.356 392.213 189.044C391.685 188.732 391.085 188.576 390.413 188.576C389.741 188.576 389.135 188.732 388.595 189.044C388.067 189.356 387.647 189.788 387.335 190.34C387.035 190.892 386.885 191.534 386.885 192.266C386.885 192.998 387.035 193.646 387.335 194.21C387.647 194.762 388.067 195.194 388.595 195.506C389.135 195.806 389.741 195.956 390.413 195.956ZM401.852 197.09C400.94 197.09 400.118 196.886 399.386 196.478C398.666 196.058 398.096 195.488 397.676 194.768C397.256 194.036 397.046 193.202 397.046 192.266C397.046 191.318 397.256 190.484 397.676 189.764C398.096 189.044 398.666 188.48 399.386 188.072C400.106 187.664 400.928 187.46 401.852 187.46C402.788 187.46 403.616 187.664 404.336 188.072C405.068 188.48 405.638 189.044 406.046 189.764C406.466 190.484 406.676 191.318 406.676 192.266C406.676 193.202 406.466 194.036 406.046 194.768C405.638 195.488 405.068 196.058 404.336 196.478C403.604 196.886 402.776 197.09 401.852 197.09ZM401.852 195.956C402.536 195.956 403.142 195.806 403.67 195.506C404.198 195.194 404.612 194.762 404.912 194.21C405.224 193.646 405.38 192.998 405.38 192.266C405.38 191.522 405.224 190.874 404.912 190.322C404.612 189.77 404.198 189.344 403.67 189.044C403.142 188.732 402.542 188.576 401.87 188.576C401.198 188.576 400.598 188.732 400.07 189.044C399.542 189.344 399.122 189.77 398.81 190.322C398.498 190.874 398.342 191.522 398.342 192.266C398.342 192.998 398.498 193.646 398.81 194.21C399.122 194.762 399.542 195.194 400.07 195.506C400.598 195.806 401.192 195.956 401.852 195.956ZM409.408 197V187.55H410.686V195.884H416.464V187.55H417.742V197H409.408ZM418.066 199.286V196.892L418.39 197H416.464V195.884H419.272V199.286H418.066ZM425.763 197.09C424.779 197.09 423.915 196.886 423.171 196.478C422.427 196.058 421.845 195.488 421.425 194.768C421.005 194.036 420.795 193.202 420.795 192.266C420.795 191.33 420.993 190.502 421.389 189.782C421.797 189.062 422.349 188.498 423.045 188.09C423.753 187.67 424.545 187.46 425.421 187.46C426.309 187.46 427.095 187.664 427.779 188.072C428.475 188.468 429.021 189.032 429.417 189.764C429.813 190.484 430.011 191.318 430.011 192.266C430.011 192.326 430.005 192.392 429.993 192.464C429.993 192.524 429.993 192.59 429.993 192.662H421.767V191.708H429.309L428.805 192.086C428.805 191.402 428.655 190.796 428.355 190.268C428.067 189.728 427.671 189.308 427.167 189.008C426.663 188.708 426.081 188.558 425.421 188.558C424.773 188.558 424.191 188.708 423.675 189.008C423.159 189.308 422.757 189.728 422.469 190.268C422.181 190.808 422.037 191.426 422.037 192.122V192.32C422.037 193.04 422.193 193.676 422.505 194.228C422.829 194.768 423.273 195.194 423.837 195.506C424.413 195.806 425.067 195.956 425.799 195.956C426.375 195.956 426.909 195.854 427.401 195.65C427.905 195.446 428.337 195.134 428.697 194.714L429.417 195.542C428.997 196.046 428.469 196.43 427.833 196.694C427.209 196.958 426.519 197.09 425.763 197.09ZM436.799 197.09C435.863 197.09 435.023 196.886 434.279 196.478C433.547 196.058 432.971 195.488 432.551 194.768C432.131 194.036 431.921 193.202 431.921 192.266C431.921 191.318 432.131 190.484 432.551 189.764C432.971 189.044 433.547 188.48 434.279 188.072C435.023 187.664 435.863 187.46 436.799 187.46C437.603 187.46 438.329 187.616 438.977 187.928C439.625 188.24 440.135 188.708 440.507 189.332L439.553 189.98C439.229 189.5 438.827 189.146 438.347 188.918C437.867 188.69 437.345 188.576 436.781 188.576C436.109 188.576 435.503 188.732 434.963 189.044C434.423 189.344 433.997 189.77 433.685 190.322C433.373 190.874 433.217 191.522 433.217 192.266C433.217 193.01 433.373 193.658 433.685 194.21C433.997 194.762 434.423 195.194 434.963 195.506C435.503 195.806 436.109 195.956 436.781 195.956C437.345 195.956 437.867 195.842 438.347 195.614C438.827 195.386 439.229 195.038 439.553 194.57L440.507 195.218C440.135 195.83 439.625 196.298 438.977 196.622C438.329 196.934 437.603 197.09 436.799 197.09ZM446.784 197.09C445.848 197.09 445.008 196.886 444.264 196.478C443.532 196.058 442.956 195.488 442.536 194.768C442.116 194.036 441.906 193.202 441.906 192.266C441.906 191.318 442.116 190.484 442.536 189.764C442.956 189.044 443.532 188.48 444.264 188.072C445.008 187.664 445.848 187.46 446.784 187.46C447.588 187.46 448.314 187.616 448.962 187.928C449.61 188.24 450.12 188.708 450.492 189.332L449.538 189.98C449.214 189.5 448.812 189.146 448.332 188.918C447.852 188.69 447.33 188.576 446.766 188.576C446.094 188.576 445.488 188.732 444.948 189.044C444.408 189.344 443.982 189.77 443.67 190.322C443.358 190.874 443.202 191.522 443.202 192.266C443.202 193.01 443.358 193.658 443.67 194.21C443.982 194.762 444.408 195.194 444.948 195.506C445.488 195.806 446.094 195.956 446.766 195.956C447.33 195.956 447.852 195.842 448.332 195.614C448.812 195.386 449.214 195.038 449.538 194.57L450.492 195.218C450.12 195.83 449.61 196.298 448.962 196.622C448.314 196.934 447.588 197.09 446.784 197.09ZM456.696 197.09C455.784 197.09 454.962 196.886 454.23 196.478C453.51 196.058 452.94 195.488 452.52 194.768C452.1 194.036 451.89 193.202 451.89 192.266C451.89 191.318 452.1 190.484 452.52 189.764C452.94 189.044 453.51 188.48 454.23 188.072C454.95 187.664 455.772 187.46 456.696 187.46C457.632 187.46 458.46 187.664 459.18 188.072C459.912 188.48 460.482 189.044 460.89 189.764C461.31 190.484 461.52 191.318 461.52 192.266C461.52 193.202 461.31 194.036 460.89 194.768C460.482 195.488 459.912 196.058 459.18 196.478C458.448 196.886 457.62 197.09 456.696 197.09ZM456.696 195.956C457.38 195.956 457.986 195.806 458.514 195.506C459.042 195.194 459.456 194.762 459.756 194.21C460.068 193.646 460.224 192.998 460.224 192.266C460.224 191.522 460.068 190.874 459.756 190.322C459.456 189.77 459.042 189.344 458.514 189.044C457.986 188.732 457.386 188.576 456.714 188.576C456.042 188.576 455.442 188.732 454.914 189.044C454.386 189.344 453.966 189.77 453.654 190.322C453.342 190.874 453.186 191.522 453.186 192.266C453.186 192.998 453.342 193.646 453.654 194.21C453.966 194.762 454.386 195.194 454.914 195.506C455.442 195.806 456.036 195.956 456.696 195.956ZM464.252 197V187.55H468.428C469.496 187.55 470.336 187.754 470.948 188.162C471.572 188.57 471.884 189.17 471.884 189.962C471.884 190.73 471.59 191.324 471.002 191.744C470.414 192.152 469.64 192.356 468.68 192.356L468.932 191.978C470.06 191.978 470.888 192.188 471.416 192.608C471.944 193.028 472.208 193.634 472.208 194.426C472.208 195.242 471.908 195.878 471.308 196.334C470.72 196.778 469.802 197 468.554 197H464.252ZM465.494 195.992H468.5C469.304 195.992 469.91 195.866 470.318 195.614C470.738 195.35 470.948 194.93 470.948 194.354C470.948 193.778 470.762 193.358 470.39 193.094C470.018 192.83 469.43 192.698 468.626 192.698H465.494V195.992ZM465.494 191.744H468.338C469.07 191.744 469.628 191.606 470.012 191.33C470.408 191.054 470.606 190.652 470.606 190.124C470.606 189.596 470.408 189.2 470.012 188.936C469.628 188.672 469.07 188.54 468.338 188.54H465.494V191.744ZM60.09 223.982L60.18 222.884C60.264 222.896 60.342 222.914 60.414 222.938C60.498 222.95 60.57 222.956 60.63 222.956C61.014 222.956 61.32 222.812 61.548 222.524C61.788 222.236 61.968 221.852 62.088 221.372C62.208 220.892 62.292 220.352 62.34 219.752C62.388 219.14 62.43 218.528 62.466 217.916L62.628 214.55H69.558V224H68.28V215.288L68.604 215.666H63.456L63.762 215.27L63.618 218.006C63.582 218.822 63.516 219.602 63.42 220.346C63.336 221.09 63.198 221.744 63.006 222.308C62.826 222.872 62.574 223.316 62.25 223.64C61.926 223.952 61.512 224.108 61.008 224.108C60.864 224.108 60.714 224.096 60.558 224.072C60.414 224.048 60.258 224.018 60.09 223.982ZM73.191 224V214.55H74.469V218.618H77.349V219.788H74.469V224H73.191ZM81.327 224.09C80.427 224.09 79.617 223.886 78.897 223.478C78.189 223.058 77.631 222.488 77.223 221.768C76.815 221.036 76.611 220.202 76.611 219.266C76.611 218.318 76.815 217.484 77.223 216.764C77.631 216.044 78.189 215.48 78.897 215.072C79.617 214.664 80.427 214.46 81.327 214.46C82.227 214.46 83.031 214.664 83.739 215.072C84.447 215.48 85.005 216.044 85.413 216.764C85.821 217.484 86.025 218.318 86.025 219.266C86.025 220.202 85.821 221.036 85.413 221.768C85.005 222.488 84.447 223.058 83.739 223.478C83.031 223.886 82.227 224.09 81.327 224.09ZM81.327 222.974C81.987 222.974 82.575 222.818 83.091 222.506C83.607 222.194 84.015 221.762 84.315 221.21C84.615 220.646 84.765 219.998 84.765 219.266C84.765 218.522 84.615 217.874 84.315 217.322C84.015 216.77 83.607 216.344 83.091 216.044C82.575 215.732 81.987 215.576 81.327 215.576C80.679 215.576 80.091 215.732 79.563 216.044C79.047 216.344 78.639 216.77 78.339 217.322C78.039 217.874 77.889 218.522 77.889 219.266C77.889 219.998 78.039 220.646 78.339 221.21C78.639 221.762 79.047 222.194 79.563 222.506C80.091 222.818 80.679 222.974 81.327 222.974ZM93.0133 224.108C92.2453 224.108 91.5613 223.982 90.9613 223.73C90.3733 223.478 89.8693 223.094 89.4493 222.578C89.0293 222.062 88.7113 221.426 88.4953 220.67C88.2793 219.902 88.1713 219.014 88.1713 218.006C88.1713 217.106 88.2553 216.32 88.4233 215.648C88.5913 214.964 88.8253 214.376 89.1253 213.884C89.4253 213.392 89.7733 212.978 90.1693 212.642C90.5773 212.294 91.0153 212.018 91.4833 211.814C91.9633 211.598 92.4553 211.436 92.9593 211.328L97.2073 210.338L97.4233 211.526L93.4273 212.426C93.1753 212.486 92.8693 212.57 92.5093 212.678C92.1613 212.786 91.8013 212.948 91.4293 213.164C91.0693 213.38 90.7333 213.68 90.4213 214.064C90.1093 214.448 89.8573 214.946 89.6653 215.558C89.4853 216.158 89.3953 216.908 89.3953 217.808C89.3953 218 89.4013 218.156 89.4133 218.276C89.4253 218.384 89.4373 218.504 89.4493 218.636C89.4733 218.756 89.4913 218.936 89.5033 219.176L88.9453 218.708C89.0773 217.976 89.3473 217.34 89.7553 216.8C90.1633 216.248 90.6733 215.822 91.2853 215.522C91.9093 215.21 92.5993 215.054 93.3553 215.054C94.2313 215.054 95.0113 215.246 95.6953 215.63C96.3793 216.002 96.9133 216.524 97.2973 217.196C97.6933 217.868 97.8913 218.648 97.8913 219.536C97.8913 220.412 97.6873 221.198 97.2793 221.894C96.8833 222.59 96.3193 223.136 95.5873 223.532C94.8553 223.916 93.9973 224.108 93.0133 224.108ZM93.1573 223.046C93.8293 223.046 94.4233 222.896 94.9393 222.596C95.4553 222.284 95.8573 221.864 96.1453 221.336C96.4453 220.808 96.5953 220.214 96.5953 219.554C96.5953 218.906 96.4453 218.33 96.1453 217.826C95.8573 217.322 95.4553 216.926 94.9393 216.638C94.4233 216.338 93.8233 216.188 93.1393 216.188C92.4673 216.188 91.8733 216.332 91.3573 216.62C90.8413 216.896 90.4333 217.286 90.1333 217.79C89.8453 218.294 89.7013 218.876 89.7013 219.536C89.7013 220.196 89.8453 220.79 90.1333 221.318C90.4333 221.846 90.8413 222.266 91.3573 222.578C91.8853 222.89 92.4853 223.046 93.1573 223.046ZM104.519 224.09C103.607 224.09 102.785 223.886 102.053 223.478C101.333 223.058 100.763 222.488 100.343 221.768C99.9225 221.036 99.7125 220.202 99.7125 219.266C99.7125 218.318 99.9225 217.484 100.343 216.764C100.763 216.044 101.333 215.48 102.053 215.072C102.773 214.664 103.595 214.46 104.519 214.46C105.455 214.46 106.283 214.664 107.003 215.072C107.735 215.48 108.305 216.044 108.713 216.764C109.133 217.484 109.343 218.318 109.343 219.266C109.343 220.202 109.133 221.036 108.713 221.768C108.305 222.488 107.735 223.058 107.003 223.478C106.271 223.886 105.443 224.09 104.519 224.09ZM104.519 222.956C105.203 222.956 105.809 222.806 106.337 222.506C106.865 222.194 107.279 221.762 107.579 221.21C107.891 220.646 108.047 219.998 108.047 219.266C108.047 218.522 107.891 217.874 107.579 217.322C107.279 216.77 106.865 216.344 106.337 216.044C105.809 215.732 105.209 215.576 104.537 215.576C103.865 215.576 103.265 215.732 102.737 216.044C102.209 216.344 101.789 216.77 101.477 217.322C101.165 217.874 101.009 218.522 101.009 219.266C101.009 219.998 101.165 220.646 101.477 221.21C101.789 221.762 102.209 222.194 102.737 222.506C103.265 222.806 103.859 222.956 104.519 222.956ZM112.074 224V214.55H113.352V222.056L119.67 214.55H120.804V224H119.526V216.476L113.226 224H112.074ZM116.358 213.182C115.566 213.182 114.924 212.984 114.432 212.588C113.952 212.18 113.7 211.598 113.676 210.842H114.594C114.606 211.322 114.774 211.7 115.098 211.976C115.422 212.252 115.842 212.39 116.358 212.39C116.874 212.39 117.294 212.252 117.618 211.976C117.954 211.7 118.128 211.322 118.14 210.842H119.058C119.046 211.598 118.794 212.18 118.302 212.588C117.81 212.984 117.162 213.182 116.358 213.182ZM133.137 224.09C132.201 224.09 131.361 223.886 130.617 223.478C129.885 223.058 129.309 222.488 128.889 221.768C128.469 221.036 128.259 220.202 128.259 219.266C128.259 218.318 128.469 217.484 128.889 216.764C129.309 216.044 129.885 215.48 130.617 215.072C131.361 214.664 132.201 214.46 133.137 214.46C133.941 214.46 134.667 214.616 135.315 214.928C135.963 215.24 136.473 215.708 136.845 216.332L135.891 216.98C135.567 216.5 135.165 216.146 134.685 215.918C134.205 215.69 133.683 215.576 133.119 215.576C132.447 215.576 131.841 215.732 131.301 216.044C130.761 216.344 130.335 216.77 130.023 217.322C129.711 217.874 129.555 218.522 129.555 219.266C129.555 220.01 129.711 220.658 130.023 221.21C130.335 221.762 130.761 222.194 131.301 222.506C131.841 222.806 132.447 222.956 133.119 222.956C133.683 222.956 134.205 222.842 134.685 222.614C135.165 222.386 135.567 222.038 135.891 221.57L136.845 222.218C136.473 222.83 135.963 223.298 135.315 223.622C134.667 223.934 133.941 224.09 133.137 224.09ZM137.258 223.982L137.348 222.884C137.432 222.896 137.51 222.914 137.582 222.938C137.666 222.95 137.738 222.956 137.798 222.956C138.182 222.956 138.488 222.812 138.716 222.524C138.956 222.236 139.136 221.852 139.256 221.372C139.376 220.892 139.46 220.352 139.508 219.752C139.556 219.14 139.598 218.528 139.634 217.916L139.796 214.55H146.726V224H145.448V215.288L145.772 215.666H140.624L140.93 215.27L140.786 218.006C140.75 218.822 140.684 219.602 140.588 220.346C140.504 221.09 140.366 221.744 140.174 222.308C139.994 222.872 139.742 223.316 139.418 223.64C139.094 223.952 138.68 224.108 138.176 224.108C138.032 224.108 137.882 224.096 137.726 224.072C137.582 224.048 137.426 224.018 137.258 223.982ZM154.247 224.09C153.335 224.09 152.513 223.886 151.781 223.478C151.061 223.058 150.491 222.488 150.071 221.768C149.651 221.036 149.441 220.202 149.441 219.266C149.441 218.318 149.651 217.484 150.071 216.764C150.491 216.044 151.061 215.48 151.781 215.072C152.501 214.664 153.323 214.46 154.247 214.46C155.183 214.46 156.011 214.664 156.731 215.072C157.463 215.48 158.033 216.044 158.441 216.764C158.861 217.484 159.071 218.318 159.071 219.266C159.071 220.202 158.861 221.036 158.441 221.768C158.033 222.488 157.463 223.058 156.731 223.478C155.999 223.886 155.171 224.09 154.247 224.09ZM154.247 222.956C154.931 222.956 155.537 222.806 156.065 222.506C156.593 222.194 157.007 221.762 157.307 221.21C157.619 220.646 157.775 219.998 157.775 219.266C157.775 218.522 157.619 217.874 157.307 217.322C157.007 216.77 156.593 216.344 156.065 216.044C155.537 215.732 154.937 215.576 154.265 215.576C153.593 215.576 152.993 215.732 152.465 216.044C151.937 216.344 151.517 216.77 151.205 217.322C150.893 217.874 150.737 218.522 150.737 219.266C150.737 219.998 150.893 220.646 151.205 221.21C151.517 221.762 151.937 222.194 152.465 222.506C152.993 222.806 153.587 222.956 154.247 222.956ZM172.682 224L169.442 219.32L170.504 218.69L174.212 224H172.682ZM167.318 219.788V218.69H170.306V219.788H167.318ZM170.63 219.41L169.406 219.23L172.556 214.55H173.942L170.63 219.41ZM161.486 224H159.956L163.664 218.69L164.708 219.32L161.486 224ZM167.714 224H166.436V214.55H167.714V224ZM166.832 219.788H163.862V218.69H166.832V219.788ZM163.556 219.41L160.226 214.55H161.612L164.744 219.23L163.556 219.41ZM176.339 224V214.55H177.617V218.726H183.575V214.55H184.853V224H183.575V219.824H177.617V224H176.339ZM192.374 224.09C191.462 224.09 190.64 223.886 189.908 223.478C189.188 223.058 188.618 222.488 188.198 221.768C187.778 221.036 187.568 220.202 187.568 219.266C187.568 218.318 187.778 217.484 188.198 216.764C188.618 216.044 189.188 215.48 189.908 215.072C190.628 214.664 191.45 214.46 192.374 214.46C193.31 214.46 194.138 214.664 194.858 215.072C195.59 215.48 196.16 216.044 196.568 216.764C196.988 217.484 197.198 218.318 197.198 219.266C197.198 220.202 196.988 221.036 196.568 221.768C196.16 222.488 195.59 223.058 194.858 223.478C194.126 223.886 193.298 224.09 192.374 224.09ZM192.374 222.956C193.058 222.956 193.664 222.806 194.192 222.506C194.72 222.194 195.134 221.762 195.434 221.21C195.746 220.646 195.902 219.998 195.902 219.266C195.902 218.522 195.746 217.874 195.434 217.322C195.134 216.77 194.72 216.344 194.192 216.044C193.664 215.732 193.064 215.576 192.392 215.576C191.72 215.576 191.12 215.732 190.592 216.044C190.064 216.344 189.644 216.77 189.332 217.322C189.02 217.874 188.864 218.522 188.864 219.266C188.864 219.998 189.02 220.646 189.332 221.21C189.644 221.762 190.064 222.194 190.592 222.506C191.12 222.806 191.714 222.956 192.374 222.956ZM203.889 224.09C202.953 224.09 202.113 223.886 201.369 223.478C200.637 223.058 200.061 222.488 199.641 221.768C199.221 221.036 199.011 220.202 199.011 219.266C199.011 218.318 199.221 217.484 199.641 216.764C200.061 216.044 200.637 215.48 201.369 215.072C202.113 214.664 202.953 214.46 203.889 214.46C204.693 214.46 205.419 214.616 206.067 214.928C206.715 215.24 207.225 215.708 207.597 216.332L206.643 216.98C206.319 216.5 205.917 216.146 205.437 215.918C204.957 215.69 204.435 215.576 203.871 215.576C203.199 215.576 202.593 215.732 202.053 216.044C201.513 216.344 201.087 216.77 200.775 217.322C200.463 217.874 200.307 218.522 200.307 219.266C200.307 220.01 200.463 220.658 200.775 221.21C201.087 221.762 201.513 222.194 202.053 222.506C202.593 222.806 203.199 222.956 203.871 222.956C204.435 222.956 204.957 222.842 205.437 222.614C205.917 222.386 206.319 222.038 206.643 221.57L207.597 222.218C207.225 222.83 206.715 223.298 206.067 223.622C205.419 223.934 204.693 224.09 203.889 224.09ZM211.696 224V215.324L212.02 215.666H208.114V214.55H216.556V215.666H212.65L212.974 215.324V224H211.696ZM218.404 224V214.55H219.682V222.056L226 214.55H227.134V224H225.856V216.476L219.556 224H218.404ZM239.467 224.09C238.531 224.09 237.691 223.886 236.947 223.478C236.215 223.058 235.639 222.488 235.219 221.768C234.799 221.036 234.589 220.202 234.589 219.266C234.589 218.318 234.799 217.484 235.219 216.764C235.639 216.044 236.215 215.48 236.947 215.072C237.691 214.664 238.531 214.46 239.467 214.46C240.271 214.46 240.997 214.616 241.645 214.928C242.293 215.24 242.803 215.708 243.175 216.332L242.221 216.98C241.897 216.5 241.495 216.146 241.015 215.918C240.535 215.69 240.013 215.576 239.449 215.576C238.777 215.576 238.171 215.732 237.631 216.044C237.091 216.344 236.665 216.77 236.353 217.322C236.041 217.874 235.885 218.522 235.885 219.266C235.885 220.01 236.041 220.658 236.353 221.21C236.665 221.762 237.091 222.194 237.631 222.506C238.171 222.806 238.777 222.956 239.449 222.956C240.013 222.956 240.535 222.842 241.015 222.614C241.495 222.386 241.897 222.038 242.221 221.57L243.175 222.218C242.803 222.83 242.293 223.298 241.645 223.622C240.997 223.934 240.271 224.09 239.467 224.09ZM250.361 224V214.55H251.639V222.056L257.957 214.55H259.091V224H257.813V216.476L251.513 224H250.361ZM266.714 224.09C265.778 224.09 264.938 223.886 264.194 223.478C263.462 223.058 262.886 222.488 262.466 221.768C262.046 221.036 261.836 220.202 261.836 219.266C261.836 218.318 262.046 217.484 262.466 216.764C262.886 216.044 263.462 215.48 264.194 215.072C264.938 214.664 265.778 214.46 266.714 214.46C267.518 214.46 268.244 214.616 268.892 214.928C269.54 215.24 270.05 215.708 270.422 216.332L269.468 216.98C269.144 216.5 268.742 216.146 268.262 215.918C267.782 215.69 267.26 215.576 266.696 215.576C266.024 215.576 265.418 215.732 264.878 216.044C264.338 216.344 263.912 216.77 263.6 217.322C263.288 217.874 263.132 218.522 263.132 219.266C263.132 220.01 263.288 220.658 263.6 221.21C263.912 221.762 264.338 222.194 264.878 222.506C265.418 222.806 266.024 222.956 266.696 222.956C267.26 222.956 267.782 222.842 268.262 222.614C268.742 222.386 269.144 222.038 269.468 221.57L270.422 222.218C270.05 222.83 269.54 223.298 268.892 223.622C268.244 223.934 267.518 224.09 266.714 224.09ZM272.896 224V214.55H281.392V224H280.114V215.324L280.438 215.666H273.85L274.174 215.324V224H272.896ZM288.913 224.09C288.001 224.09 287.179 223.886 286.447 223.478C285.727 223.058 285.157 222.488 284.737 221.768C284.317 221.036 284.107 220.202 284.107 219.266C284.107 218.318 284.317 217.484 284.737 216.764C285.157 216.044 285.727 215.48 286.447 215.072C287.167 214.664 287.989 214.46 288.913 214.46C289.849 214.46 290.677 214.664 291.397 215.072C292.129 215.48 292.699 216.044 293.107 216.764C293.527 217.484 293.737 218.318 293.737 219.266C293.737 220.202 293.527 221.036 293.107 221.768C292.699 222.488 292.129 223.058 291.397 223.478C290.665 223.886 289.837 224.09 288.913 224.09ZM288.913 222.956C289.597 222.956 290.203 222.806 290.731 222.506C291.259 222.194 291.673 221.762 291.973 221.21C292.285 220.646 292.441 219.998 292.441 219.266C292.441 218.522 292.285 217.874 291.973 217.322C291.673 216.77 291.259 216.344 290.731 216.044C290.203 215.732 289.603 215.576 288.931 215.576C288.259 215.576 287.659 215.732 287.131 216.044C286.603 216.344 286.183 216.77 285.871 217.322C285.559 217.874 285.403 218.522 285.403 219.266C285.403 219.998 285.559 220.646 285.871 221.21C286.183 221.762 286.603 222.194 287.131 222.506C287.659 222.806 288.253 222.956 288.913 222.956ZM294.688 223.982L294.778 222.884C294.862 222.896 294.94 222.914 295.012 222.938C295.096 222.95 295.168 222.956 295.228 222.956C295.612 222.956 295.918 222.812 296.146 222.524C296.386 222.236 296.566 221.852 296.686 221.372C296.806 220.892 296.89 220.352 296.938 219.752C296.986 219.14 297.028 218.528 297.064 217.916L297.226 214.55H304.156V224H302.878V215.288L303.202 215.666H298.054L298.36 215.27L298.216 218.006C298.18 218.822 298.114 219.602 298.018 220.346C297.934 221.09 297.796 221.744 297.604 222.308C297.424 222.872 297.172 223.316 296.848 223.64C296.524 223.952 296.11 224.108 295.606 224.108C295.462 224.108 295.312 224.096 295.156 224.072C295.012 224.048 294.856 224.018 294.688 223.982ZM311.857 217.88C313.045 217.892 313.945 218.156 314.557 218.672C315.181 219.188 315.493 219.932 315.493 220.904C315.493 221.912 315.157 222.686 314.485 223.226C313.825 223.766 312.865 224.03 311.605 224.018L307.789 224V214.55H309.067V217.844L311.857 217.88ZM311.533 223.046C312.409 223.058 313.069 222.884 313.513 222.524C313.969 222.152 314.197 221.612 314.197 220.904C314.197 220.196 313.975 219.68 313.531 219.356C313.087 219.02 312.421 218.846 311.533 218.834L309.067 218.798V223.01L311.533 223.046ZM320.381 224.108C319.697 224.108 319.019 224.012 318.347 223.82C317.675 223.628 317.081 223.334 316.565 222.938L316.979 221.984C317.435 222.32 317.963 222.578 318.563 222.758C319.163 222.926 319.757 223.01 320.345 223.01C320.933 222.998 321.443 222.914 321.875 222.758C322.307 222.602 322.643 222.386 322.883 222.11C323.123 221.834 323.243 221.522 323.243 221.174C323.243 220.67 323.015 220.28 322.559 220.004C322.103 219.716 321.479 219.572 320.687 219.572H319.067V218.636H320.597C321.065 218.636 321.479 218.576 321.839 218.456C322.199 218.336 322.475 218.162 322.667 217.934C322.871 217.706 322.973 217.436 322.973 217.124C322.973 216.788 322.853 216.5 322.613 216.26C322.385 216.02 322.067 215.84 321.659 215.72C321.251 215.6 320.789 215.54 320.273 215.54C319.805 215.552 319.319 215.624 318.815 215.756C318.311 215.876 317.813 216.062 317.321 216.314L316.961 215.324C317.513 215.036 318.059 214.82 318.599 214.676C319.151 214.52 319.703 214.442 320.255 214.442C321.011 214.418 321.689 214.508 322.289 214.712C322.901 214.916 323.387 215.21 323.747 215.594C324.107 215.966 324.287 216.416 324.287 216.944C324.287 217.412 324.143 217.82 323.855 218.168C323.567 218.516 323.183 218.786 322.703 218.978C322.223 219.17 321.677 219.266 321.065 219.266L321.119 218.924C322.199 218.924 323.039 219.134 323.639 219.554C324.251 219.974 324.557 220.544 324.557 221.264C324.557 221.828 324.371 222.326 323.999 222.758C323.627 223.178 323.123 223.508 322.487 223.748C321.863 223.988 321.161 224.108 320.381 224.108ZM331.347 224.09C330.435 224.09 329.613 223.886 328.881 223.478C328.161 223.058 327.591 222.488 327.171 221.768C326.751 221.036 326.541 220.202 326.541 219.266C326.541 218.318 326.751 217.484 327.171 216.764C327.591 216.044 328.161 215.48 328.881 215.072C329.601 214.664 330.423 214.46 331.347 214.46C332.283 214.46 333.111 214.664 333.831 215.072C334.563 215.48 335.133 216.044 335.541 216.764C335.961 217.484 336.171 218.318 336.171 219.266C336.171 220.202 335.961 221.036 335.541 221.768C335.133 222.488 334.563 223.058 333.831 223.478C333.099 223.886 332.271 224.09 331.347 224.09ZM331.347 222.956C332.031 222.956 332.637 222.806 333.165 222.506C333.693 222.194 334.107 221.762 334.407 221.21C334.719 220.646 334.875 219.998 334.875 219.266C334.875 218.522 334.719 217.874 334.407 217.322C334.107 216.77 333.693 216.344 333.165 216.044C332.637 215.732 332.037 215.576 331.365 215.576C330.693 215.576 330.093 215.732 329.565 216.044C329.037 216.344 328.617 216.77 328.305 217.322C327.993 217.874 327.837 218.522 327.837 219.266C327.837 219.998 327.993 220.646 328.305 221.21C328.617 221.762 329.037 222.194 329.565 222.506C330.093 222.806 330.687 222.956 331.347 222.956ZM338.902 224V214.55H343.078C344.146 214.55 344.986 214.754 345.598 215.162C346.222 215.57 346.534 216.17 346.534 216.962C346.534 217.73 346.24 218.324 345.652 218.744C345.064 219.152 344.29 219.356 343.33 219.356L343.582 218.978C344.71 218.978 345.538 219.188 346.066 219.608C346.594 220.028 346.858 220.634 346.858 221.426C346.858 222.242 346.558 222.878 345.958 223.334C345.37 223.778 344.452 224 343.204 224H338.902ZM340.144 222.992H343.15C343.954 222.992 344.56 222.866 344.968 222.614C345.388 222.35 345.598 221.93 345.598 221.354C345.598 220.778 345.412 220.358 345.04 220.094C344.668 219.83 344.08 219.698 343.276 219.698H340.144V222.992ZM340.144 218.744H342.988C343.72 218.744 344.278 218.606 344.662 218.33C345.058 218.054 345.256 217.652 345.256 217.124C345.256 216.596 345.058 216.2 344.662 215.936C344.278 215.672 343.72 215.54 342.988 215.54H340.144V218.744ZM355.721 224V221.912L355.667 221.57V218.078C355.667 217.274 355.439 216.656 354.983 216.224C354.539 215.792 353.873 215.576 352.985 215.576C352.373 215.576 351.791 215.678 351.239 215.882C350.687 216.086 350.219 216.356 349.835 216.692L349.259 215.738C349.739 215.33 350.315 215.018 350.987 214.802C351.659 214.574 352.367 214.46 353.111 214.46C354.335 214.46 355.277 214.766 355.937 215.378C356.609 215.978 356.945 216.896 356.945 218.132V224H355.721ZM352.463 224.09C351.755 224.09 351.137 223.976 350.609 223.748C350.093 223.508 349.697 223.184 349.421 222.776C349.145 222.356 349.007 221.876 349.007 221.336C349.007 220.844 349.121 220.4 349.349 220.004C349.589 219.596 349.973 219.272 350.501 219.032C351.041 218.78 351.761 218.654 352.661 218.654H355.919V219.608H352.697C351.785 219.608 351.149 219.77 350.789 220.094C350.441 220.418 350.267 220.82 350.267 221.3C350.267 221.84 350.477 222.272 350.897 222.596C351.317 222.92 351.905 223.082 352.661 223.082C353.381 223.082 353.999 222.92 354.515 222.596C355.043 222.26 355.427 221.78 355.667 221.156L355.955 222.038C355.715 222.662 355.295 223.16 354.695 223.532C354.107 223.904 353.363 224.09 352.463 224.09ZM360.347 224V214.55H361.625V218.726H367.583V214.55H368.861V224H367.583V219.824H361.625V224H360.347ZM372.494 224V214.55H373.772V222.056L380.09 214.55H381.224V224H379.946V216.476L373.646 224H372.494ZM388.936 224.09C387.952 224.09 387.088 223.886 386.344 223.478C385.6 223.058 385.018 222.488 384.598 221.768C384.178 221.036 383.968 220.202 383.968 219.266C383.968 218.33 384.166 217.502 384.562 216.782C384.97 216.062 385.522 215.498 386.218 215.09C386.926 214.67 387.718 214.46 388.594 214.46C389.482 214.46 390.268 214.664 390.952 215.072C391.648 215.468 392.194 216.032 392.59 216.764C392.986 217.484 393.184 218.318 393.184 219.266C393.184 219.326 393.178 219.392 393.166 219.464C393.166 219.524 393.166 219.59 393.166 219.662H384.94V218.708H392.482L391.978 219.086C391.978 218.402 391.828 217.796 391.528 217.268C391.24 216.728 390.844 216.308 390.34 216.008C389.836 215.708 389.254 215.558 388.594 215.558C387.946 215.558 387.364 215.708 386.848 216.008C386.332 216.308 385.93 216.728 385.642 217.268C385.354 217.808 385.21 218.426 385.21 219.122V219.32C385.21 220.04 385.366 220.676 385.678 221.228C386.002 221.768 386.446 222.194 387.01 222.506C387.586 222.806 388.24 222.956 388.972 222.956C389.548 222.956 390.082 222.854 390.574 222.65C391.078 222.446 391.51 222.134 391.87 221.714L392.59 222.542C392.17 223.046 391.642 223.43 391.006 223.694C390.382 223.958 389.692 224.09 388.936 224.09ZM396.013 224V214.55H397.309L401.593 221.804H401.053L405.409 214.55H406.597V224H405.427V216.008L405.661 216.116L401.593 222.848H401.017L396.913 216.044L397.183 215.99V224H396.013ZM65.778 251.09C64.842 251.09 64.002 250.886 63.258 250.478C62.526 250.058 61.95 249.488 61.53 248.768C61.11 248.036 60.9 247.202 60.9 246.266C60.9 245.318 61.11 244.484 61.53 243.764C61.95 243.044 62.526 242.48 63.258 242.072C64.002 241.664 64.842 241.46 65.778 241.46C66.582 241.46 67.308 241.616 67.956 241.928C68.604 242.24 69.114 242.708 69.486 243.332L68.532 243.98C68.208 243.5 67.806 243.146 67.326 242.918C66.846 242.69 66.324 242.576 65.76 242.576C65.088 242.576 64.482 242.732 63.942 243.044C63.402 243.344 62.976 243.77 62.664 244.322C62.352 244.874 62.196 245.522 62.196 246.266C62.196 247.01 62.352 247.658 62.664 248.21C62.976 248.762 63.402 249.194 63.942 249.506C64.482 249.806 65.088 249.956 65.76 249.956C66.324 249.956 66.846 249.842 67.326 249.614C67.806 249.386 68.208 249.038 68.532 248.57L69.486 249.218C69.114 249.83 68.604 250.298 67.956 250.622C67.308 250.934 66.582 251.09 65.778 251.09ZM75.6904 251.09C74.7784 251.09 73.9564 250.886 73.2244 250.478C72.5044 250.058 71.9344 249.488 71.5144 248.768C71.0944 248.036 70.8844 247.202 70.8844 246.266C70.8844 245.318 71.0944 244.484 71.5144 243.764C71.9344 243.044 72.5044 242.48 73.2244 242.072C73.9444 241.664 74.7664 241.46 75.6904 241.46C76.6264 241.46 77.4544 241.664 78.1744 242.072C78.9064 242.48 79.4764 243.044 79.8844 243.764C80.3044 244.484 80.5144 245.318 80.5144 246.266C80.5144 247.202 80.3044 248.036 79.8844 248.768C79.4764 249.488 78.9064 250.058 78.1744 250.478C77.4424 250.886 76.6144 251.09 75.6904 251.09ZM75.6904 249.956C76.3744 249.956 76.9804 249.806 77.5084 249.506C78.0364 249.194 78.4504 248.762 78.7504 248.21C79.0624 247.646 79.2184 246.998 79.2184 246.266C79.2184 245.522 79.0624 244.874 78.7504 244.322C78.4504 243.77 78.0364 243.344 77.5084 243.044C76.9804 242.732 76.3804 242.576 75.7084 242.576C75.0364 242.576 74.4364 242.732 73.9084 243.044C73.3804 243.344 72.9604 243.77 72.6484 244.322C72.3364 244.874 72.1804 245.522 72.1804 246.266C72.1804 246.998 72.3364 247.646 72.6484 248.21C72.9604 248.762 73.3804 249.194 73.9084 249.506C74.4364 249.806 75.0304 249.956 75.6904 249.956ZM83.2457 251V241.55H87.4217C88.4897 241.55 89.3297 241.754 89.9417 242.162C90.5657 242.57 90.8777 243.17 90.8777 243.962C90.8777 244.73 90.5837 245.324 89.9957 245.744C89.4077 246.152 88.6337 246.356 87.6737 246.356L87.9257 245.978C89.0537 245.978 89.8817 246.188 90.4097 246.608C90.9377 247.028 91.2017 247.634 91.2017 248.426C91.2017 249.242 90.9017 249.878 90.3017 250.334C89.7137 250.778 88.7957 251 87.5477 251H83.2457ZM84.4877 249.992H87.4937C88.2977 249.992 88.9037 249.866 89.3117 249.614C89.7317 249.35 89.9417 248.93 89.9417 248.354C89.9417 247.778 89.7557 247.358 89.3837 247.094C89.0117 246.83 88.4237 246.698 87.6197 246.698H84.4877V249.992ZM84.4877 245.744H87.3317C88.0637 245.744 88.6217 245.606 89.0057 245.33C89.4017 245.054 89.5997 244.652 89.5997 244.124C89.5997 243.596 89.4017 243.2 89.0057 242.936C88.6217 242.672 88.0637 242.54 87.3317 242.54H84.4877V245.744ZM99.0749 251.09C98.2589 251.09 97.5209 250.904 96.8609 250.532C96.2009 250.148 95.6729 249.602 95.2769 248.894C94.8929 248.174 94.7009 247.298 94.7009 246.266C94.7009 245.234 94.8929 244.364 95.2769 243.656C95.6609 242.936 96.1829 242.39 96.8429 242.018C97.5029 241.646 98.2469 241.46 99.0749 241.46C99.9749 241.46 100.779 241.664 101.487 242.072C102.207 242.468 102.771 243.032 103.179 243.764C103.587 244.484 103.791 245.318 103.791 246.266C103.791 247.226 103.587 248.066 103.179 248.786C102.771 249.506 102.207 250.07 101.487 250.478C100.779 250.886 99.9749 251.09 99.0749 251.09ZM94.1969 254.492V241.55H95.4209V244.394L95.2949 246.284L95.4749 248.192V254.492H94.1969ZM98.9849 249.956C99.6569 249.956 100.257 249.806 100.785 249.506C101.313 249.194 101.733 248.762 102.045 248.21C102.357 247.646 102.513 246.998 102.513 246.266C102.513 245.534 102.357 244.892 102.045 244.34C101.733 243.788 101.313 243.356 100.785 243.044C100.257 242.732 99.6569 242.576 98.9849 242.576C98.3129 242.576 97.7069 242.732 97.1669 243.044C96.6389 243.356 96.2189 243.788 95.9069 244.34C95.6069 244.892 95.4569 245.534 95.4569 246.266C95.4569 246.998 95.6069 247.646 95.9069 248.21C96.2189 248.762 96.6389 249.194 97.1669 249.506C97.7069 249.806 98.3129 249.956 98.9849 249.956ZM110.587 251.09C109.603 251.09 108.739 250.886 107.995 250.478C107.251 250.058 106.669 249.488 106.249 248.768C105.829 248.036 105.619 247.202 105.619 246.266C105.619 245.33 105.817 244.502 106.213 243.782C106.621 243.062 107.173 242.498 107.869 242.09C108.577 241.67 109.369 241.46 110.245 241.46C111.133 241.46 111.919 241.664 112.603 242.072C113.299 242.468 113.845 243.032 114.241 243.764C114.637 244.484 114.835 245.318 114.835 246.266C114.835 246.326 114.829 246.392 114.817 246.464C114.817 246.524 114.817 246.59 114.817 246.662H106.591V245.708H114.133L113.629 246.086C113.629 245.402 113.479 244.796 113.179 244.268C112.891 243.728 112.495 243.308 111.991 243.008C111.487 242.708 110.905 242.558 110.245 242.558C109.597 242.558 109.015 242.708 108.499 243.008C107.983 243.308 107.581 243.728 107.293 244.268C107.005 244.808 106.861 245.426 106.861 246.122V246.32C106.861 247.04 107.017 247.676 107.329 248.228C107.653 248.768 108.097 249.194 108.661 249.506C109.237 249.806 109.891 249.956 110.623 249.956C111.199 249.956 111.733 249.854 112.225 249.65C112.729 249.446 113.161 249.134 113.521 248.714L114.241 249.542C113.821 250.046 113.293 250.43 112.657 250.694C112.033 250.958 111.343 251.09 110.587 251.09ZM117.664 251V241.55H118.96L123.244 248.804H122.704L127.06 241.55H128.248V251H127.078V243.008L127.312 243.116L123.244 249.848H122.668L118.564 243.044L118.834 242.99V251H117.664ZM135.934 251.09C134.95 251.09 134.086 250.886 133.342 250.478C132.598 250.058 132.016 249.488 131.596 248.768C131.176 248.036 130.966 247.202 130.966 246.266C130.966 245.33 131.164 244.502 131.56 243.782C131.968 243.062 132.52 242.498 133.216 242.09C133.924 241.67 134.716 241.46 135.592 241.46C136.48 241.46 137.266 241.664 137.95 242.072C138.646 242.468 139.192 243.032 139.588 243.764C139.984 244.484 140.182 245.318 140.182 246.266C140.182 246.326 140.176 246.392 140.164 246.464C140.164 246.524 140.164 246.59 140.164 246.662H131.938V245.708H139.48L138.976 246.086C138.976 245.402 138.826 244.796 138.526 244.268C138.238 243.728 137.842 243.308 137.338 243.008C136.834 242.708 136.252 242.558 135.592 242.558C134.944 242.558 134.362 242.708 133.846 243.008C133.33 243.308 132.928 243.728 132.64 244.268C132.352 244.808 132.208 245.426 132.208 246.122V246.32C132.208 247.04 132.364 247.676 132.676 248.228C133 248.768 133.444 249.194 134.008 249.506C134.584 249.806 135.238 249.956 135.97 249.956C136.546 249.956 137.08 249.854 137.572 249.65C138.076 249.446 138.508 249.134 138.868 248.714L139.588 249.542C139.168 250.046 138.64 250.43 138.004 250.694C137.38 250.958 136.69 251.09 135.934 251.09ZM143.011 251V241.55H144.289V245.726H150.247V241.55H151.525V251H150.247V246.824H144.289V251H143.011ZM155.158 251V241.55H156.436V245.726H162.394V241.55H163.672V251H162.394V246.824H156.436V251H155.158ZM176.52 251V241.55H177.798V251H176.52ZM171.282 244.88C172.47 244.892 173.376 245.156 174 245.672C174.624 246.188 174.936 246.932 174.936 247.904C174.936 248.912 174.6 249.686 173.928 250.226C173.256 250.766 172.296 251.03 171.048 251.018L167.304 251V241.55H168.582V244.844L171.282 244.88ZM170.958 250.046C171.846 250.058 172.512 249.884 172.956 249.524C173.412 249.152 173.64 248.612 173.64 247.904C173.64 247.196 173.418 246.68 172.974 246.356C172.53 246.02 171.858 245.846 170.958 245.834L168.582 245.798V250.01L170.958 250.046ZM179.889 251L183.885 245.816L183.867 246.446L180.069 241.55H181.509L184.623 245.6L184.083 245.582L187.197 241.55H188.601L184.767 246.5L184.785 245.816L188.817 251H187.359L184.065 246.68L184.569 246.752L181.329 251H179.889ZM197.423 251V242.324L197.747 242.666H193.841V241.55H202.283V242.666H198.377L198.701 242.324V251H197.423ZM207.741 251.09C206.757 251.09 205.893 250.886 205.149 250.478C204.405 250.058 203.823 249.488 203.403 248.768C202.983 248.036 202.773 247.202 202.773 246.266C202.773 245.33 202.971 244.502 203.367 243.782C203.775 243.062 204.327 242.498 205.023 242.09C205.731 241.67 206.523 241.46 207.399 241.46C208.287 241.46 209.073 241.664 209.757 242.072C210.453 242.468 210.999 243.032 211.395 243.764C211.791 244.484 211.989 245.318 211.989 246.266C211.989 246.326 211.983 246.392 211.971 246.464C211.971 246.524 211.971 246.59 211.971 246.662H203.745V245.708H211.287L210.783 246.086C210.783 245.402 210.633 244.796 210.333 244.268C210.045 243.728 209.649 243.308 209.145 243.008C208.641 242.708 208.059 242.558 207.399 242.558C206.751 242.558 206.169 242.708 205.653 243.008C205.137 243.308 204.735 243.728 204.447 244.268C204.159 244.808 204.015 245.426 204.015 246.122V246.32C204.015 247.04 204.171 247.676 204.483 248.228C204.807 248.768 205.251 249.194 205.815 249.506C206.391 249.806 207.045 249.956 207.777 249.956C208.353 249.956 208.887 249.854 209.379 249.65C209.883 249.446 210.315 249.134 210.675 248.714L211.395 249.542C210.975 250.046 210.447 250.43 209.811 250.694C209.187 250.958 208.497 251.09 207.741 251.09ZM213.006 251L217.002 245.816L216.984 246.446L213.186 241.55H214.626L217.74 245.6L217.2 245.582L220.314 241.55H221.718L217.884 246.5L217.902 245.816L221.934 251H220.476L217.182 246.68L217.686 246.752L214.446 251H213.006ZM224.029 251V241.55H225.307V245.726H231.265V241.55H232.543V251H231.265V246.824H225.307V251H224.029ZM240.063 251.09C239.151 251.09 238.329 250.886 237.597 250.478C236.877 250.058 236.307 249.488 235.887 248.768C235.467 248.036 235.257 247.202 235.257 246.266C235.257 245.318 235.467 244.484 235.887 243.764C236.307 243.044 236.877 242.48 237.597 242.072C238.317 241.664 239.139 241.46 240.063 241.46C240.999 241.46 241.827 241.664 242.547 242.072C243.279 242.48 243.849 243.044 244.257 243.764C244.677 244.484 244.887 245.318 244.887 246.266C244.887 247.202 244.677 248.036 244.257 248.768C243.849 249.488 243.279 250.058 242.547 250.478C241.815 250.886 240.987 251.09 240.063 251.09ZM240.063 249.956C240.747 249.956 241.353 249.806 241.881 249.506C242.409 249.194 242.823 248.762 243.123 248.21C243.435 247.646 243.591 246.998 243.591 246.266C243.591 245.522 243.435 244.874 243.123 244.322C242.823 243.77 242.409 243.344 241.881 243.044C241.353 242.732 240.753 242.576 240.081 242.576C239.409 242.576 238.809 242.732 238.281 243.044C237.753 243.344 237.333 243.77 237.021 244.322C236.709 244.874 236.553 245.522 236.553 246.266C236.553 246.998 236.709 247.646 237.021 248.21C237.333 248.762 237.753 249.194 238.281 249.506C238.809 249.806 239.403 249.956 240.063 249.956ZM245.838 250.982L245.928 249.884C246.012 249.896 246.09 249.914 246.162 249.938C246.246 249.95 246.318 249.956 246.378 249.956C246.762 249.956 247.068 249.812 247.296 249.524C247.536 249.236 247.716 248.852 247.836 248.372C247.956 247.892 248.04 247.352 248.088 246.752C248.136 246.14 248.178 245.528 248.214 244.916L248.376 241.55H255.306V251H254.028V242.288L254.352 242.666H249.204L249.51 242.27L249.366 245.006C249.33 245.822 249.264 246.602 249.168 247.346C249.084 248.09 248.946 248.744 248.754 249.308C248.574 249.872 248.322 250.316 247.998 250.64C247.674 250.952 247.26 251.108 246.756 251.108C246.612 251.108 246.462 251.096 246.306 251.072C246.162 251.048 246.006 251.018 245.838 250.982ZM262.827 251.09C261.915 251.09 261.093 250.886 260.361 250.478C259.641 250.058 259.071 249.488 258.651 248.768C258.231 248.036 258.021 247.202 258.021 246.266C258.021 245.318 258.231 244.484 258.651 243.764C259.071 243.044 259.641 242.48 260.361 242.072C261.081 241.664 261.903 241.46 262.827 241.46C263.763 241.46 264.591 241.664 265.311 242.072C266.043 242.48 266.613 243.044 267.021 243.764C267.441 244.484 267.651 245.318 267.651 246.266C267.651 247.202 267.441 248.036 267.021 248.768C266.613 249.488 266.043 250.058 265.311 250.478C264.579 250.886 263.751 251.09 262.827 251.09ZM262.827 249.956C263.511 249.956 264.117 249.806 264.645 249.506C265.173 249.194 265.587 248.762 265.887 248.21C266.199 247.646 266.355 246.998 266.355 246.266C266.355 245.522 266.199 244.874 265.887 244.322C265.587 243.77 265.173 243.344 264.645 243.044C264.117 242.732 263.517 242.576 262.845 242.576C262.173 242.576 261.573 242.732 261.045 243.044C260.517 243.344 260.097 243.77 259.785 244.322C259.473 244.874 259.317 245.522 259.317 246.266C259.317 246.998 259.473 247.646 259.785 248.21C260.097 248.762 260.517 249.194 261.045 249.506C261.573 249.806 262.167 249.956 262.827 249.956ZM270.382 251V241.55H277.078V242.666H271.336L271.66 242.342V251H270.382ZM278.925 251V241.55H280.203V249.056L286.521 241.55H287.655V251H286.377V243.476L280.077 251H278.925ZM297.294 247.004C296.742 247.244 296.184 247.436 295.62 247.58C295.068 247.712 294.516 247.778 293.964 247.778C292.848 247.778 291.966 247.526 291.318 247.022C290.67 246.506 290.346 245.714 290.346 244.646V241.55H291.606V244.574C291.606 245.294 291.84 245.834 292.308 246.194C292.776 246.554 293.406 246.734 294.198 246.734C294.678 246.734 295.182 246.674 295.71 246.554C296.238 246.422 296.772 246.236 297.312 245.996L297.294 247.004ZM297.186 251V241.55H298.464V251H297.186ZM306.143 251.09C305.159 251.09 304.295 250.886 303.551 250.478C302.807 250.058 302.225 249.488 301.805 248.768C301.385 248.036 301.175 247.202 301.175 246.266C301.175 245.33 301.373 244.502 301.769 243.782C302.177 243.062 302.729 242.498 303.425 242.09C304.133 241.67 304.925 241.46 305.801 241.46C306.689 241.46 307.475 241.664 308.159 242.072C308.855 242.468 309.401 243.032 309.797 243.764C310.193 244.484 310.391 245.318 310.391 246.266C310.391 246.326 310.385 246.392 310.373 246.464C310.373 246.524 310.373 246.59 310.373 246.662H302.147V245.708H309.689L309.185 246.086C309.185 245.402 309.035 244.796 308.735 244.268C308.447 243.728 308.051 243.308 307.547 243.008C307.043 242.708 306.461 242.558 305.801 242.558C305.153 242.558 304.571 242.708 304.055 243.008C303.539 243.308 303.137 243.728 302.849 244.268C302.561 244.808 302.417 245.426 302.417 246.122V246.32C302.417 247.04 302.573 247.676 302.885 248.228C303.209 248.768 303.653 249.194 304.217 249.506C304.793 249.806 305.447 249.956 306.179 249.956C306.755 249.956 307.289 249.854 307.781 249.65C308.285 249.446 308.717 249.134 309.077 248.714L309.797 249.542C309.377 250.046 308.849 250.43 308.213 250.694C307.589 250.958 306.899 251.09 306.143 251.09ZM317.18 251.09C316.244 251.09 315.404 250.886 314.66 250.478C313.928 250.058 313.352 249.488 312.932 248.768C312.512 248.036 312.302 247.202 312.302 246.266C312.302 245.318 312.512 244.484 312.932 243.764C313.352 243.044 313.928 242.48 314.66 242.072C315.404 241.664 316.244 241.46 317.18 241.46C317.984 241.46 318.71 241.616 319.358 241.928C320.006 242.24 320.516 242.708 320.888 243.332L319.934 243.98C319.61 243.5 319.208 243.146 318.728 242.918C318.248 242.69 317.726 242.576 317.162 242.576C316.49 242.576 315.884 242.732 315.344 243.044C314.804 243.344 314.378 243.77 314.066 244.322C313.754 244.874 313.598 245.522 313.598 246.266C313.598 247.01 313.754 247.658 314.066 248.21C314.378 248.762 314.804 249.194 315.344 249.506C315.884 249.806 316.49 249.956 317.162 249.956C317.726 249.956 318.248 249.842 318.728 249.614C319.208 249.386 319.61 249.038 319.934 248.57L320.888 249.218C320.516 249.83 320.006 250.298 319.358 250.622C318.71 250.934 317.984 251.09 317.18 251.09ZM330.293 251L326.405 246.32L327.467 245.69L331.805 251H330.293ZM323.363 251V241.55H324.641V251H323.363ZM324.245 246.788V245.69H327.287V246.788H324.245ZM327.575 246.41L326.387 246.23L330.149 241.55H331.535L327.575 246.41ZM333.822 251V241.55H335.1V249.056L341.418 241.55H342.552V251H341.274V243.476L334.974 251H333.822ZM344.666 251L348.662 245.816L348.644 246.446L344.846 241.55H346.286L349.4 245.6L348.86 245.582L351.974 241.55H353.378L349.544 246.5L349.562 245.816L353.594 251H352.136L348.842 246.68L349.346 246.752L346.106 251H344.666ZM365.278 251.09C364.462 251.09 363.724 250.904 363.064 250.532C362.404 250.148 361.876 249.602 361.48 248.894C361.096 248.174 360.904 247.298 360.904 246.266C360.904 245.234 361.096 244.364 361.48 243.656C361.864 242.936 362.386 242.39 363.046 242.018C363.706 241.646 364.45 241.46 365.278 241.46C366.178 241.46 366.982 241.664 367.69 242.072C368.41 242.468 368.974 243.032 369.382 243.764C369.79 244.484 369.994 245.318 369.994 246.266C369.994 247.226 369.79 248.066 369.382 248.786C368.974 249.506 368.41 250.07 367.69 250.478C366.982 250.886 366.178 251.09 365.278 251.09ZM360.4 254.492V241.55H361.624V244.394L361.498 246.284L361.678 248.192V254.492H360.4ZM365.188 249.956C365.86 249.956 366.46 249.806 366.988 249.506C367.516 249.194 367.936 248.762 368.248 248.21C368.56 247.646 368.716 246.998 368.716 246.266C368.716 245.534 368.56 244.892 368.248 244.34C367.936 243.788 367.516 243.356 366.988 243.044C366.46 242.732 365.86 242.576 365.188 242.576C364.516 242.576 363.91 242.732 363.37 243.044C362.842 243.356 362.422 243.788 362.11 244.34C361.81 244.892 361.66 245.534 361.66 246.266C361.66 246.998 361.81 247.646 362.11 248.21C362.422 248.762 362.842 249.194 363.37 249.506C363.91 249.806 364.516 249.956 365.188 249.956ZM376.79 251.09C375.806 251.09 374.942 250.886 374.198 250.478C373.454 250.058 372.872 249.488 372.452 248.768C372.032 248.036 371.822 247.202 371.822 246.266C371.822 245.33 372.02 244.502 372.416 243.782C372.824 243.062 373.376 242.498 374.072 242.09C374.78 241.67 375.572 241.46 376.448 241.46C377.336 241.46 378.122 241.664 378.806 242.072C379.502 242.468 380.048 243.032 380.444 243.764C380.84 244.484 381.038 245.318 381.038 246.266C381.038 246.326 381.032 246.392 381.02 246.464C381.02 246.524 381.02 246.59 381.02 246.662H372.794V245.708H380.336L379.832 246.086C379.832 245.402 379.682 244.796 379.382 244.268C379.094 243.728 378.698 243.308 378.194 243.008C377.69 242.708 377.108 242.558 376.448 242.558C375.8 242.558 375.218 242.708 374.702 243.008C374.186 243.308 373.784 243.728 373.496 244.268C373.208 244.808 373.064 245.426 373.064 246.122V246.32C373.064 247.04 373.22 247.676 373.532 248.228C373.856 248.768 374.3 249.194 374.864 249.506C375.44 249.806 376.094 249.956 376.826 249.956C377.402 249.956 377.936 249.854 378.428 249.65C378.932 249.446 379.364 249.134 379.724 248.714L380.444 249.542C380.024 250.046 379.496 250.43 378.86 250.694C378.236 250.958 377.546 251.09 376.79 251.09ZM390.077 249.884L389.789 250.226V241.55H391.067V250.226L390.725 249.884H395.999L395.657 250.226V241.55H396.935V251H383.867V241.55H385.145V250.226L384.821 249.884H390.077ZM404.616 251.09C403.632 251.09 402.768 250.886 402.024 250.478C401.28 250.058 400.698 249.488 400.278 248.768C399.858 248.036 399.648 247.202 399.648 246.266C399.648 245.33 399.846 244.502 400.242 243.782C400.65 243.062 401.202 242.498 401.898 242.09C402.606 241.67 403.398 241.46 404.274 241.46C405.162 241.46 405.948 241.664 406.632 242.072C407.328 242.468 407.874 243.032 408.27 243.764C408.666 244.484 408.864 245.318 408.864 246.266C408.864 246.326 408.858 246.392 408.846 246.464C408.846 246.524 408.846 246.59 408.846 246.662H400.62V245.708H408.162L407.658 246.086C407.658 245.402 407.508 244.796 407.208 244.268C406.92 243.728 406.524 243.308 406.02 243.008C405.516 242.708 404.934 242.558 404.274 242.558C403.626 242.558 403.044 242.708 402.528 243.008C402.012 243.308 401.61 243.728 401.322 244.268C401.034 244.808 400.89 245.426 400.89 246.122V246.32C400.89 247.04 401.046 247.676 401.358 248.228C401.682 248.768 402.126 249.194 402.69 249.506C403.266 249.806 403.92 249.956 404.652 249.956C405.228 249.956 405.762 249.854 406.254 249.65C406.758 249.446 407.19 249.134 407.55 248.714L408.27 249.542C407.85 250.046 407.322 250.43 406.686 250.694C406.062 250.958 405.372 251.09 404.616 251.09ZM411.693 251V241.55H412.971V245.726H418.929V241.55H420.207V251H418.929V246.824H412.971V251H411.693ZM423.839 251V241.55H425.117V249.056L431.435 241.55H432.569V251H431.291V243.476L424.991 251H423.839ZM436.232 251V241.55H437.51V249.056L443.828 241.55H444.962V251H443.684V243.476L437.384 251H436.232ZM440.516 240.182C439.724 240.182 439.082 239.984 438.59 239.588C438.11 239.18 437.858 238.598 437.834 237.842H438.752C438.764 238.322 438.932 238.7 439.256 238.976C439.58 239.252 440 239.39 440.516 239.39C441.032 239.39 441.452 239.252 441.776 238.976C442.112 238.7 442.286 238.322 442.298 237.842H443.216C443.204 238.598 442.952 239.18 442.46 239.588C441.968 239.984 441.32 240.182 440.516 240.182ZM448.715 251.09C448.451 251.09 448.223 250.994 448.031 250.802C447.851 250.61 447.761 250.376 447.761 250.1C447.761 249.812 447.851 249.578 448.031 249.398C448.223 249.218 448.451 249.128 448.715 249.128C448.979 249.128 449.201 249.218 449.381 249.398C449.573 249.578 449.669 249.812 449.669 250.1C449.669 250.376 449.573 250.61 449.381 250.802C449.201 250.994 448.979 251.09 448.715 251.09Z" fill="#0C2836"/>
</g>
<defs>
<filter id="filter0_d_16096_12648" x="-17" y="0" width="598" height="335" filterUnits="userSpaceOnUse" color-interpolation-filters="sRGB">
<feFlood flood-opacity="0" result="BackgroundImageFix"/>
<feColorMatrix in="SourceAlpha" type="matrix" values="0 0 0 0 0 0 0 0 0 0 0 0 0 0 0 0 0 0 127 0" result="hardAlpha"/>
<feMorphology radius="2" operator="dilate" in="SourceAlpha" result="effect1_dropShadow_16096_12648"/>
<feOffset/>
<feGaussianBlur stdDeviation="17.5"/>
<feComposite in2="hardAlpha" operator="out"/>
<feColorMatrix type="matrix" values="0 0 0 0 0.670588 0 0 0 0 0.717647 0 0 0 0 0.807843 0 0 0 0.5 0"/>
<feBlend mode="normal" in2="BackgroundImageFix" result="effect1_dropShadow_16096_12648"/>
<feBlend mode="normal" in="SourceGraphic" in2="effect1_dropShadow_16096_12648" result="shape"/>
</filter>
<clipPath id="clip0_16096_12648">
<rect width="75" height="75" fill="white" transform="translate(60 77)"/>
</clipPath>
</defs>
</svg>
